<?xml version="1.0" encoding="utf-8"?>
<!-- Generator: Adobe Illustrator 19.0.0, SVG Export Plug-In . SVG Version: 6.00 Build 0)  -->
<svg version="1.1" xmlns="http://www.w3.org/2000/svg" xmlns:xlink="http://www.w3.org/1999/xlink" x="0px" y="0px"
	 viewBox="0 0 572.1 320.9" style="enable-background:new 0 0 572.1 320.9;" xml:space="preserve">
<style type="text/css">
	.st0{display:none;}
	.st1{fill:#F7DB17;}
	.st2{fill:#1F1A17;}
	.st3{fill:#FFFFFF;}
</style>
<g id="Siatka">
</g>
<g id="Warstwa_1" class="st0">
</g>
<g id="Pulpit" class="st0">
</g>
<g id="Prowadnice" class="st0">
</g>
<g id="Page_1">
	<g id="Warstwa_1_1_">
		<path class="st1" d="M367.9,98.9c2.2-3.1,6.4-9.3,6.4-9.3l-2.9-3.1c0,0-1.3,2.1-2.5,0.8c-1.3-1.3,4.8-19.7,4.8-19.7l-14.3-4.4
			l-1.9,7.2l3.2,3.2l-2.3,18.2c-3.7-2.5-7.6-4.7-11.6-6.8c0.6-2.7,2.4-10,6.1-19.6l-13.6-2.7l-6.3,7.1l3.3,2.1c0,0,0.9-0.9,1.7-1.3
			c1.7-1,2.3,1.2,1.1,3.1c-2.2,1.5-4.6,3.2-7,5c-3-1-6.1-2-9.3-2.8c4.2-9.5,8.6-19.3,10-21.5c1.4-0.6,5.7-0.8,5.7-0.8l1.1-8.9
			l-12.7,1.3l-14.6,27.8c-0.7-0.1-1.4-0.3-2.2-0.4c-0.1-2.5-0.2-14.8,0.9-24.4l-15.3,9.3l-1.4,11.4c0,0-0.7,0.9-1.8,2.4
			c-0.1,0-0.2,0-0.3,0c-0.2,0-0.4,0-0.5,0c-0.1-6.6-0.7-29.7-0.7-29.7l-14.3,10l0.3,6.2l3.3,0.3c0.5,4.3,0.9,9,1.4,13.6
			c-1.8,0.2-3.5,0.4-5.3,0.6l-0.3-2.8c0,0-1.6-1.1-2.6-2c-1.1,0.8-4.7,4.6-5.8,3c-0.8-1.1,1-2.6,1-2.6l-14.9-2l-2.6,7.8l3.2,2.3
			l-0.2,1.4c-4.7,1.5-9.2,3.4-13.6,5.4c1.4-5.2,3.1-10.4,3.1-10.4L228,69.1l-1.9,7.5l3.2,3.2l-0.9,10.5c-4,2.6-7.9,5.3-11.6,8.3
			C216.5,85,218,56,218.2,55.5c-1.5,0.5-14.6,4.2-14.6,4.2l-16.5,43.8l-4.2-0.7l-3.1,7.4l12.5,8.2l6.5-17.2l7,1.6
			c0.2,1.9,0.4,3.8,0.7,5.6c-16.8,18-26.9,41.4-26.9,66.9c0,57,50.5,103.3,112.7,103.3c62.2,0,112.7-46.2,112.7-103.3
			C404.9,145.1,390.6,117.8,367.9,98.9L367.9,98.9z M204.9,93.4l-3.9-1l4.9-13.5L204.9,93.4L204.9,93.4z M369.8,56.4
			c3.8,0,6.9-2.9,6.9-6.4c0-3.6-3.1-6.4-6.9-6.4c-3.8,0-6.9,2.9-6.9,6.4C362.9,53.5,366,56.4,369.8,56.4L369.8,56.4z M386.2,99.1
			l9.3-8.3l-3.2-3.6c0,0-2.6,2.1-3.3-0.1c-0.2-0.7,0.5-4.1,1.7-6.6c1.3-2.6,3.2-6.3,4.5-4.2c1.7,2.6,2.2,7.5,2.2,7.5l6.1-6.1l0-9.9
			c0,0-1.5-1.3-2.4-2.2c-1.2,0.7-5.2,4-6.1,2.3c-0.6-1.2,1.2-2.4,1.2-2.4L383.5,62l-3.3,7.3l3,2.5l-5.8,20.4L386.2,99.1L386.2,99.1z
			 M239.7,61.9c3.8,0,6.9-2.9,6.9-6.4c0-3.5-3.1-6.4-6.9-6.4c-3.8,0-6.9,2.9-6.9,6.4C232.8,59,235.9,61.9,239.7,61.9L239.7,61.9z"/>
		<polygon class="st2" points="319.8,230.1 319.8,230.1 319.8,230.1 		"/>
		<path class="st2" d="M373.4,207.9c-0.4-0.7-0.9-1.3-1.7-1.4c-0.6,0.4-1.3,1.1-1.1,2.2c0.4,0.9,1.5,1.1,2.4,1.1
			C372.7,209.2,373.8,208.8,373.4,207.9L373.4,207.9z"/>
		<path class="st2" d="M264.7,269.2C264.6,269.2,264.6,269.2,264.7,269.2C264.6,269.2,264.6,269.2,264.7,269.2
			C264.6,269.2,264.6,269.2,264.7,269.2L264.7,269.2z"/>
		<path class="st2" d="M401.3,201.4c-1.1-0.2-2.8-1.4-1.5-2.7c-0.2-1.6-2.1-2.3-2.8-0.7c-1.3,2.9,3,1.4,2.1,4
			c-0.2,1.1-1.5,1.8-2.6,1.8c-2.4-0.3-0.4-2.5-1.7-3.4c-0.9-0.9-2.2-0.7-2.8,0.2c-1.7,2.4,2.1,1.8,1.7,4c0,0.7-0.7,1.6-1.5,1.3
			c-0.9-0.2-1.7-1.4-1.3-2.5c-0.6-0.9-1.5-1.1-2.4-1.1c-1.1,0.4-2,1.5-2.2,2.4c-0.7,0.7-1.5,0.2-2.2,0c-2.8,0.2-2.4,4.9-5.7,2.9
			c-0.9,0.7-1.1,1.6-1.7,2.2c-1.1,1.1-2.6,0.2-3.9,0c-0.2,1.1-0.2,2.2-1.3,2.9c-2.6,0.9-2.4-1.8-3.2-3.2c-2.1-1.8-2.6,1.8-3.9,2.4
			c-4.1-2.7-3.1,4.4-6.9,2.4c-2.2-0.2-1.6,3.3-3.9,2.9c-0.9-0.4-2.6-1.1-1.7-2.5c-0.2-0.7-0.8-1.6-1.7-1.6c-3.7,1.7,1.7,2.7,1,5.2
			c-0.4,0.9-1.5,1.3-2.4,1.3c-1.3-0.5-1.7-1.8-1.3-2.9c-0.6-0.7-1.3-1.1-2.4-1.1c-0.4,0.4-1.3,0.9-1.3,1.8c-0.5,1.6-2,0.9-3,0.6
			c-0.6,0-1.5,0.7-1.7,1.3c-0.2,1.1-1.5,1.8-2.6,1.5c-3.2,0.2,0-2.9-2.1-3.8c-0.6-0.9-1.7-0.2-2.2,0.4c-1.5,3.1,3.7,1.4,2.1,4.5
			c-0.4,0.9-1.3,1.5-2.4,1.3c-1.1-0.2-1.7-1.6-1.3-2.7c-0.4-0.7-1.1-1.6-2.1-1.4c-1.5,0.4-1.5,2.2-2.4,3.1c-3.2-2.9-3.3,2.7-6.1,2.2
			c-1.3,0-2.8-1.1-1.7-2.5c-0.2-0.9-1.1-1.6-1.9-1.6c-3.9,2.4,2.1,2.7,1,4.9c-0.2,0.9-1.1,2-2.4,1.5c-1.3-0.2-1.3-1.8-1.1-2.9
			c-0.6-0.9-1.5-1.1-2.4-1.1c-1.1,0.2-1.5,1.6-2,2.4c-1.1,0.7-2.6-0.2-3.7,0c-0.7,1.1-1.3,2.9-2.8,2.7c-1.3-0.5-1.5-1.8-1.5-3.1
			c-0.6-0.7-1.3-1.4-2.4-1.1c-1.1,0.7-1.3,1.8-2,2.7c-1.5,0.4-2.8,0-3.9-0.9c0.4-1.1,0.9-2.4-0.4-3.1c-0.6-0.5-1.5-0.2-2,0.7
			c-1.7,2.7,3,1.6,2.1,4.3c-0.4,0.9-1.3,1.8-2.4,1.5c-1.1-0.7-1.5-1.8-1-2.9c-2.6-4.3-3.7,2-6.5,1.3c-0.6-0.2-1.9-0.9-1.3-2
			c-0.2-1.1-0.8-2.2-1.9-2.3c-1.3,0.2-1.5,1.5-1.8,2.7c0.6,0.7,1.7,0.7,2.4,1.4c0.4,0.9,0.2,1.8-0.7,2.5c-4.5,1.3,0-4.5-3.6-4.1
			c-3.2-1.8-2,3.6-5.2,2.6c-2.6-0.7,0-3.4-2.1-4.3c-3.2-1.6-2,3.8-5.2,2.4c-3.3,0.4-0.4-3.1-2.6-4c-0.9-0.5-1.7,0-2.2,0.7
			c-1.8,3.3,3.4,1.4,2.3,4.5c-0.2,0.9-1.3,1.3-2.2,1.3c-2.2-0.2-1.1-2.9-1.7-3.8c-3.2-2.9-2.6,2.9-5.9,2.2c-1.1-0.2-1.9-1.8-1.3-2.9
			c-2.3-4.3-3.7,1.7-6.1,1.1c-1.3-0.2-2.6-1.1-1.7-2.7c-0.2-0.9-1.1-1.6-2.1-1.6c-4.4,3.1,3,2.5,1.5,5.4c-0.4,1.1-1.5,1.8-2.6,1.5
			c-2.4-0.7-0.2-3.1-1.7-4.3c-3.4-2.3-2.4,3.3-5.2,2.4c-2.6-1.6-2.4,2-3.5,3.1c-0.9,0.2-1.5-0.2-2.4-0.3c-0.9,0.2-1.3,1.1-1.5,2
			c0.2,1.1,1.3,1.8,2.1,2c0.6,0,1.5-0.9,1.5-1.5c0-1.1,1.1-2,2.4-1.5c0.9,0.5,1.5,1.6,1.3,2.7c-0.2,1.8-2.4,1.3-3.5,1.1
			c-0.7,0.7-1.3,1.3-1.1,2.4c0.4,0.9,1.1,1.6,2.1,1.6c1.5,0,1.3-2,2.2-2.9c1.1-0.2,2.2,0,2.8,1.1c0.4,0.9,0.2,2.2-0.5,2.9
			c-0.9,0.2-1.5-0.2-2.4-0.3c-0.6,0.2-1.3,0.9-1.1,1.6c0.4,0.5,0.9,1.1,1.5,1.6c1.7,1.4,1.7-1.3,2.4-2.2c1.1,0,2.2,0,2.8,1.2
			c0.6,0.7,0,1.8,0,2.7c0.6,1.5,2.2,1,3.3,1.8c-0.1-0.1-0.1-0.2-0.1-0.3l0.1-0.5c0.2-1.1,0.4-2.7,2.1-2.7c1.7,0,2.3,1,2.3,2
			c0,0,0-0.1,0-0.1c0,0,0,0.1,0,0.1c0,0.2,0.1,0.4,0.1,0.6c0,0.5-0.1,0.9-0.4,1.3c-0.3,0.4-0.7,0.6-1.2,0.6l-2.1-0.4
			c-0.2,0-0.5-0.2-0.7-0.5c0.1,0.9-1.1,2,0,2.8c3.2,4.3,2.4-2.9,5.9-1.5c1.1,0.2,1.3,1.6,1.3,2.5c0,2-2.2,1.5-3.3,1.3
			c1.3,3.4,2.8-0.6,5.2,1.2c0.9,0.5,1.3,1.6,0.8,2.5c0.8,1.1,1.9,1.4,3,1.8c0.2-0.2,0.7-0.4,0.7-0.9c0.2-0.9,1.3-1.6,2.4-1.5
			c0.9,0.5,1.5,1.3,1.3,2.5c-1.5,3.1,3,1.8,4.1,3.8c0.2,3.8,2.8-0.2,4.5,0.5c1.5-0.2,1.9,1.6,2.6,2.5c1,3.4,3-0.6,4.5-0.4
			c2.2-0.2,2.1,2.3,3.4,3.4c1.7,0.7,2.6-1.8,4.3-1.3c1.7,0.2,1.9,2,2.8,3.2c1.3,0,2.2-0.2,2.8-1.1c1.5-0.2,3,0,4.1,0.9
			c0.2,1.1-0.7,2-0.9,2.7c-1.3,0.7-2.6-0.2-3.9-0.3c-0.7,0.9-1.3,2.7-2.8,2c-1.5-0.5-0.4-2.5-2.1-3.2c-2.6-1.8-2.8,2.9-5.4,1.7
			c-1.9-0.2-0.4-2.5-1.9-3.1c-2.6-2-2.8,2.4-5.4,1.5c-2.2,0-0.6-2.7-2.3-3.4c-2.6-1.8-2.4,2.4-4.8,1.5c-1.9,0-1.5-2.2-2.3-3.2
			c-2.4-2.5-2.8,1.8-5.2,1.1c-0.9-0.2-1.9-1.4-1.5-2.3c-1.3-4-4.1,0-6,0c-1.9-0.5-0.8-2.7-2.1-3.8c-2.1-2.5-3.3,1.3-5,1.5
			c-0.9,0-1.5-1.1-1.3-2.2c0.2-1.3,1.3-0.9,2.4-0.7c0.2-0.4,0.9-0.2,0.7-0.9c-1.5-2.7-2.8,1.1-5-0.3c-2.4-0.2-1.1-3.1-2.8-3.8
			c-1.1-0.9-2.4,0.2-2.8,1.1c-3,1.3-2.4-2.7-3.9-3.8c-3,0.2-1.5-3.4-3.6-4.5c-1.7-1.4-2.4,2.2-4.1,1.3c-1.9-0.5-0.2-2.7-1.5-3.6
			c-2.8,0.2-2.8-2.9-4.1-4.7c-2.8,0.2-2.1-3.1-4.3-4.1c-0.6-0.9-1.3,0.2-1.7,0.7c-0.7,0.7-1.7,0.4-2.4-0.3c-0.6-1.3,0-3.1,1.3-3.3
			c-1.1-2-3.5,0.9-4.5-1.6c0.5-2.7-1-3.4-3-4.3c-0.2-3.4-3.9-3.8-4.9-6.8c-1.1-2.2-2.2,0.9-3.7,0.2c-0.9-0.5-1.9-1.6-1.5-3.1
			c-0.2-0.7-0.9-0.2-1.5-0.5c-0.6,0.2-0.9,0.9-0.9,1.6c2.3,6.3,6.1,12.1,9.8,18c3.2,4.7,6.8,8.3,10.5,12.6c1.5,2,3.7,2.7,4.7,4.7
			c16.1,15.4,35.7,24.2,56.6,28.9c3.2,0,6,2.3,9.1,1c3.2,2.3,8,0.5,11.4,1.9c1.7-0.7,3.5-0.4,5.4,0c2.8-1.1,6.5,0.3,9.1-1
			c5.8-0.6,11.7-1.2,17.1-2.7c4.6-0.9,8.9-2.2,13.2-3.5c2.4-1.5,5.4-1.7,7.6-3.5c10.4-4.4,20.4-10.8,29.1-18.5
			c2.6-2.4,5.9-5.1,7.9-8.2c8.1-7.7,14-17.5,19.3-27.1c1.3-5.1,4.4-9.6,5.3-14.9C403.1,202.6,404.2,199.9,401.3,201.4L401.3,201.4z
			 M261.9,230.4c0.7-0.3,1.5,0,1.8,0.7c0,0,0,0.1,0,0.1c0.2,0.5,0.1,1-0.2,1.4c-0.3,0.4-0.7,0.6-1.1,0.5c-0.2,0-0.5-0.1-0.6-0.2
			c0,0-0.9-0.8-0.9-0.9C260.8,231.4,261.2,230.7,261.9,230.4L261.9,230.4z M257.8,233.7c0.5,0,0.8,0.3,1,0.8c0.1,0.2,0.1,0.7,0,0.8
			c-0.3,0.4-0.8,0.4-1.2,0.4c-0.2,0-0.4-0.1-0.5-0.2c-0.4-0.4-0.5-0.9-0.3-1.3C256.9,234.1,257.5,233.7,257.8,233.7L257.8,233.7z
			 M253.8,228.3c0.5-0.5,1.3-0.6,1.9-0.4c0.6,0.2,0.9,0.7,1,1.4c0,0,0-0.1,0-0.1c0,0,0,0.1,0,0.1c0,0,0,0,0,0
			c0.1,0.2,0.1,0.4,0.1,0.6c0,0.7-0.4,1.2-0.9,1.4c-0.1,0.1-0.6,0.1-0.7,0.1l-1.6-0.4c0,0-0.4-1-0.3-0.8
			C253.1,229.4,253.2,228.8,253.8,228.3L253.8,228.3z M252,237.1c0.3-0.4,0.8-0.7,1.3-0.5c0.2,0.1,0.5,0.6,0.6,0.7
			c0.1,0.2,0.2,0.8,0.1,0.9c-0.3,0.4-0.8,0.4-1.2,0.4c-0.2,0-0.3-0.1-0.5-0.2C251.9,238,251.8,237.5,252,237.1L252,237.1z
			 M250.9,231.1c0.5,0.2,0.8,0.7,0.8,1.2c0-0.1,0-0.2-0.1-0.3c0.4,0.9-0.1,1.4-0.6,1.8c-0.1,0.1-0.3,0.2-0.5,0.2
			c-0.7,0-1.3-0.2-1.5-0.6c-0.2-0.3-0.3-0.7-0.1-0.7c-0.2-0.5-0.1-1.1,0.3-1.4C249.6,231,250.3,230.9,250.9,231.1L250.9,231.1z
			 M246.9,225.3c0.2-0.1,0.5,0,0.7,0c0.7,0.2,1.6,0.6,1.9,1.5v0c0-0.1,0,0.1,0,0c0,0,0,0,0,0c0,0-0.1,1.7-0.1,1.7s-1.4,1.3-1.6,1.3
			c-1.4,0-2.4-0.9-2.4-2C245.5,226.7,246,225.8,246.9,225.3L246.9,225.3z M232.9,229.1c0-0.1,0.1-0.7,0.1-0.8c0.2-0.7,0.4-1.7,1.5-2
			l2.2,0.4l1,1.5c0.1,0.1,0,0,0,0.1c0,0.7-0.2,1.7-0.9,2.2c-0.5,0.4-1,0.5-1.5,0.4C234.1,230.9,233.2,229.9,232.9,229.1L232.9,229.1
			z M238,235.6c-1,0-1.9-1-1.9-1.9c-0.3-1.5,0.9-1.9,1.7-2.1c0.6,0,2.1,0,2.1,1.8v0c0-0.1,0,0.1,0,0v0l-0.7,1.7L238,235.6L238,235.6
			z M241.2,240.3l-1.3-0.1c0,0-1-1.2-1-1.3c-0.3-1.1,0.2-2,1.3-2.3c1-0.3,1.7,0.4,2.2,0.9c0.1,0.1,0.2,0.3,0.2,0.5
			C242.5,238.6,242.5,240,241.2,240.3L241.2,240.3z M241.4,231.9c-0.2-0.2-0.4-0.5-0.4-0.9c0-0.1,0-0.3,0.1-0.5
			c-0.1-0.3-0.1-0.6-0.1-0.6s1-0.9,1.2-1c0.6-0.2,1.3-0.1,1.7,0.2c0.4,0.3,0.6,0.7,0.6,1.3c0-0.1,0-0.1,0-0.2c0,0.1,0,0.1,0,0.2v0
			c0,0.1,0.1,0.2,0.1,0.3c0,0.7-0.4,1.2-1.2,1.6C242.8,232.5,241.9,232.4,241.4,231.9L241.4,231.9z M245.8,237
			c-0.7,0-1.3-0.4-1.7-1.3c0-0.7,0.6-1.3,1.3-1.4c0.7-0.1,1.3,0.2,1.5,0.8c0,0.1,0,0.1,0,0.2C246.9,235.7,246.9,236.5,245.8,237
			L245.8,237z M246.9,241.1c-0.3-0.7,0-1.4,0.6-1.8c0.6-0.3,1.6-0.2,2.1,0.5c0.1,0.1,0.1,0.2,0.1,0.4c0,1.2-0.5,1.8-1,1.7
			C247.8,242.3,247.3,241.6,246.9,241.1L246.9,241.1z M250.9,247.1l-1.1-0.4c-0.3-0.1-0.6-0.5-0.6-0.7c0-1.3,0.5-2.1,1.3-2.4
			c0.5-0.2,1.1-0.1,1.5,0.2c0.4,0.3,0.6,0.8,0.6,1.3c0-0.1,0-0.1,0-0.2c0,0.1,0,0.1,0,0.2v0v0v0c0,0.1,0.1,0.2,0.1,0.3
			c0,0.5-0.2,0.9-0.5,1.2C251.8,247.1,251.3,247.2,250.9,247.1L250.9,247.1z M256.1,250.1l-0.8,1.9c0,0-1.2,0.5-1,0.5
			c-0.7,0.1-1.4,0-1.9-0.4c-0.5-0.4-0.8-1.1-0.8-1.8c0-1,0.6-1.9,1.6-2.2c1.4-0.3,2.6,0.5,2.9,1.8
			C256.1,250.1,256.1,250,256.1,250.1L256.1,250.1z M256.6,243.3c-0.1,0.1-0.3,0.3-0.7,0.3c-0.1,0-0.6,0-0.7,0
			c-0.5-0.4-0.6-1.2-0.3-1.8c0.1-0.3,0.7-0.2,1-0.2c0.3,0,0.8,0.4,0.9,0.7l0,0.1C256.8,242.5,256.7,243.1,256.6,243.3L256.6,243.3z
			 M257,247.7c-0.1-0.6,0.1-1.2,0.6-1.6c0.5-0.3,1.2-0.4,1.7-0.1c0.4,0.2,0.7,0.7,0.7,1.2v0c0,1.3-0.7,1.8-1.3,1.7
			C257.9,249,257.3,248.6,257,247.7L257,247.7z M261.4,254.4l-1.7-0.6c0,0-0.5-1.2-0.5-1.2c0-1.3,0.7-2.2,1.5-2.2l1.3,0.1l1,1.2
			c0,0,0,0,0,0c0,0.2,0.1,0.3,0.1,0.5C263.2,253.3,262.3,253.9,261.4,254.4L261.4,254.4z M265.5,258.7c-0.4,0.4-0.9,0.6-1.8,0.4
			c-0.5-0.1-1.9-0.4-1.7-1.8c0-0.8,0.5-1.9,1.5-2.2c0.9-0.2,1.9,0.4,2.4,1.4c0,0,0,0.1,0,0.1C266.1,257.2,266,258.1,265.5,258.7
			L265.5,258.7z M265.4,237.7c-0.3,0.1-1-0.1-1.1-0.4c-0.4-0.6-0.2-1-0.1-1.2c0.2-0.3,0.9-0.2,1.2-0.1c0.3,0.1,0.9,0.6,0.8,0.9
			C266.1,237.4,265.8,237.6,265.4,237.7L265.4,237.7z M267.5,230.5c-0.8,0.3-1.7-0.1-2.1-1.3c0-0.7,0-2,1.3-2.4c0.5,0,1.6,0,2.1,0.7
			c0.1,0.2,0.3,0.5,0.3,0.9c0,0.1,0,0.2,0,0.2c0,0.1,0,0.2,0,0.3c0,0.4-0.1,0.7-0.3,1C268.4,230.3,267.8,230.5,267.5,230.5
			L267.5,230.5z M268.8,234.3c-0.2-0.8,0.2-1.5,0.8-1.7c0.5-0.2,1.1,0,1.5,0.8c0,0,0-0.1-0.1-0.1c0,0,0.1,0.1,0.1,0.2
			c0,0-0.1,0-0.1,0c0.1,0.1,0.2,0.3,0.2,0.5c0,0.3-0.1,0.6-0.5,1c-0.1,0.1-0.5,0.2-0.7,0.2C269.8,235.1,269.2,235.2,268.8,234.3
			L268.8,234.3z M273.4,258.9C273.4,258.9,273.4,258.9,273.4,258.9c0,0-0.2,1.3-0.2,1.3s-1.1,0.9-1.3,1l-1.9-0.5
			c0,0-0.4-1.2-0.4-1.1c-0.1-0.5,0-1.1,0.4-1.6c0.3-0.4,0.8-0.7,1.3-0.6C272.3,257.3,273.1,257.9,273.4,258.9L273.4,258.9
			C273.4,258.7,273.4,259,273.4,258.9L273.4,258.9z M274.8,232.6c-0.9,0-1.7-0.5-1.7-1.4c-0.2-0.6,0-1.3,0.5-1.7
			c0.5-0.4,1.3-0.5,1.8-0.2c0.4,0.3,0.7,0.7,0.7,1.3c0,0.1,0,0.1,0,0.2C276.1,231.6,275.7,232.2,274.8,232.6L274.8,232.6z
			 M277.9,236.9c-0.2,0.1-0.4,0.4-0.6,0.2c0,0-1.1-0.6-1.2-0.8c-0.3-0.6-0.1-1.1,0.2-1.3c0.4-0.4,1.2-0.4,1.7-0.1
			c0.1,0.1,0.3,0.5,0.4,0.6C278.5,235.8,278.7,236.4,277.9,236.9L277.9,236.9z M283.5,232.7l-0.9,1.6c-0.1,0.2-0.2,0.2-0.5,0.2
			c-0.9,0-1.5-0.6-1.5-1.1c-0.4-1.2,0.6-1.7,1-1.9c0.2-0.1,0.7,0,0.9,0.2l0.9,0.8C283.6,232.6,283.6,232.4,283.5,232.7L283.5,232.7z
			 M285.7,238.5c-0.3,0.4-0.8,0.4-1.2,0.4c-0.2,0-0.4-0.1-0.5-0.2c-0.4-0.4-0.5-1-0.2-1.4c0.3-0.4,0.8-0.7,1.3-0.5
			c0.2,0,0.5,0.6,0.6,0.7C285.7,237.8,285.8,238.3,285.7,238.5L285.7,238.5z M287.1,231.6c-0.8,0.3-1.6-0.1-2.1-1.3
			c0-1.2,0.6-1.7,1.3-2l1.8,0.5l0.4,1.1C288.4,230.6,287.8,231.2,287.1,231.6L287.1,231.6z M290.4,235.7c-0.1,0.2-0.7,0.3-0.9,0.3
			c-0.6,0-0.9-0.4-1-0.6c-0.1-0.1-0.3-0.4-0.3-0.5c0-0.4,0.2-0.8,0.6-1c0.4-0.2,0.9-0.2,1.3,0c0.1,0,0.3,0.3,0.3,0.4
			C290.8,234.7,290.7,235.4,290.4,235.7L290.4,235.7z M210.7,238.7c-0.3,0.4-0.8,0.6-1.2,0.6c0,0-1.3-0.7-1.5-0.9
			c-0.3-1,0.3-2,1.3-2.4c0.9,0,1.7,0.5,1.7,1.3v0c0,0.1,0.1,0.2,0.1,0.3C211,238.1,210.9,238.4,210.7,238.7L210.7,238.7z
			 M233.7,257.1c0,0.1-0.1,0.1-0.1,0.2C233.6,257.2,233.6,257.2,233.7,257.1c-0.5,0.8-1,0.8-1.8,0.7c-0.8-0.4-0.8-1.4-0.5-2.2
			c0.2-0.5,0.6-0.7,1.1-0.7c0.5,0,1.1,0.4,1.3,1c0.1,0.2,0.1,0.3,0.1,0.5C233.9,256.7,233.8,256.9,233.7,257.1
			C233.6,257.1,233.6,257.1,233.7,257.1L233.7,257.1z M243.2,264.3c-0.1,0.2-0.4,0.2-0.7,0.2c-0.3,0-0.6-0.3-0.7-0.5
			c-0.3-0.5-0.1-1.3,0.5-1.6c0.2-0.1,0.7,0.1,0.9,0.3c0.2,0.2,0.4,0.6,0.3,0.9L243.2,264.3L243.2,264.3z M251.4,265.3
			C251.4,265.3,251.4,265.3,251.4,265.3c0,0.5,0,1.1-1.1,1.5c-0.4,0-1.5,0-1.4-0.9c-0.2-0.6-0.1-1.2,0.4-1.6
			c0.5-0.4,1.2-0.5,1.6-0.2c0.3,0.2,0.5,0.6,0.5,1C251.4,265.1,251.4,265.2,251.4,265.3C251.4,265.3,251.4,265.3,251.4,265.3
			L251.4,265.3z M258.5,268.3c0,0-0.9,0.3-1.1,0.4c-0.3,0-0.9,0.1-1.3-0.7c-0.3-1,0.3-2,1.3-2.4c0.5,0,1.5,0.5,1.5,1.3L258.5,268.3
			L258.5,268.3z M265.8,270l0-0.2c-0.1,0.2-0.5,0.4-0.7,0.5c-0.2,0-0.7,0-0.9-0.2c-0.3-0.5-0.2-1-0.1-1.3c0.1-0.2,0.2-0.5,0.4-0.6
			c0.3-0.1,0.9-0.4,1.4,0.5c0-0.1,0.1,0.1,0,0.1C266,268.9,266.3,269.4,265.8,270L265.8,270z M295.4,232.7c-0.3,0.4-0.8,0.7-1.2,0.7
			c-0.9,0-1.3-0.7-1.5-1.2c-0.1-0.5,0.1-0.9,0.4-1.2c0.5-0.4,1.2-0.5,1.7-0.2c0.4,0.2,0.7,0.6,0.7,1.1
			C295.6,232,295.5,232.6,295.4,232.7L295.4,232.7z M297.4,237.9c-0.2,0.1-0.6,0.2-0.8,0.2c-0.4-0.1-0.7-0.4-0.8-0.8
			c-0.1-0.3,0.2-1.1,0.5-1.2c0.4-0.1,0.8-0.1,1.1,0.1c0.4,0.3,0.4,0.8,0.4,1.2C297.9,237.5,297.6,237.8,297.4,237.9L297.4,237.9z
			 M300.1,230.5c-0.1,0.2-0.7,0.4-0.9,0.4c-0.5,0-1.4,0.1-1.9-0.8c-0.1-0.1-0.1-0.4-0.1-0.5l0.1-0.5c0-0.5,0-1.4,1-1.7
			c0.6-0.2,1.2-0.1,1.7,0.3c0.4,0.3,0.6,0.7,0.6,1.1c0,0,0,0,0-0.1c0,0.1,0,0.1,0,0.2c0,0,0-0.1,0-0.1c0.2,0.8-0.1,1.2-0.3,1.5
			L300.1,230.5L300.1,230.5z M302.9,234l-0.6,1.1c-0.1,0.2-0.3,0.2-0.5,0.2c-1.1,0-1.3-0.5-1.3-0.9c0-0.3,0.1-1.2,0.4-1.2l1-0.2
			l0.9,0.6C303.1,233.8,303.1,233.7,302.9,234L302.9,234z M307.5,232c-0.3,0.4-0.7,0.7-1.2,0.7c-0.2,0-0.5-0.2-0.6-0.3
			c0,0-0.9-0.8-0.9-0.8c-0.2-0.5-0.1-1.1,0.3-1.4c0.4-0.4,1.1-0.5,1.7-0.3c0.5,0.2,0.8,0.7,0.8,1.2c0-0.1,0-0.2-0.1-0.3
			c0,0.1,0,0.2,0.1,0.3c0,0.1,0,0.2,0,0.2C307.7,231.6,307.7,231.8,307.5,232L307.5,232z M312.4,229.4c-0.3,0.4-0.8,0.6-1,0.6
			c-0.5,0.2-1,0.1-1.4-0.2c-0.5-0.3-0.8-0.9-0.7-1.3c-0.2-0.6,0-1.2,0.4-1.6c0.5-0.5,1.4-0.6,2.1-0.3c0.6,0.3,0.9,0.8,0.9,1.5
			c0,0,0,0,0,0c0,0.1,0,0.2,0,0.3C312.7,228.8,312.6,229.1,312.4,229.4L312.4,229.4z M312.9,233c0,0.3,0.5,1.2,0.7,1.2
			C312.9,234,312.9,233,312.9,233L312.9,233z M313.9,233.4c-0.2,0.5-0.4-0.2-0.4-0.4C313.9,232.8,314.1,233,313.9,233.4L313.9,233.4
			z M319.6,231.1c-0.1,0.1-0.5,0.5-0.6,0.5c-0.4,0.2-0.8,0.2-1.1,0c-0.4-0.3-0.7-0.7-0.6-1.1c-0.1-0.5,0-1,0.4-1.3
			c0.4-0.3,1-0.4,1.5-0.2c0.4,0.2,0.6,0.6,0.6,1.1c0-0.1,0-0.2-0.1-0.3c0,0.1,0,0.2,0.1,0.3c0,0,0,0,0,0c0,0,0,0,0,0s0,0,0,0
			c0,0,0,0,0,0c0,0.1,0.1,0.2,0.1,0.3C319.8,230.6,319.8,230.9,319.6,231.1L319.6,231.1z M324.2,228.8c-0.2,0.2-0.6,0.3-0.8,0.2
			c-0.5,0.2-1,0.1-1.4-0.2c-0.3-0.3-0.6-0.7-0.5-0.9c-0.3-1,0.1-1.8,1-2.1c0.9-0.4,1.6,0.3,2,0.8c0.1,0.1,0.2,0.3,0.2,0.5
			C324.8,227.6,324.8,228.4,324.2,228.8L324.2,228.8z M325,232.3c0-0.1-0.1-0.1-0.1-0.2V232v0C325,232,325,232.2,325,232.3
			c0.1,0.3,0.2,0.9,0.4,1C325.1,233,325.1,232.6,325,232.3L325,232.3z M326.3,232.3L326.3,232.3
			C326.3,232.3,326.3,232.4,326.3,232.3c0,0.2,0,0.3-0.2,0.4c-0.1,0-0.2,0-0.2,0c0,0,0,0,0,0c0,0,0,0,0,0c0,0-0.1-0.1-0.1-0.1
			c0,0,0,0-0.1-0.1c0,0,0,0,0-0.1c0,0.1-0.1,0.1-0.2,0.3c0,0,0-0.3,0-0.5c0,0,0.1,0.1,0.1,0.2c0-0.1,0-0.1,0.1-0.2V232
			c0.1,0,0.1,0,0.1,0c0,0,0-0.1,0.1-0.1C326.2,231.9,326.2,232,326.3,232.3C326.3,232.3,326.3,232.3,326.3,232.3c0,0,0-0.3,0-0.3
			C326.3,232.1,326.3,232.2,326.3,232.3L326.3,232.3L326.3,232.3z M326,225.3c0-0.1-0.1-0.6-0.1-0.7c0-0.8-0.1-2.1,1.3-2.4
			c0.9,0,1.6,0.3,2,0.8c0.2,0.2,0.4,0.6,0.4,1.1c0,0.1,0,0.2,0,0.3c0,0.1,0,0.3,0,0.4c0,0.8-0.5,1.4-1.4,1.8
			C327.2,226.9,326.3,226.1,326,225.3L326,225.3z M330.8,230.9c-0.8,0-1.2-0.6-1.4-1c-0.3-0.7,0-1.3,0.5-1.5
			c0.6-0.3,1.5-0.1,1.8,0.5c0,0.1,0.1,0.5,0.1,0.5C331.7,229.7,331.8,230.5,330.8,230.9L330.8,230.9z M336.1,227.8
			c-0.1,0.2-0.3,0.2-0.5,0.2c-0.5,0-1.3,0-1.6-0.8c-0.2-0.5-0.1-1,0.2-1.4c0.5-0.5,1.2-0.7,1.8-0.5c0.5,0.2,0.7,0.6,0.7,1.1
			C336.7,226.5,336.1,227.8,336.1,227.8L336.1,227.8z M340.7,225.1c-0.5,0.2-1.2,0.3-2.2-0.8c-0.3-0.6-0.2-1.2,0.2-1.6
			c0.4-0.5,1.3-0.6,1.9-0.4c0.5,0.2,0.8,0.7,0.9,1.2c0-0.1,0-0.2,0-0.2c0,0.1,0.1,0.2,0.1,0.3c0,0,0,0,0,0
			C341.6,224.3,341.1,224.7,340.7,225.1L340.7,225.1z M344.7,222.8c-0.8,0-1.5-0.5-1.9-1.4c-0.3-1.4,0.2-2.5,1.3-2.8
			c0.8-0.3,1.4,0.2,1.7,0.5c0.1,0.1,0.6,0.5,0.6,0.7c0.1,0.6,0.2,1.7-0.4,2.4C345.8,222.4,345.4,222.8,344.7,222.8L344.7,222.8z
			 M348.5,226.4c-0.1,0.2,0,0.1-0.1,0.2l-0.8,0.3c-0.2,0.1-0.6,0.1-0.8-0.1c-0.8-0.8-0.4-1.4-0.3-1.6c0.3-0.4,1-0.6,1.6-0.3
			C348.5,225.2,348.8,225.7,348.5,226.4L348.5,226.4z M353.3,223.2c-0.1,0.2-0.2,0.4-0.4,0.5l-1.1,0.4c-0.2,0.1-0.3,0-0.5-0.2
			c-0.4-0.4-0.5-0.8-0.5-1.3c0.1-0.4,0.3-0.7,1-0.9c0.5,0,1.1,0,1.4,0.8C353.4,222.7,353.4,223.1,353.3,223.2L353.3,223.2z
			 M357.4,221.2c-0.4,0.2-0.9,0.2-1.2,0c-0.4-0.2-0.6-0.7-0.6-1c-0.2-0.6,0.1-1.1,0.6-1.3c0.6-0.2,1.4,0,1.7,0.6
			c0,0.1,0.1,0.4,0.1,0.5C358,220.3,358.1,220.9,357.4,221.2L357.4,221.2z M362.1,218.4c-0.5,0.2-1,0.2-1.4-0.1
			c-0.4-0.2-0.6-0.6-0.5-0.8c-0.3-0.9,0.2-1.4,0.4-1.5c0.5-0.3,1.2-0.3,1.7,0c0.4,0.3,0.6,0.8,0.5,1.3c0-0.1,0-0.1,0-0.2
			C362.7,218.2,362.2,218.4,362.1,218.4L362.1,218.4z M367.5,215.3c-0.3,0.3-0.7,0.6-0.9,0.5c-0.8,0.3-1.7-0.1-2.1-1
			c0-0.1-0.1-0.6-0.1-0.6c0-0.6-0.1-1.4,1.1-2.1c0.8,0,1.5,0.3,1.9,0.8c0.2,0.3,0.3,0.6,0.3,0.9c0,0.1,0,0.2,0,0.3
			c0,0.1,0,0.2,0,0.3C367.8,214.7,367.7,215,367.5,215.3L367.5,215.3z M372.9,217.1c-0.2-0.4-0.2-1,0.2-1.4
			c-0.1,0.1-0.1,0.2-0.1,0.3c0,0.3,0.1,0.6,0.2,0.8c0,0.1,0.2,0.1,0.2,0.1c-0.1-0.3-0.2-0.6-0.2-0.6c0,0.1,0.1,0.1,0.1,0.2
			c0,0,0,0,0,0c0-0.1,0-0.3,0.1-0.4c0.3-0.1,0.3,0,0.4,0.1c0,0,0.1,0.1,0.1,0.2c0.1,0.1,0,0.1,0,0.2c0,0-0.1,0-0.1,0.1
			c0,0.1,0,0.1,0,0.2c-0.2,0.1-0.3,0-0.4,0c0,0,0,0,0,0c0,0,0-0.1-0.1-0.1c0,0-0.1,0-0.1-0.1c0,0,0,0,0,0c0,0,0,0,0,0.1
			c0,0.1,0,0.2,0.1,0.4c0.2,0.2,0.5,0.5,0.7,0.4C373.5,217.6,373.1,217.4,372.9,217.1L372.9,217.1z M379.5,213.9
			c-0.2,0.3-0.4,0.9-1,1c-0.4,0.1-0.7-0.1-1.1-0.5c-0.1-0.1-0.3-0.8-0.3-1c0.1-0.4,0.3-0.7,1-1c0.5,0,1,0,1.4,0.8
			C379.6,213.4,379.6,213.7,379.5,213.9L379.5,213.9z M383.6,211.9c-0.1,0-0.5,0.1-0.5,0.1c-0.3,0-0.9,0.1-1.2-0.6
			c-0.3-0.5-0.2-1.1,0.2-1.6c0.3-0.4,0.8-0.6,1.3-0.5c0.2,0.1,0.7,0.3,0.8,1l0,0.2C384.2,210.7,384.3,211.5,383.6,211.9L383.6,211.9
			z M388.2,209.2c-0.2,0.1-0.7,0-0.8-0.1c-0.3-0.1-1.3-0.5-0.9-1.1c-0.4-0.8,0-1.4,0.1-1.5c0.4-0.4,1.1-0.5,1.7-0.3
			c0.6,0.2,0.9,0.7,0.9,1.3C389.2,208.3,388.8,208.9,388.2,209.2L388.2,209.2z"/>
		<path class="st2" d="M264.6,269.2C264.6,269.2,264.6,269.2,264.6,269.2L264.6,269.2c0-0.1,0-0.2,0-0.2c0,0-0.1,0-0.1,0
			C264.4,269.2,264.5,269,264.6,269.2L264.6,269.2z"/>
		<path class="st2" d="M229.5,224.8c0.6-0.2,1.3-0.9,1.3-1.8c-0.2-0.9-1.3-1.8-2.4-1.8c-0.9,0.2-1.3,1.3-1.3,2.2
			C227.5,224.4,228.4,225,229.5,224.8L229.5,224.8z"/>
		<path class="st2" d="M226.3,219c0.2,0,0.7-0.4,0.4-1.1c-0.2-0.9-1.3-0.2-1.5,0.4C225.4,218.8,225.9,219,226.3,219L226.3,219z"/>
		<path class="st2" d="M245.7,220.3c0.2,0,0.7-0.4,0.5-1.1c-0.2-0.2-0.2-0.5-0.4-0.5C244.9,219.2,244.9,220.1,245.7,220.3
			L245.7,220.3z"/>
		<path class="st2" d="M234.1,221.5c0.2-0.4,0.7-0.7,0.7-1.3c0-0.4-0.6-1.1-1.3-1.4c-0.4,0.4-1.1,1.1-1.1,1.8
			C232.8,221.1,233.2,221.7,234.1,221.5L234.1,221.5z"/>
		<path class="st2" d="M221.7,222.1c0.2-0.2,0.9-0.7,0.9-1.1c-0.4-1.3-2.2-1.4-2.2,0.2C220.7,221.6,221.1,222.1,221.7,222.1
			L221.7,222.1z"/>
		<path class="st2" d="M253.3,223c0.4-0.4,1.5-0.9,1.3-1.8c-0.2-0.9-1.9-1.8-2.4-0.5C251.4,221.5,252.4,222.8,253.3,223L253.3,223z"
			/>
		<path class="st2" d="M241.1,244.8c0,0,0.1,0.1,0.1,0.1c0,0,0,0,0-0.1C241.2,244.8,241.1,244.8,241.1,244.8L241.1,244.8z"/>
		<path class="st2" d="M217.2,224.7c0.2-0.2,0.4-0.7,0.7-1.1c-0.4-0.7-1.9-1.1-1.7,0.2C216.3,224.3,216.5,224.7,217.2,224.7
			L217.2,224.7z"/>
		<path class="st2" d="M224.5,227.5c0.9-0.4,1.7-1.1,1.5-2.2c-0.4-0.9-1.1-1.1-1.9-1.1c-0.6,0.2-1.3,0.9-1.3,1.8
			C223.2,226.6,223.6,227.5,224.5,227.5L224.5,227.5z"/>
		<path class="st2" d="M220.6,229.2c0.2-0.2,0.2-0.7,0.2-0.9c-0.2-0.4-0.6-1.1-1.3-0.9C219.1,227.9,219.7,229,220.6,229.2
			L220.6,229.2z"/>
		<path class="st2" d="M355.6,212.6c0.4,0,0.7-0.7,0.7-1.1c-0.4-0.5-0.6-0.9-1.1-0.9c-0.4,0.4-1.3,0.7-1.1,1.3
			C354.3,212.4,355,213.3,355.6,212.6L355.6,212.6z"/>
		<path class="st2" d="M360,209.7c0.2-0.2,0.7-0.4,0.7-0.9c-0.2-0.4-0.7-0.7-0.9-0.7C358.5,208.6,359.3,209.5,360,209.7L360,209.7z"
			/>
		<path class="st2" d="M338.5,216.7c0.4-0.2,1.1-0.9,0.9-1.6c-0.6-1.1-2.2-0.7-2.4,0.4C337.2,216,337.9,216.7,338.5,216.7
			L338.5,216.7z"/>
		<path class="st2" d="M326.8,216.4c-0.2,0-0.4-0.5-0.6-0.5c-0.4,0.2-0.9,0.7-0.2,1.1C326.4,217,326.4,216.6,326.8,216.4
			L326.8,216.4z"/>
		<path class="st2" d="M376.9,206.1c0.4-0.4,0.9-0.7,0.9-1.1c-0.4-1.3-1.9-0.9-2.2,0.2C375.8,205.6,376.2,206.5,376.9,206.1
			L376.9,206.1z"/>
		<path class="st2" d="M265.4,221.6c0.2-0.2,1.1-0.4,0.9-1.1c-0.2-0.4-0.6-0.7-1.1-0.7c-0.4,0.2-0.9,0.7-0.7,1.1
			C264.8,221.4,265,221.6,265.4,221.6L265.4,221.6z"/>
		<path class="st2" d="M381.9,202.1c-0.2-0.9-1.3-0.5-1.1,0.4c0.2,0.2,0.4,0.4,0.6,0.4C381.7,202.8,382.1,202.6,381.9,202.1
			L381.9,202.1z"/>
		<path class="st2" d="M401.6,196.3c0.2,0.4,0.8,0.9,1.3,0.9c0.6,0,0.9-0.9,0.9-1.3C403.3,194.1,401.4,194.9,401.6,196.3
			L401.6,196.3z"/>
		<path class="st2" d="M298,221c-0.4-0.2-0.6-0.9-1.1-0.9c-0.4,0.2-1.1,1.1-0.4,1.6C297.2,222.6,297.8,221.5,298,221L298,221z"/>
		<path class="st2" d="M285.1,222.9c0.6,0,1.1-0.7,1.1-1.3c-0.6-1.1-2.2-0.9-2.4,0.2C284,222.2,284.4,222.9,285.1,222.9L285.1,222.9
			z"/>
		<path class="st2" d="M304.9,224.6c0.7-0.4,1.1-1.1,1.1-2.2c-0.4-0.5-1.1-1.4-1.9-1.1c-0.4,0.4-1.3,1.1-1.1,2
			C303.2,224,304.1,224.9,304.9,224.6L304.9,224.6z"/>
		<path class="st2" d="M272.7,224.1c0.9-0.2,1.5-0.9,1.3-1.8c0-0.7-0.9-0.9-1.5-1.1c-0.6,0.2-1.3,0.9-1.1,1.8
			C271.7,223.4,272.3,224.1,272.7,224.1L272.7,224.1z"/>
		<path class="st2" d="M321.6,220.3c0.4-0.2,1.3-0.7,1.1-1.3c-0.4-0.5-0.9-1.3-1.5-0.9c-0.4,0.2-1.1,0.4-0.9,1.1
			C320.5,219.9,321,220.3,321.6,220.3L321.6,220.3z"/>
		<path class="st2" d="M309.3,220.9c0.4-0.2,0.9-0.4,0.9-1.1c-0.4-1.1-1.7-0.5-1.7,0.4C308.6,220.4,308.9,221.1,309.3,220.9
			L309.3,220.9z"/>
		<polygon class="st2" points="319.8,230.1 319.8,230.1 319.8,230.1 		"/>
		<path class="st2" d="M373.4,207.9c-0.4-0.7-0.9-1.3-1.7-1.4c-0.6,0.4-1.3,1.1-1.1,2.2c0.4,0.9,1.5,1.1,2.4,1.1
			C372.7,209.2,373.8,208.8,373.4,207.9L373.4,207.9z"/>
		<path class="st2" d="M264.7,269.2C264.6,269.2,264.6,269.2,264.7,269.2C264.6,269.2,264.6,269.2,264.7,269.2
			C264.6,269.2,264.6,269.2,264.7,269.2L264.7,269.2z"/>
		<path class="st2" d="M401.3,201.4c-1.1-0.2-2.8-1.4-1.5-2.7c-0.2-1.6-2.1-2.3-2.8-0.7c-1.3,2.9,3,1.4,2.1,4
			c-0.2,1.1-1.5,1.8-2.6,1.8c-2.4-0.3-0.4-2.5-1.7-3.4c-0.9-0.9-2.2-0.7-2.8,0.2c-1.7,2.4,2.1,1.8,1.7,4c0,0.7-0.7,1.6-1.5,1.3
			c-0.9-0.2-1.7-1.4-1.3-2.5c-0.6-0.9-1.5-1.1-2.4-1.1c-1.1,0.4-2,1.5-2.2,2.4c-0.7,0.7-1.5,0.2-2.2,0c-2.8,0.2-2.4,4.9-5.7,2.9
			c-0.9,0.7-1.1,1.6-1.7,2.2c-1.1,1.1-2.6,0.2-3.9,0c-0.2,1.1-0.2,2.2-1.3,2.9c-2.6,0.9-2.4-1.8-3.2-3.2c-2.1-1.8-2.6,1.8-3.9,2.4
			c-4.1-2.7-3.1,4.4-6.9,2.4c-2.2-0.2-1.6,3.3-3.9,2.9c-0.9-0.4-2.6-1.1-1.7-2.5c-0.2-0.7-0.8-1.6-1.7-1.6c-3.7,1.7,1.7,2.7,1,5.2
			c-0.4,0.9-1.5,1.3-2.4,1.3c-1.3-0.5-1.7-1.8-1.3-2.9c-0.6-0.7-1.3-1.1-2.4-1.1c-0.4,0.4-1.3,0.9-1.3,1.8c-0.5,1.6-2,0.9-3,0.6
			c-0.6,0-1.5,0.7-1.7,1.3c-0.2,1.1-1.5,1.8-2.6,1.5c-3.2,0.2,0-2.9-2.1-3.8c-0.6-0.9-1.7-0.2-2.2,0.4c-1.5,3.1,3.7,1.4,2.1,4.5
			c-0.4,0.9-1.3,1.5-2.4,1.3c-1.1-0.2-1.7-1.6-1.3-2.7c-0.4-0.7-1.1-1.6-2.1-1.4c-1.5,0.4-1.5,2.2-2.4,3.1c-3.2-2.9-3.3,2.7-6.1,2.2
			c-1.3,0-2.8-1.1-1.7-2.5c-0.2-0.9-1.1-1.6-1.9-1.6c-3.9,2.4,2.1,2.7,1,4.9c-0.2,0.9-1.1,2-2.4,1.5c-1.3-0.2-1.3-1.8-1.1-2.9
			c-0.6-0.9-1.5-1.1-2.4-1.1c-1.1,0.2-1.5,1.6-2,2.4c-1.1,0.7-2.6-0.2-3.7,0c-0.7,1.1-1.3,2.9-2.8,2.7c-1.3-0.5-1.5-1.8-1.5-3.1
			c-0.6-0.7-1.3-1.4-2.4-1.1c-1.1,0.7-1.3,1.8-2,2.7c-1.5,0.4-2.8,0-3.9-0.9c0.4-1.1,0.9-2.4-0.4-3.1c-0.6-0.5-1.5-0.2-2,0.7
			c-1.7,2.7,3,1.6,2.1,4.3c-0.4,0.9-1.3,1.8-2.4,1.5c-1.1-0.7-1.5-1.8-1-2.9c-2.6-4.3-3.7,2-6.5,1.3c-0.6-0.2-1.9-0.9-1.3-2
			c-0.2-1.1-0.8-2.2-1.9-2.3c-1.3,0.2-1.5,1.5-1.8,2.7c0.6,0.7,1.7,0.7,2.4,1.4c0.4,0.9,0.2,1.8-0.7,2.5c-4.5,1.3,0-4.5-3.6-4.1
			c-3.2-1.8-2,3.6-5.2,2.6c-2.6-0.7,0-3.4-2.1-4.3c-3.2-1.6-2,3.8-5.2,2.4c-3.3,0.4-0.4-3.1-2.6-4c-0.9-0.5-1.7,0-2.2,0.7
			c-1.8,3.3,3.4,1.4,2.3,4.5c-0.2,0.9-1.3,1.3-2.2,1.3c-2.2-0.2-1.1-2.9-1.7-3.8c-3.2-2.9-2.6,2.9-5.9,2.2c-1.1-0.2-1.9-1.8-1.3-2.9
			c-2.3-4.3-3.7,1.7-6.1,1.1c-1.3-0.2-2.6-1.1-1.7-2.7c-0.2-0.9-1.1-1.6-2.1-1.6c-4.4,3.1,3,2.5,1.5,5.4c-0.4,1.1-1.5,1.8-2.6,1.5
			c-2.4-0.7-0.2-3.1-1.7-4.3c-3.4-2.3-2.4,3.3-5.2,2.4c-2.6-1.6-2.4,2-3.5,3.1c-0.9,0.2-1.5-0.2-2.4-0.3c-0.9,0.2-1.3,1.1-1.5,2
			c0.2,1.1,1.3,1.8,2.1,2c0.6,0,1.5-0.9,1.5-1.5c0-1.1,1.1-2,2.4-1.5c0.9,0.5,1.5,1.6,1.3,2.7c-0.2,1.8-2.4,1.3-3.5,1.1
			c-0.7,0.7-1.3,1.3-1.1,2.4c0.4,0.9,1.1,1.6,2.1,1.6c1.5,0,1.3-2,2.2-2.9c1.1-0.2,2.2,0,2.8,1.1c0.4,0.9,0.2,2.2-0.5,2.9
			c-0.9,0.2-1.5-0.2-2.4-0.3c-0.6,0.2-1.3,0.9-1.1,1.6c0.4,0.5,0.9,1.1,1.5,1.6c1.7,1.4,1.7-1.3,2.4-2.2c1.1,0,2.2,0,2.8,1.2
			c0.6,0.7,0,1.8,0,2.7c0.6,1.5,2.2,1,3.3,1.8c-0.1-0.1-0.1-0.2-0.1-0.3l0.1-0.5c0.2-1.1,0.4-2.7,2.1-2.7c1.7,0,2.3,1,2.3,2
			c0,0,0-0.1,0-0.1c0,0,0,0.1,0,0.1c0,0.2,0.1,0.4,0.1,0.6c0,0.5-0.1,0.9-0.4,1.3c-0.3,0.4-0.7,0.6-1.2,0.6l-2.1-0.4
			c-0.2,0-0.5-0.2-0.7-0.5c0.1,0.9-1.1,2,0,2.8c3.2,4.3,2.4-2.9,5.9-1.5c1.1,0.2,1.3,1.6,1.3,2.5c0,2-2.2,1.5-3.3,1.3
			c1.3,3.4,2.8-0.6,5.2,1.2c0.9,0.5,1.3,1.6,0.8,2.5c0.8,1.1,1.9,1.4,3,1.8c0.2-0.2,0.7-0.4,0.7-0.9c0.2-0.9,1.3-1.6,2.4-1.5
			c0.9,0.5,1.5,1.3,1.3,2.5c-1.5,3.1,3,1.8,4.1,3.8c0.2,3.8,2.8-0.2,4.5,0.5c1.5-0.2,1.9,1.6,2.6,2.5c1,3.4,3-0.6,4.5-0.4
			c2.2-0.2,2.1,2.3,3.4,3.4c1.7,0.7,2.6-1.8,4.3-1.3c1.7,0.2,1.9,2,2.8,3.2c1.3,0,2.2-0.2,2.8-1.1c1.5-0.2,3,0,4.1,0.9
			c0.2,1.1-0.7,2-0.9,2.7c-1.3,0.7-2.6-0.2-3.9-0.3c-0.7,0.9-1.3,2.7-2.8,2c-1.5-0.5-0.4-2.5-2.1-3.2c-2.6-1.8-2.8,2.9-5.4,1.7
			c-1.9-0.2-0.4-2.5-1.9-3.1c-2.6-2-2.8,2.4-5.4,1.5c-2.2,0-0.6-2.7-2.3-3.4c-2.6-1.8-2.4,2.4-4.8,1.5c-1.9,0-1.5-2.2-2.3-3.2
			c-2.4-2.5-2.8,1.8-5.2,1.1c-0.9-0.2-1.9-1.4-1.5-2.3c-1.3-4-4.1,0-6,0c-1.9-0.5-0.8-2.7-2.1-3.8c-2.1-2.5-3.3,1.3-5,1.5
			c-0.9,0-1.5-1.1-1.3-2.2c0.2-1.3,1.3-0.9,2.4-0.7c0.2-0.4,0.9-0.2,0.7-0.9c-1.5-2.7-2.8,1.1-5-0.3c-2.4-0.2-1.1-3.1-2.8-3.8
			c-1.1-0.9-2.4,0.2-2.8,1.1c-3,1.3-2.4-2.7-3.9-3.8c-3,0.2-1.5-3.4-3.6-4.5c-1.7-1.4-2.4,2.2-4.1,1.3c-1.9-0.5-0.2-2.7-1.5-3.6
			c-2.8,0.2-2.8-2.9-4.1-4.7c-2.8,0.2-2.1-3.1-4.3-4.1c-0.6-0.9-1.3,0.2-1.7,0.7c-0.7,0.7-1.7,0.4-2.4-0.3c-0.6-1.3,0-3.1,1.3-3.3
			c-1.1-2-3.5,0.9-4.5-1.6c0.5-2.7-1-3.4-3-4.3c-0.2-3.4-3.9-3.8-4.9-6.8c-1.1-2.2-2.2,0.9-3.7,0.2c-0.9-0.5-1.9-1.6-1.5-3.1
			c-0.2-0.7-0.9-0.2-1.5-0.5c-0.6,0.2-0.9,0.9-0.9,1.6c2.3,6.3,6.1,12.1,9.8,18c3.2,4.7,6.8,8.3,10.5,12.6c1.5,2,3.7,2.7,4.7,4.7
			c16.1,15.4,35.7,24.2,56.6,28.9c3.2,0,6,2.3,9.1,1c3.2,2.3,8,0.5,11.4,1.9c1.7-0.7,3.5-0.4,5.4,0c2.8-1.1,6.5,0.3,9.1-1
			c5.8-0.6,11.7-1.2,17.1-2.7c4.6-0.9,8.9-2.2,13.2-3.5c2.4-1.5,5.4-1.7,7.6-3.5c10.4-4.4,20.4-10.8,29.1-18.5
			c2.6-2.4,5.9-5.1,7.9-8.2c8.1-7.7,14-17.5,19.3-27.1c1.3-5.1,4.4-9.6,5.3-14.9C403.1,202.6,404.2,199.9,401.3,201.4L401.3,201.4z
			 M261.9,230.4c0.7-0.3,1.5,0,1.8,0.7c0,0,0,0.1,0,0.1c0.2,0.5,0.1,1-0.2,1.4c-0.3,0.4-0.7,0.6-1.1,0.5c-0.2,0-0.5-0.1-0.6-0.2
			c0,0-0.9-0.8-0.9-0.9C260.8,231.4,261.2,230.7,261.9,230.4L261.9,230.4z M257.8,233.7c0.5,0,0.8,0.3,1,0.8c0.1,0.2,0.1,0.7,0,0.8
			c-0.3,0.4-0.8,0.4-1.2,0.4c-0.2,0-0.4-0.1-0.5-0.2c-0.4-0.4-0.5-0.9-0.3-1.3C256.9,234.1,257.5,233.7,257.8,233.7L257.8,233.7z
			 M253.8,228.3c0.5-0.5,1.3-0.6,1.9-0.4c0.6,0.2,0.9,0.7,1,1.4c0,0,0-0.1,0-0.1c0,0,0,0.1,0,0.1c0,0,0,0,0,0
			c0.1,0.2,0.1,0.4,0.1,0.6c0,0.7-0.4,1.2-0.9,1.4c-0.1,0.1-0.6,0.1-0.7,0.1l-1.6-0.4c0,0-0.4-1-0.3-0.8
			C253.1,229.4,253.2,228.8,253.8,228.3L253.8,228.3z M252,237.1c0.3-0.4,0.8-0.7,1.3-0.5c0.2,0.1,0.5,0.6,0.6,0.7
			c0.1,0.2,0.2,0.8,0.1,0.9c-0.3,0.4-0.8,0.4-1.2,0.4c-0.2,0-0.3-0.1-0.5-0.2C251.9,238,251.8,237.5,252,237.1L252,237.1z
			 M250.9,231.1c0.5,0.2,0.8,0.7,0.8,1.2c0-0.1,0-0.2-0.1-0.3c0.4,0.9-0.1,1.4-0.6,1.8c-0.1,0.1-0.3,0.2-0.5,0.2
			c-0.7,0-1.3-0.2-1.5-0.6c-0.2-0.3-0.3-0.7-0.1-0.7c-0.2-0.5-0.1-1.1,0.3-1.4C249.6,231,250.3,230.9,250.9,231.1L250.9,231.1z
			 M246.9,225.3c0.2-0.1,0.5,0,0.7,0c0.7,0.2,1.6,0.6,1.9,1.5v0c0-0.1,0,0.1,0,0c0,0,0,0,0,0c0,0-0.1,1.7-0.1,1.7s-1.4,1.3-1.6,1.3
			c-1.4,0-2.4-0.9-2.4-2C245.5,226.7,246,225.8,246.9,225.3L246.9,225.3z M232.9,229.1c0-0.1,0.1-0.7,0.1-0.8c0.2-0.7,0.4-1.7,1.5-2
			l2.2,0.4l1,1.5c0.1,0.1,0,0,0,0.1c0,0.7-0.2,1.7-0.9,2.2c-0.5,0.4-1,0.5-1.5,0.4C234.1,230.9,233.2,229.9,232.9,229.1L232.9,229.1
			z M238,235.6c-1,0-1.9-1-1.9-1.9c-0.3-1.5,0.9-1.9,1.7-2.1c0.6,0,2.1,0,2.1,1.8v0c0-0.1,0,0.1,0,0v0l-0.7,1.7L238,235.6L238,235.6
			z M241.2,240.3l-1.3-0.1c0,0-1-1.2-1-1.3c-0.3-1.1,0.2-2,1.3-2.3c1-0.3,1.7,0.4,2.2,0.9c0.1,0.1,0.2,0.3,0.2,0.5
			C242.5,238.6,242.5,240,241.2,240.3L241.2,240.3z M241.4,231.9c-0.2-0.2-0.4-0.5-0.4-0.9c0-0.1,0-0.3,0.1-0.5
			c-0.1-0.3-0.1-0.6-0.1-0.6s1-0.9,1.2-1c0.6-0.2,1.3-0.1,1.7,0.2c0.4,0.3,0.6,0.7,0.6,1.3c0-0.1,0-0.1,0-0.2c0,0.1,0,0.1,0,0.2v0
			c0,0.1,0.1,0.2,0.1,0.3c0,0.7-0.4,1.2-1.2,1.6C242.8,232.5,241.9,232.4,241.4,231.9L241.4,231.9z M245.8,237
			c-0.7,0-1.3-0.4-1.7-1.3c0-0.7,0.6-1.3,1.3-1.4c0.7-0.1,1.3,0.2,1.5,0.8c0,0.1,0,0.1,0,0.2C246.9,235.7,246.9,236.5,245.8,237
			L245.8,237z M246.9,241.1c-0.3-0.7,0-1.4,0.6-1.8c0.6-0.3,1.6-0.2,2.1,0.5c0.1,0.1,0.1,0.2,0.1,0.4c0,1.2-0.5,1.8-1,1.7
			C247.8,242.3,247.3,241.6,246.9,241.1L246.9,241.1z M250.9,247.1l-1.1-0.4c-0.3-0.1-0.6-0.5-0.6-0.7c0-1.3,0.5-2.1,1.3-2.4
			c0.5-0.2,1.1-0.1,1.5,0.2c0.4,0.3,0.6,0.8,0.6,1.3c0-0.1,0-0.1,0-0.2c0,0.1,0,0.1,0,0.2v0v0v0c0,0.1,0.1,0.2,0.1,0.3
			c0,0.5-0.2,0.9-0.5,1.2C251.8,247.1,251.3,247.2,250.9,247.1L250.9,247.1z M256.1,250.1l-0.8,1.9c0,0-1.2,0.5-1,0.5
			c-0.7,0.1-1.4,0-1.9-0.4c-0.5-0.4-0.8-1.1-0.8-1.8c0-1,0.6-1.9,1.6-2.2c1.4-0.3,2.6,0.5,2.9,1.8
			C256.1,250.1,256.1,250,256.1,250.1L256.1,250.1z M256.6,243.3c-0.1,0.1-0.3,0.3-0.7,0.3c-0.1,0-0.6,0-0.7,0
			c-0.5-0.4-0.6-1.2-0.3-1.8c0.1-0.3,0.7-0.2,1-0.2c0.3,0,0.8,0.4,0.9,0.7l0,0.1C256.8,242.5,256.7,243.1,256.6,243.3L256.6,243.3z
			 M257,247.7c-0.1-0.6,0.1-1.2,0.6-1.6c0.5-0.3,1.2-0.4,1.7-0.1c0.4,0.2,0.7,0.7,0.7,1.2v0c0,1.3-0.7,1.8-1.3,1.7
			C257.9,249,257.3,248.6,257,247.7L257,247.7z M261.4,254.4l-1.7-0.6c0,0-0.5-1.2-0.5-1.2c0-1.3,0.7-2.2,1.5-2.2l1.3,0.1l1,1.2
			c0,0,0,0,0,0c0,0.2,0.1,0.3,0.1,0.5C263.2,253.3,262.3,253.9,261.4,254.4L261.4,254.4z M265.5,258.7c-0.4,0.4-0.9,0.6-1.8,0.4
			c-0.5-0.1-1.9-0.4-1.7-1.8c0-0.8,0.5-1.9,1.5-2.2c0.9-0.2,1.9,0.4,2.4,1.4c0,0,0,0.1,0,0.1C266.1,257.2,266,258.1,265.5,258.7
			L265.5,258.7z M265.4,237.7c-0.3,0.1-1-0.1-1.1-0.4c-0.4-0.6-0.2-1-0.1-1.2c0.2-0.3,0.9-0.2,1.2-0.1c0.3,0.1,0.9,0.6,0.8,0.9
			C266.1,237.4,265.8,237.6,265.4,237.7L265.4,237.7z M267.5,230.5c-0.8,0.3-1.7-0.1-2.1-1.3c0-0.7,0-2,1.3-2.4c0.5,0,1.6,0,2.1,0.7
			c0.1,0.2,0.3,0.5,0.3,0.9c0,0.1,0,0.2,0,0.2c0,0.1,0,0.2,0,0.3c0,0.4-0.1,0.7-0.3,1C268.4,230.3,267.8,230.5,267.5,230.5
			L267.5,230.5z M268.8,234.3c-0.2-0.8,0.2-1.5,0.8-1.7c0.5-0.2,1.1,0,1.5,0.8c0,0,0-0.1-0.1-0.1c0,0,0.1,0.1,0.1,0.2
			c0,0-0.1,0-0.1,0c0.1,0.1,0.2,0.3,0.2,0.5c0,0.3-0.1,0.6-0.5,1c-0.1,0.1-0.5,0.2-0.7,0.2C269.8,235.1,269.2,235.2,268.8,234.3
			L268.8,234.3z M273.4,258.9C273.4,258.9,273.4,258.9,273.4,258.9c0,0-0.2,1.3-0.2,1.3s-1.1,0.9-1.3,1l-1.9-0.5
			c0,0-0.4-1.2-0.4-1.1c-0.1-0.5,0-1.1,0.4-1.6c0.3-0.4,0.8-0.7,1.3-0.6C272.3,257.3,273.1,257.9,273.4,258.9L273.4,258.9
			C273.4,258.7,273.4,259,273.4,258.9L273.4,258.9z M274.8,232.6c-0.9,0-1.7-0.5-1.7-1.4c-0.2-0.6,0-1.3,0.5-1.7
			c0.5-0.4,1.3-0.5,1.8-0.2c0.4,0.3,0.7,0.7,0.7,1.3c0,0.1,0,0.1,0,0.2C276.1,231.6,275.7,232.2,274.8,232.6L274.8,232.6z
			 M277.9,236.9c-0.2,0.1-0.4,0.4-0.6,0.2c0,0-1.1-0.6-1.2-0.8c-0.3-0.6-0.1-1.1,0.2-1.3c0.4-0.4,1.2-0.4,1.7-0.1
			c0.1,0.1,0.3,0.5,0.4,0.6C278.5,235.8,278.7,236.4,277.9,236.9L277.9,236.9z M283.5,232.7l-0.9,1.6c-0.1,0.2-0.2,0.2-0.5,0.2
			c-0.9,0-1.5-0.6-1.5-1.1c-0.4-1.2,0.6-1.7,1-1.9c0.2-0.1,0.7,0,0.9,0.2l0.9,0.8C283.6,232.6,283.6,232.4,283.5,232.7L283.5,232.7z
			 M285.7,238.5c-0.3,0.4-0.8,0.4-1.2,0.4c-0.2,0-0.4-0.1-0.5-0.2c-0.4-0.4-0.5-1-0.2-1.4c0.3-0.4,0.8-0.7,1.3-0.5
			c0.2,0,0.5,0.6,0.6,0.7C285.7,237.8,285.8,238.3,285.7,238.5L285.7,238.5z M287.1,231.6c-0.8,0.3-1.6-0.1-2.1-1.3
			c0-1.2,0.6-1.7,1.3-2l1.8,0.5l0.4,1.1C288.4,230.6,287.8,231.2,287.1,231.6L287.1,231.6z M290.4,235.7c-0.1,0.2-0.7,0.3-0.9,0.3
			c-0.6,0-0.9-0.4-1-0.6c-0.1-0.1-0.3-0.4-0.3-0.5c0-0.4,0.2-0.8,0.6-1c0.4-0.2,0.9-0.2,1.3,0c0.1,0,0.3,0.3,0.3,0.4
			C290.8,234.7,290.7,235.4,290.4,235.7L290.4,235.7z M210.7,238.7c-0.3,0.4-0.8,0.6-1.2,0.6c0,0-1.3-0.7-1.5-0.9
			c-0.3-1,0.3-2,1.3-2.4c0.9,0,1.7,0.5,1.7,1.3v0c0,0.1,0.1,0.2,0.1,0.3C211,238.1,210.9,238.4,210.7,238.7L210.7,238.7z
			 M233.7,257.1c0,0.1-0.1,0.1-0.1,0.2C233.6,257.2,233.6,257.2,233.7,257.1c-0.5,0.8-1,0.8-1.8,0.7c-0.8-0.4-0.8-1.4-0.5-2.2
			c0.2-0.5,0.6-0.7,1.1-0.7c0.5,0,1.1,0.4,1.3,1c0.1,0.2,0.1,0.3,0.1,0.5C233.9,256.7,233.8,256.9,233.7,257.1
			C233.6,257.1,233.6,257.1,233.7,257.1L233.7,257.1z M243.2,264.3c-0.1,0.2-0.4,0.2-0.7,0.2c-0.3,0-0.6-0.3-0.7-0.5
			c-0.3-0.5-0.1-1.3,0.5-1.6c0.2-0.1,0.7,0.1,0.9,0.3c0.2,0.2,0.4,0.6,0.3,0.9L243.2,264.3L243.2,264.3z M251.4,265.3
			C251.4,265.3,251.4,265.3,251.4,265.3c0,0.5,0,1.1-1.1,1.5c-0.4,0-1.5,0-1.4-0.9c-0.2-0.6-0.1-1.2,0.4-1.6
			c0.5-0.4,1.2-0.5,1.6-0.2c0.3,0.2,0.5,0.6,0.5,1C251.4,265.1,251.4,265.2,251.4,265.3C251.4,265.3,251.4,265.3,251.4,265.3
			L251.4,265.3z M258.5,268.3c0,0-0.9,0.3-1.1,0.4c-0.3,0-0.9,0.1-1.3-0.7c-0.3-1,0.3-2,1.3-2.4c0.5,0,1.5,0.5,1.5,1.3L258.5,268.3
			L258.5,268.3z M265.8,270l0-0.2c-0.1,0.2-0.5,0.4-0.7,0.5c-0.2,0-0.7,0-0.9-0.2c-0.3-0.5-0.2-1-0.1-1.3c0.1-0.2,0.2-0.5,0.4-0.6
			c0.3-0.1,0.9-0.4,1.4,0.5c0-0.1,0.1,0.1,0,0.1C266,268.9,266.3,269.4,265.8,270L265.8,270z M295.4,232.7c-0.3,0.4-0.8,0.7-1.2,0.7
			c-0.9,0-1.3-0.7-1.5-1.2c-0.1-0.5,0.1-0.9,0.4-1.2c0.5-0.4,1.2-0.5,1.7-0.2c0.4,0.2,0.7,0.6,0.7,1.1
			C295.6,232,295.5,232.6,295.4,232.7L295.4,232.7z M297.4,237.9c-0.2,0.1-0.6,0.2-0.8,0.2c-0.4-0.1-0.7-0.4-0.8-0.8
			c-0.1-0.3,0.2-1.1,0.5-1.2c0.4-0.1,0.8-0.1,1.1,0.1c0.4,0.3,0.4,0.8,0.4,1.2C297.9,237.5,297.6,237.8,297.4,237.9L297.4,237.9z
			 M300.1,230.5c-0.1,0.2-0.7,0.4-0.9,0.4c-0.5,0-1.4,0.1-1.9-0.8c-0.1-0.1-0.1-0.4-0.1-0.5l0.1-0.5c0-0.5,0-1.4,1-1.7
			c0.6-0.2,1.2-0.1,1.7,0.3c0.4,0.3,0.6,0.7,0.6,1.1c0,0,0,0,0-0.1c0,0.1,0,0.1,0,0.2c0,0,0-0.1,0-0.1c0.2,0.8-0.1,1.2-0.3,1.5
			L300.1,230.5L300.1,230.5z M302.9,234l-0.6,1.1c-0.1,0.2-0.3,0.2-0.5,0.2c-1.1,0-1.3-0.5-1.3-0.9c0-0.3,0.1-1.2,0.4-1.2l1-0.2
			l0.9,0.6C303.1,233.8,303.1,233.7,302.9,234L302.9,234z M307.5,232c-0.3,0.4-0.7,0.7-1.2,0.7c-0.2,0-0.5-0.2-0.6-0.3
			c0,0-0.9-0.8-0.9-0.8c-0.2-0.5-0.1-1.1,0.3-1.4c0.4-0.4,1.1-0.5,1.7-0.3c0.5,0.2,0.8,0.7,0.8,1.2c0-0.1,0-0.2-0.1-0.3
			c0,0.1,0,0.2,0.1,0.3c0,0.1,0,0.2,0,0.2C307.7,231.6,307.7,231.8,307.5,232L307.5,232z M312.4,229.4c-0.3,0.4-0.8,0.6-1,0.6
			c-0.5,0.2-1,0.1-1.4-0.2c-0.5-0.3-0.8-0.9-0.7-1.3c-0.2-0.6,0-1.2,0.4-1.6c0.5-0.5,1.4-0.6,2.1-0.3c0.6,0.3,0.9,0.8,0.9,1.5
			c0,0,0,0,0,0c0,0.1,0,0.2,0,0.3C312.7,228.8,312.6,229.1,312.4,229.4L312.4,229.4z M312.9,233c0,0.3,0.5,1.2,0.7,1.2
			C312.9,234,312.9,233,312.9,233L312.9,233z M313.9,233.4c-0.2,0.5-0.4-0.2-0.4-0.4C313.9,232.8,314.1,233,313.9,233.4L313.9,233.4
			z M319.6,231.1c-0.1,0.1-0.5,0.5-0.6,0.5c-0.4,0.2-0.8,0.2-1.1,0c-0.4-0.3-0.7-0.7-0.6-1.1c-0.1-0.5,0-1,0.4-1.3
			c0.4-0.3,1-0.4,1.5-0.2c0.4,0.2,0.6,0.6,0.6,1.1c0-0.1,0-0.2-0.1-0.3c0,0.1,0,0.2,0.1,0.3c0,0,0,0,0,0c0,0,0,0,0,0s0,0,0,0
			c0,0,0,0,0,0c0,0.1,0.1,0.2,0.1,0.3C319.8,230.6,319.8,230.9,319.6,231.1L319.6,231.1z M324.2,228.8c-0.2,0.2-0.6,0.3-0.8,0.2
			c-0.5,0.2-1,0.1-1.4-0.2c-0.3-0.3-0.6-0.7-0.5-0.9c-0.3-1,0.1-1.8,1-2.1c0.9-0.4,1.6,0.3,2,0.8c0.1,0.1,0.2,0.3,0.2,0.5
			C324.8,227.6,324.8,228.4,324.2,228.8L324.2,228.8z M325,232.3c0-0.1-0.1-0.1-0.1-0.2V232v0C325,232,325,232.2,325,232.3
			c0.1,0.3,0.2,0.9,0.4,1C325.1,233,325.1,232.6,325,232.3L325,232.3z M326.3,232.3L326.3,232.3
			C326.3,232.3,326.3,232.4,326.3,232.3c0,0.2,0,0.3-0.2,0.4c-0.1,0-0.2,0-0.2,0c0,0,0,0,0,0c0,0,0,0,0,0c0,0-0.1-0.1-0.1-0.1
			c0,0,0,0-0.1-0.1c0,0,0,0,0-0.1c0,0.1-0.1,0.1-0.2,0.3c0,0,0-0.3,0-0.5c0,0,0.1,0.1,0.1,0.2c0-0.1,0-0.1,0.1-0.2V232
			c0.1,0,0.1,0,0.1,0c0,0,0-0.1,0.1-0.1C326.2,231.9,326.2,232,326.3,232.3C326.3,232.3,326.3,232.3,326.3,232.3c0,0,0-0.3,0-0.3
			C326.3,232.1,326.3,232.2,326.3,232.3L326.3,232.3L326.3,232.3z M326,225.3c0-0.1-0.1-0.6-0.1-0.7c0-0.8-0.1-2.1,1.3-2.4
			c0.9,0,1.6,0.3,2,0.8c0.2,0.2,0.4,0.6,0.4,1.1c0,0.1,0,0.2,0,0.3c0,0.1,0,0.3,0,0.4c0,0.8-0.5,1.4-1.4,1.8
			C327.2,226.9,326.3,226.1,326,225.3L326,225.3z M330.8,230.9c-0.8,0-1.2-0.6-1.4-1c-0.3-0.7,0-1.3,0.5-1.5
			c0.6-0.3,1.5-0.1,1.8,0.5c0,0.1,0.1,0.5,0.1,0.5C331.7,229.7,331.8,230.5,330.8,230.9L330.8,230.9z M336.1,227.8
			c-0.1,0.2-0.3,0.2-0.5,0.2c-0.5,0-1.3,0-1.6-0.8c-0.2-0.5-0.1-1,0.2-1.4c0.5-0.5,1.2-0.7,1.8-0.5c0.5,0.2,0.7,0.6,0.7,1.1
			C336.7,226.5,336.1,227.8,336.1,227.8L336.1,227.8z M340.7,225.1c-0.5,0.2-1.2,0.3-2.2-0.8c-0.3-0.6-0.2-1.2,0.2-1.6
			c0.4-0.5,1.3-0.6,1.9-0.4c0.5,0.2,0.8,0.7,0.9,1.2c0-0.1,0-0.2,0-0.2c0,0.1,0.1,0.2,0.1,0.3c0,0,0,0,0,0
			C341.6,224.3,341.1,224.7,340.7,225.1L340.7,225.1z M344.7,222.8c-0.8,0-1.5-0.5-1.9-1.4c-0.3-1.4,0.2-2.5,1.3-2.8
			c0.8-0.3,1.4,0.2,1.7,0.5c0.1,0.1,0.6,0.5,0.6,0.7c0.1,0.6,0.2,1.7-0.4,2.4C345.8,222.4,345.4,222.8,344.7,222.8L344.7,222.8z
			 M348.5,226.4c-0.1,0.2,0,0.1-0.1,0.2l-0.8,0.3c-0.2,0.1-0.6,0.1-0.8-0.1c-0.8-0.8-0.4-1.4-0.3-1.6c0.3-0.4,1-0.6,1.6-0.3
			C348.5,225.2,348.8,225.7,348.5,226.4L348.5,226.4z M353.3,223.2c-0.1,0.2-0.2,0.4-0.4,0.5l-1.1,0.4c-0.2,0.1-0.3,0-0.5-0.2
			c-0.4-0.4-0.5-0.8-0.5-1.3c0.1-0.4,0.3-0.7,1-0.9c0.5,0,1.1,0,1.4,0.8C353.4,222.7,353.4,223.1,353.3,223.2L353.3,223.2z
			 M357.4,221.2c-0.4,0.2-0.9,0.2-1.2,0c-0.4-0.2-0.6-0.7-0.6-1c-0.2-0.6,0.1-1.1,0.6-1.3c0.6-0.2,1.4,0,1.7,0.6
			c0,0.1,0.1,0.4,0.1,0.5C358,220.3,358.1,220.9,357.4,221.2L357.4,221.2z M362.1,218.4c-0.5,0.2-1,0.2-1.4-0.1
			c-0.4-0.2-0.6-0.6-0.5-0.8c-0.3-0.9,0.2-1.4,0.4-1.5c0.5-0.3,1.2-0.3,1.7,0c0.4,0.3,0.6,0.8,0.5,1.3c0-0.1,0-0.1,0-0.2
			C362.7,218.2,362.2,218.4,362.1,218.4L362.1,218.4z M367.5,215.3c-0.3,0.3-0.7,0.6-0.9,0.5c-0.8,0.3-1.7-0.1-2.1-1
			c0-0.1-0.1-0.6-0.1-0.6c0-0.6-0.1-1.4,1.1-2.1c0.8,0,1.5,0.3,1.9,0.8c0.2,0.3,0.3,0.6,0.3,0.9c0,0.1,0,0.2,0,0.3
			c0,0.1,0,0.2,0,0.3C367.8,214.7,367.7,215,367.5,215.3L367.5,215.3z M372.9,217.1c-0.2-0.4-0.2-1,0.2-1.4
			c-0.1,0.1-0.1,0.2-0.1,0.3c0,0.3,0.1,0.6,0.2,0.8c0,0.1,0.2,0.1,0.2,0.1c-0.1-0.3-0.2-0.6-0.2-0.6c0,0.1,0.1,0.1,0.1,0.2
			c0,0,0,0,0,0c0-0.1,0-0.3,0.1-0.4c0.3-0.1,0.3,0,0.4,0.1c0,0,0.1,0.1,0.1,0.2c0.1,0.1,0,0.1,0,0.2c0,0-0.1,0-0.1,0.1
			c0,0.1,0,0.1,0,0.2c-0.2,0.1-0.3,0-0.4,0c0,0,0,0,0,0c0,0,0-0.1-0.1-0.1c0,0-0.1,0-0.1-0.1c0,0,0,0,0,0c0,0,0,0,0,0.1
			c0,0.1,0,0.2,0.1,0.4c0.2,0.2,0.5,0.5,0.7,0.4C373.5,217.6,373.1,217.4,372.9,217.1L372.9,217.1z M379.5,213.9
			c-0.2,0.3-0.4,0.9-1,1c-0.4,0.1-0.7-0.1-1.1-0.5c-0.1-0.1-0.3-0.8-0.3-1c0.1-0.4,0.3-0.7,1-1c0.5,0,1,0,1.4,0.8
			C379.6,213.4,379.6,213.7,379.5,213.9L379.5,213.9z M383.6,211.9c-0.1,0-0.5,0.1-0.5,0.1c-0.3,0-0.9,0.1-1.2-0.6
			c-0.3-0.5-0.2-1.1,0.2-1.6c0.3-0.4,0.8-0.6,1.3-0.5c0.2,0.1,0.7,0.3,0.8,1l0,0.2C384.2,210.7,384.3,211.5,383.6,211.9L383.6,211.9
			z M388.2,209.2c-0.2,0.1-0.7,0-0.8-0.1c-0.3-0.1-1.3-0.5-0.9-1.1c-0.4-0.8,0-1.4,0.1-1.5c0.4-0.4,1.1-0.5,1.7-0.3
			c0.6,0.2,0.9,0.7,0.9,1.3C389.2,208.3,388.8,208.9,388.2,209.2L388.2,209.2z"/>
		<path class="st2" d="M264.6,269.2C264.6,269.2,264.6,269.2,264.6,269.2L264.6,269.2c0-0.1,0-0.2,0-0.2c0,0-0.1,0-0.1,0
			C264.4,269.2,264.5,269,264.6,269.2L264.6,269.2z"/>
		<path class="st2" d="M229.5,224.8c0.6-0.2,1.3-0.9,1.3-1.8c-0.2-0.9-1.3-1.8-2.4-1.8c-0.9,0.2-1.3,1.3-1.3,2.2
			C227.5,224.4,228.4,225,229.5,224.8L229.5,224.8z"/>
		<path class="st2" d="M226.3,219c0.2,0,0.7-0.4,0.4-1.1c-0.2-0.9-1.3-0.2-1.5,0.4C225.4,218.8,225.9,219,226.3,219L226.3,219z"/>
		<path class="st2" d="M245.7,220.3c0.2,0,0.7-0.4,0.5-1.1c-0.2-0.2-0.2-0.5-0.4-0.5C244.9,219.2,244.9,220.1,245.7,220.3
			L245.7,220.3z"/>
		<path class="st2" d="M234.1,221.5c0.2-0.4,0.7-0.7,0.7-1.3c0-0.4-0.6-1.1-1.3-1.4c-0.4,0.4-1.1,1.1-1.1,1.8
			C232.8,221.1,233.2,221.7,234.1,221.5L234.1,221.5z"/>
		<path class="st2" d="M221.7,222.1c0.2-0.2,0.9-0.7,0.9-1.1c-0.4-1.3-2.2-1.4-2.2,0.2C220.7,221.6,221.1,222.1,221.7,222.1
			L221.7,222.1z"/>
		<path class="st2" d="M253.3,223c0.4-0.4,1.5-0.9,1.3-1.8c-0.2-0.9-1.9-1.8-2.4-0.5C251.4,221.5,252.4,222.8,253.3,223L253.3,223z"
			/>
		<path class="st2" d="M241.1,244.8c0,0,0.1,0.1,0.1,0.1c0,0,0,0,0-0.1C241.2,244.8,241.1,244.8,241.1,244.8L241.1,244.8z"/>
		<path class="st2" d="M217.2,224.7c0.2-0.2,0.4-0.7,0.7-1.1c-0.4-0.7-1.9-1.1-1.7,0.2C216.3,224.3,216.5,224.7,217.2,224.7
			L217.2,224.7z"/>
		<path class="st2" d="M224.5,227.5c0.9-0.4,1.7-1.1,1.5-2.2c-0.4-0.9-1.1-1.1-1.9-1.1c-0.6,0.2-1.3,0.9-1.3,1.8
			C223.2,226.6,223.6,227.5,224.5,227.5L224.5,227.5z"/>
		<path class="st2" d="M220.6,229.2c0.2-0.2,0.2-0.7,0.2-0.9c-0.2-0.4-0.6-1.1-1.3-0.9C219.1,227.9,219.7,229,220.6,229.2
			L220.6,229.2z"/>
		<path class="st2" d="M355.6,212.6c0.4,0,0.7-0.7,0.7-1.1c-0.4-0.5-0.6-0.9-1.1-0.9c-0.4,0.4-1.3,0.7-1.1,1.3
			C354.3,212.4,355,213.3,355.6,212.6L355.6,212.6z"/>
		<path class="st2" d="M360,209.7c0.2-0.2,0.7-0.4,0.7-0.9c-0.2-0.4-0.7-0.7-0.9-0.7C358.5,208.6,359.3,209.5,360,209.7L360,209.7z"
			/>
		<path class="st2" d="M338.5,216.7c0.4-0.2,1.1-0.9,0.9-1.6c-0.6-1.1-2.2-0.7-2.4,0.4C337.2,216,337.9,216.7,338.5,216.7
			L338.5,216.7z"/>
		<path class="st2" d="M326.8,216.4c-0.2,0-0.4-0.5-0.6-0.5c-0.4,0.2-0.9,0.7-0.2,1.1C326.4,217,326.4,216.6,326.8,216.4
			L326.8,216.4z"/>
		<path class="st2" d="M376.9,206.1c0.4-0.4,0.9-0.7,0.9-1.1c-0.4-1.3-1.9-0.9-2.2,0.2C375.8,205.6,376.2,206.5,376.9,206.1
			L376.9,206.1z"/>
		<path class="st2" d="M265.4,221.6c0.2-0.2,1.1-0.4,0.9-1.1c-0.2-0.4-0.6-0.7-1.1-0.7c-0.4,0.2-0.9,0.7-0.7,1.1
			C264.8,221.4,265,221.6,265.4,221.6L265.4,221.6z"/>
		<path class="st2" d="M381.9,202.1c-0.2-0.9-1.3-0.5-1.1,0.4c0.2,0.2,0.4,0.4,0.6,0.4C381.7,202.8,382.1,202.6,381.9,202.1
			L381.9,202.1z"/>
		<path class="st2" d="M401.6,196.3c0.2,0.4,0.8,0.9,1.3,0.9c0.6,0,0.9-0.9,0.9-1.3C403.3,194.1,401.4,194.9,401.6,196.3
			L401.6,196.3z"/>
		<path class="st2" d="M298,221c-0.4-0.2-0.6-0.9-1.1-0.9c-0.4,0.2-1.1,1.1-0.4,1.6C297.2,222.6,297.8,221.5,298,221L298,221z"/>
		<path class="st2" d="M285.1,222.9c0.6,0,1.1-0.7,1.1-1.3c-0.6-1.1-2.2-0.9-2.4,0.2C284,222.2,284.4,222.9,285.1,222.9L285.1,222.9
			z"/>
		<path class="st2" d="M304.9,224.6c0.7-0.4,1.1-1.1,1.1-2.2c-0.4-0.5-1.1-1.4-1.9-1.1c-0.4,0.4-1.3,1.1-1.1,2
			C303.2,224,304.1,224.9,304.9,224.6L304.9,224.6z"/>
		<path class="st2" d="M272.7,224.1c0.9-0.2,1.5-0.9,1.3-1.8c0-0.7-0.9-0.9-1.5-1.1c-0.6,0.2-1.3,0.9-1.1,1.8
			C271.7,223.4,272.3,224.1,272.7,224.1L272.7,224.1z"/>
		<path class="st2" d="M321.6,220.3c0.4-0.2,1.3-0.7,1.1-1.3c-0.4-0.5-0.9-1.3-1.5-0.9c-0.4,0.2-1.1,0.4-0.9,1.1
			C320.5,219.9,321,220.3,321.6,220.3L321.6,220.3z"/>
		<path class="st2" d="M309.3,220.9c0.4-0.2,0.9-0.4,0.9-1.1c-0.4-1.1-1.7-0.5-1.7,0.4C308.6,220.4,308.9,221.1,309.3,220.9
			L309.3,220.9z"/>
		<path class="st2" d="M292.2,320.9c73.4,0,133.7-58.7,139.9-134.2l-17.1,5.4c-9.6,55.5-60.9,97.8-122.8,97.8
			c-53,0-98.3-31.1-116.2-74.9h-18.6C174.6,276.2,228.4,320.9,292.2,320.9L292.2,320.9z"/>
		<path class="st2" d="M269.7,61.4c-1.1,0.8-4.7,4.6-5.8,3c-0.8-1.1,1-2.6,1-2.6l-14.9-2l-2.6,7.8l3.2,2.3l-3.7,21.3l9.4,6.1
			l8.4-9.4l-3.5-3.4c0,0-2.4,2.4-3.3,0.2c-0.3-0.6,1.1-4.3,2.1-7c1-2.7,3-8,4.9-4.8c1.7,2.7,2.9,7.5,2.9,7.5l5.5-6.8l-1-10.1
			C272.3,63.4,270.6,62.3,269.7,61.4L269.7,61.4z"/>
		<path class="st2" d="M397.5,58.5c-1.2,0.7-5.2,4-6.1,2.3c-0.6-1.2,1.2-2.4,1.2-2.4l-12.9-3.3l-3.3,7.3l3,2.5l-5.8,20.4l8.8,6.8
			l9.3-8.4l-3.2-3.6c0,0-2.6,2.1-3.3-0.1c-0.2-0.7,0.5-4.1,1.7-6.6c1.3-2.6,3.2-6.3,4.5-4.2c1.7,2.6,2.2,7.5,2.2,7.5l6.2-6.1l0-9.9
			C399.9,60.7,398.4,59.4,397.5,58.5L397.5,58.5z"/>
		<path class="st2" d="M235.9,42.1c-3.8,0-6.9,2.9-6.9,6.4c0,3.5,3.1,6.4,6.9,6.4c3.8,0,6.9-2.9,6.9-6.4
			C242.8,45,239.7,42.1,235.9,42.1L235.9,42.1z M235,86.7c-1.3-1.3,4.8-20.3,4.8-20.3l-15.6-4.2l-2,7.5l3.2,3.3l-1.9,22.4
			c0,0,8.8,5.2,9.1,5.2c0.3,0,7.8-11.4,7.8-11.4l-2.9-3.2C237.5,85.8,236.3,87.9,235,86.7L235,86.7z"/>
		<path class="st2" d="M366,36.5c-3.8,0-6.9,2.9-6.9,6.4c0,3.5,3.1,6.4,6.9,6.4c3.8,0,6.9-2.9,6.9-6.4
			C372.9,39.4,369.8,36.5,366,36.5L366,36.5z M365.1,80.4c-1.3-1.3,4.8-19.7,4.8-19.7l-14.3-4.4l-2,7.2l3.2,3.2l-2.8,21.6
			c0,0,8.3,5.4,8.6,5.4c0.3,0,7.8-11,7.8-11l-2.9-3.1C367.7,79.5,366.4,81.6,365.1,80.4L365.1,80.4z"/>
		<path class="st2" d="M323.2,39.1l-15.3,29.1l-1.4-1.2c0,0-0.4-14.1,0.9-24.9l-15.3,9.3l-1.4,11.5c0,0-1.1,1.3-2.6,3.7
			c0-3.9-0.7-31-0.7-31l-14.3,10l0.3,6.2l3.2,0.3c1.6,13.7,2.8,31.5,3.2,36.7c1.3,1.1,9.5,5.3,9.5,5c0-0.3,7.7-17.7,7.7-17.7
			l2.9,18.2l10.5-5.2c0,0,15.7-37,18.7-41.5c1.4-0.6,5.7-0.8,5.7-0.8l1.1-8.9L323.2,39.1L323.2,39.1z"/>
		<path class="st2" d="M342.8,79.3c0,0,1.6-8.6,6.3-20.8l-13.6-2.7l-6.3,7.1l3.3,2.1c0,0,0.9-0.9,1.7-1.3c1.7-1,2.3,1.2,1.1,3.1
			c-6.1,4.2-13.4,9.1-18.5,15.8l4.9,11.2l12.9-4.1l6,4.8l7.8-9.4c0,0-1.5-2.8-2.3-4.3C343.4,82.8,342.3,80.9,342.8,79.3L342.8,79.3z
			 M333.5,83c0,0-5,2.2-7.5,2.9c-0.7,0.2-1.8,0.5-1.8-0.3c0-3.1,10.6-9.9,10.6-9.9L333.5,83L333.5,83z"/>
		<path class="st2" d="M213.4,96.8c-1.1-8.9,0.9-47.7,1.1-48.3c-1.5,0.5-14.6,4.2-14.6,4.2l-16.5,43.8l-4.2-0.6l-3.1,7.4l12.5,8.2
			l6.5-17.2l6.9,1.6c0.7,6.8,2.1,14.3,2.1,14.3l14.3-7.1v-6.8C218.4,96.2,214.4,96.7,213.4,96.8L213.4,96.8z M201.2,86.5l-3.9-1
			l4.9-13.5L201.2,86.5L201.2,86.5z"/>
		<path class="st1" d="M206.3,268.4c0-0.1,0-0.1-0.1-0.2l-1.5-1.5c-0.1-0.1-0.2-0.1-0.3,0l-4.3,2.3c0,0-0.2,0.1-0.3,0.2
			c0.1-0.2,0.2-0.4,0.2-0.4l2.6-4.1c0,0,0-0.1,0-0.1c0-0.1,0-0.1-0.1-0.1l-1.5-1.6c-0.1-0.1-0.2-0.1-0.3,0c0,0-4.3,2.6-4.4,2.6
			c0.1-0.1,0.2-0.3,0.2-0.3c0,0,2.5-4.2,2.5-4.2c0,0,0-0.1,0-0.1c0-0.1,0-0.1-0.1-0.1l-1.5-1.6c-0.1-0.1-0.1-0.1-0.2-0.1
			c-0.1,0-0.1,0-0.2,0.1l-3.9,7.7c0,0.1,0,0.2,0,0.2l1.3,1.4c0.1,0.1,0.2,0.1,0.3,0l4.3-2.5c0,0,0.3-0.2,0.6-0.3
			c-0.2,0.3-0.4,0.5-0.4,0.5c0,0-2.6,4.2-2.6,4.2c0,0,0,0.1,0,0.1c0,0,0,0.1,0.1,0.1l1.4,1.4c0.1,0.1,0.2,0.1,0.2,0l7.8-3.7
			C206.3,268.5,206.3,268.4,206.3,268.4L206.3,268.4z M217.7,279.8c0.1,0,0.1,0,0.1-0.1l0.9-1.1c0.1-0.1,0.1-0.2,0-0.3l-6.3-4.9
			c-0.1-0.1-0.2-0.1-0.3,0l-0.9,1.1c0,0,0,0.1,0,0.1c0,0,0,0,0,0c0,0.1,0,0.1,0.1,0.1c0,0,1.9,1.5,2.2,1.7c-0.2,0.3-4,5.1-4,5.1
			c0,0-0.1,0.1-0.1,0.1v0c0,0.1,0,0.1,0.1,0.1l1.6,1.3c0.1,0.1,0.2,0.1,0.3,0c0,0,3.8-4.8,4-5.1c0.3,0.2,2.2,1.7,2.2,1.7
			C217.6,279.8,217.6,279.8,217.7,279.8L217.7,279.8z M210,271.4l-1.5-1.4c0,0-0.1,0-0.2,0s-0.1,0-0.2,0.1l-5.4,6.1
			c-0.1,0.1-0.1,0.2,0,0.3l1.5,1.4c0,0,0.1,0.1,0.2,0.1c0.1,0,0.1,0,0.1-0.1l5.4-6.1C210.1,271.6,210.1,271.5,210,271.4L210,271.4z
			 M377.7,277.8c-0.1-0.1-0.2-0.1-0.3,0c0,0-3.4,2.7-3.7,2.9c-0.3-0.3-4.1-5.1-4.1-5.1c0-0.1-0.1-0.1-0.1-0.1c-0.1,0-0.1,0-0.2,0.1
			l-1.6,1.3c-0.1,0.1-0.1,0.2,0,0.3l5.1,6.4c0.1,0.1,0.2,0.1,0.3,0l5.5-4.4c0,0,0.1-0.1,0.1-0.1c0-0.1,0-0.1,0-0.2L377.7,277.8
			L377.7,277.8z M368.4,281.8c-0.9-1.3-2-2-3.3-2.1c-1-0.1-2.1,0.2-3.4,1.1c-1.2,0.8-2,1.7-2.3,2.7c-0.4,1.2-0.2,2.5,0.7,3.8
			c0.8,1.3,2,2,3.3,2c1,0.1,2.1-0.2,3.4-1c1.2-0.8,2-1.7,2.2-2.7c0.1-0.4,0.2-0.8,0.2-1.2C369.2,283.5,368.9,282.7,368.4,281.8
			L368.4,281.8z M385.3,270.9c-0.1-0.1-0.2-0.1-0.3,0c0,0-3.5,3.2-3.8,3.5c-0.2-0.2-0.9-1-1.1-1.2c0.3-0.3,3.3-3,3.3-3
			c0,0,0.1-0.1,0.1-0.2c0-0.1,0-0.1-0.1-0.2l-0.9-1c0,0-0.1-0.1-0.2-0.1c-0.1,0-0.1,0-0.2,0.1c0,0-3,2.8-3.3,3
			c-0.2-0.2-0.7-0.7-0.9-0.9c0.3-0.3,3.6-3.3,3.6-3.3c0,0,0.1-0.1,0.1-0.2c0,0,0,0,0,0c0,0,0-0.1-0.1-0.2l-1-1.1
			c-0.1-0.1-0.2-0.1-0.3,0L375,271c-0.1,0.1-0.1,0.2,0,0.3l5.6,6c0.1,0.1,0.2,0.1,0.3,0l5.4-5c0.1,0,0.1-0.1,0.1-0.2
			c0-0.1,0-0.1-0.1-0.2L385.3,270.9L385.3,270.9z M366.8,285.2c-0.1,0.6-0.5,1.1-1.1,1.6c-0.6,0.4-1.3,0.6-1.9,0.4
			c-0.6-0.1-1.2-0.6-1.6-1.3c-0.5-0.7-0.7-1.4-0.5-2c0.1-0.6,0.5-1.1,1.1-1.6c0.6-0.4,1.3-0.6,1.9-0.4c0.6,0.1,1.2,0.6,1.6,1.3
			c0.4,0.6,0.6,1.1,0.6,1.6C366.9,285,366.8,285.1,366.8,285.2L366.8,285.2z M226.1,283.3c0,0-0.1,0-0.2,0c-0.1,0-0.1,0-0.1,0.1
			c0,0-1.4,2.1-1.6,2.4c-0.3-0.2-2.6-1.7-2.9-1.9c0.2-0.3,1.6-2.4,1.6-2.4c0,0,0-0.1,0-0.1c0-0.1,0-0.1-0.1-0.2l-1.7-1.1
			c0,0-0.1,0-0.2,0c-0.1,0-0.1,0-0.1,0.1l-4.4,6.9c0,0.1,0,0.1,0,0.2c0,0.1,0.1,0.1,0.1,0.1l1.7,1.1c0.1,0.1,0.2,0,0.3-0.1
			c0,0,1.7-2.6,1.9-2.9c0.3,0.2,2.6,1.7,2.9,1.9c-0.2,0.3-1.9,2.9-1.9,2.9c0,0,0,0.1,0,0.1c0,0.1,0,0.1,0.1,0.2l1.7,1.1
			c0,0,0.1,0,0.2,0c0.1,0,0.1-0.1,0.1-0.1l4.4-6.9c0.1-0.1,0-0.2-0.1-0.3L226.1,283.3L226.1,283.3z M369,285.6L369,285.6
			C369,285.6,369,285.6,369,285.6C369,285.6,369,285.6,369,285.6L369,285.6z M357.6,288.7l-1.9,0.3l-1.7,0.5l-1.3,0.3
			c-0.4,0-0.5-0.1-0.5-0.2c-0.1-0.2-0.1-0.4,0.1-0.7l0.9-0.8l1.1-0.4c0.4,0,0.8,0.1,1,0.4c0.1,0.1,0.2,0.1,0.3,0.1l1.7-0.9
			c0.1,0,0.1-0.1,0.1-0.1c0-0.1,0-0.1,0-0.2c-0.5-0.8-1.2-1.2-2.2-1.3c-0.9,0-1.9,0.2-2.8,0.7c-1.2,0.6-1.9,1.4-2.3,2.1
			c-0.4,0.8-0.4,1.6,0,2.3c0.4,0.8,1.1,1.2,1.9,1.2l2.3-0.5l1-0.4l1.3-0.3c0.3,0,0.4,0.1,0.5,0.2c0.1,0.2,0.2,0.5-0.3,1l-0.9,0.7
			c-0.7,0.4-1.2,0.5-1.6,0.4l-0.6-0.5c-0.1-0.1-0.2-0.1-0.3-0.1l-1.7,1c-0.1,0.1-0.1,0.2-0.1,0.3c0.4,0.8,1.2,1.3,2.1,1.3
			c0.9,0.1,2-0.2,3.1-0.9c1.2-0.6,1.9-1.4,2.3-2.2c0.4-0.8,0.4-1.6,0-2.3C358.9,289.1,358.3,288.7,357.6,288.7L357.6,288.7z
			 M392.2,262.1c-0.6-0.5-1.3-0.7-2-0.5l-1.7,0.9l-1.4,1.1l-1.1,0.7c-0.3,0.1-0.5,0-0.6-0.1c-0.1-0.1-0.2-0.3-0.2-0.7l0.6-1l0.9-0.7
			c0.4-0.2,0.8-0.2,1.1,0.1c0.1,0.1,0.2,0.1,0.3,0l1.3-1.5c0,0,0.1-0.1,0.1-0.2c0-0.1,0-0.1-0.1-0.2c-0.7-0.6-1.5-0.8-2.5-0.5
			c-0.9,0.3-1.7,0.8-2.4,1.6c-0.9,1-1.4,1.9-1.5,2.7c-0.1,0.9,0.2,1.6,0.8,2.1c0.7,0.6,1.4,0.8,2.2,0.5l2-1.2l0.9-0.7l1.2-0.7
			c0.3-0.1,0.4,0,0.5,0.1c0.2,0.2,0.4,0.4,0.1,1L390,266c-0.5,0.6-1,0.9-1.4,0.9l-0.7-0.2c-0.1,0-0.2,0-0.3,0l-1.3,1.5
			c0,0-0.1,0.1-0.1,0.2c0,0,0,0.1,0.1,0.1c0.7,0.6,1.5,0.8,2.4,0.6c0.9-0.2,1.8-0.9,2.7-1.8c0.9-1,1.4-1.9,1.5-2.8
			C393,263.4,392.8,262.7,392.2,262.1L392.2,262.1z"/>
		<path class="st3" d="M233.6,300.6c-0.6-0.2-1.4-0.2,1.3-7.2c3.6-9.2,4.6-8.4,5-8.2l5.9,2.5c4,1.7,4,3.5,3.6,4.7
			c-0.8,2.1-3.9,2.2-4.1,2.7c-0.3,0.7,2.8,3.7,1.6,6.9c-0.7,1.8-2.7,3-6.5,1.5L233.6,300.6L233.6,300.6z M239.4,295.3
			c-0.7,0-1.1,0-1.4,0.6c-1.1,2.8-0.4,3.6,1.5,4.3c1.6,0.7,3.5,0.9,4.1-0.6c0.5-1.3-0.8-4-1.4-4.3c-0.3-0.1-0.8-0.1-1.1-0.1
			L239.4,295.3L239.4,295.3z M243.1,292.7c0.8-0.1,2.1-0.6,2.4-1.4c0.4-0.9-0.5-1.5-1.4-1.9c-2.3-0.9-3.6-0.6-4.7,2.3
			c-0.1,0.4-0.4,0.8,0.3,1.1c0.3,0.1,0.9,0.2,1.4,0.1L243.1,292.7L243.1,292.7z M250.8,299.7c0.8-3.1,3.5-6,7.6-4.8
			c4.1,1.1,5.1,5,4.3,8.1c-1.2,4.6-4.9,5.6-7.7,4.9C252.4,307.2,249.6,304.3,250.8,299.7L250.8,299.7z M259.9,301.7
			c0.4-1.5,0.3-3.9-2-4.5c-2.4-0.7-3.6,1.3-4,2.9c-0.4,1.6-0.4,3.9,2,4.6C258.3,305.3,259.5,303.3,259.9,301.7L259.9,301.7z
			 M276.8,298.9c1,0.2,0.4,4.3,0.1,6.2c-1.1,7.3-1.7,6.9-3.4,6.6c-2.5-0.4-0.4-1.2-1.8-1.4c-0.2,0-0.8,0.3-1.3,0.5
			c-0.5,0.2-1.1,0.3-1.9,0.2c-2-0.3-3.7-1.7-2.9-7.3c0-0.3,1.1-6.3,2.1-6.1l2.2,0.4c0.3,0.1,1,0.1,0.9,0.5c-0.1,0.3-1.5,2.1-2,5.9
			c-0.2,1.1-0.6,4.1,1.5,4.5c0.8,0.1,2.7,0.2,3.3-4.1c0.4-2.4,0-5.6,0-5.9c0-0.3,0.6-0.2,0.9-0.1L276.8,298.9L276.8,298.9z
			 M288.2,312.5c-0.3,0-0.9,0-0.8-0.4c0-0.2,1.4-2.8,1.5-6.9c0.1-1.4,0-3.2-1.7-3.3c-0.9,0-2.9,0.4-3,4.4c-0.1,2.4,0.5,5.5,0.5,5.8
			c0,0.3-0.4,0.2-0.7,0.2l-2.1-0.1c-0.9,0-1.3,0.3-1.1-5c0.3-9.1,1.2-8.5,3.1-8.4c0.9,0,1.8,0,1.7,0.4c0,0.2-0.2,0.4-0.2,0.7
			c0,0.2,0.1,0.4,0.4,0.4c0.4,0,1.6-0.8,3.2-0.7c0.7,0,3.5,0.2,3.3,5.5c-0.3,7.9-1,7.5-1.9,7.4L288.2,312.5L288.2,312.5z
			 M295.3,306.8c-0.2-3.5,1.7-7.5,6.5-7.9c2.1-0.2,3.7,0.7,3.8,1.8c0,0.6-0.4,1.8-1.3,1.9c-0.6,0-0.6-1.5-2.5-1.3
			c-2.5,0.2-3.3,3-3.2,4.6c0.1,2,1.4,3.5,3.7,3.3c2.6-0.2,3.1-2.2,3.3-2.2c0.1,0,0.4,0.3,0.4,1.2c0.2,2.4-1.7,4-4.6,4.2
			C297.4,312.8,295.5,309.8,295.3,306.8L295.3,306.8z M308,295.7c-0.1-0.8,0.7-1.5,1.7-1.7c1-0.1,1.9,0.2,2.1,1.1
			c0.1,0.9-0.7,1.5-1.7,1.6C309.1,296.9,308.1,296.6,308,295.7L308,295.7z M312.9,310.9c0.6-0.1,1.3-0.1,1.2-0.7
			c0-0.2-1.4-3.1-2.1-8.1c-0.3-2.2-0.1-2.9-0.2-3.7c0-0.2-0.1-0.3-1.1-0.1l-1.3,0.2c-0.8,0.1-1.3-0.5-0.3,6.3c1,7,1,6.6,2.2,6.4
			L312.9,310.9L312.9,310.9z M325.5,308.3c-0.3,0.1-0.8,0.3-0.9-0.1c-0.1-0.2,0.6-3.1-0.3-7.1c-0.3-1.4-0.8-3.1-2.5-2.7
			c-0.9,0.2-2.7,1.2-1.8,5c0.5,2.3,1.9,5.2,2,5.4c0.1,0.3-0.3,0.4-0.6,0.4l-2,0.5c-0.9,0.2-1.2,0.6-2.3-4.5c-2-8.9-1-8.5,0.8-9
			c0.8-0.2,1.7-0.5,1.8-0.1c0.1,0.2-0.1,0.5,0,0.8c0,0.2,0.2,0.3,0.4,0.3c0.4-0.1,1.3-1.2,2.9-1.5c0.7-0.2,3.5-0.8,4.6,4.4
			c1.7,7.7,0.9,7.5,0.1,7.7L325.5,308.3L325.5,308.3z M344.5,300.7c-1.1-2-4.1-3.6-7.8-1.7c-1.1,0.5-1.5,1.3-2,1.4
			c-0.3,0-0.6-0.1-0.6-0.4c-0.2-0.6,1.1-1.8,2.4-2.2c3.5-1.3,4.3-3.9,3.6-5.9c-0.7-2-2-2-2.2-2.6c-0.3-1,2-1.2,1.8-1.8
			c-0.1-0.3-1.8-1.2-2.5-0.9c-0.9,0.3-1,2.3-2,2.7c-0.1,0-0.7,0.1-1.5,0.4c-3.1,1.1-4.5,3.3-3.6,5.8c0.7,2,2.7,2.3,2.8,2.7
			c0.2,0.5-2.4,1.7-1.6,3.9c0.3,1,1.2,1.4,2.2,1.5c-0.2,0.8-0.3,1.8,0.4,2.9c1.3,2.2,4.6,2.4,7.7,1c1.5-0.7,2.8-1.8,3.3-3.2
			C345,303.7,345.4,302.2,344.5,300.7L344.5,300.7z M332.8,294.2c-0.4-1.2,0.3-2.3,1.6-2.8c1.3-0.5,2.5-0.1,2.9,1.1
			c0.4,1.2-0.3,2.3-1.6,2.8C334.3,295.8,333.1,295.3,332.8,294.2L332.8,294.2z M340.1,305.3c-1.6,0.8-3.3,0.6-4.1-0.8
			c-0.7-1.3-0.1-2.8,1.6-3.6c1.6-0.8,3.3-0.6,4.1,0.8C342.5,303.1,341.7,304.5,340.1,305.3L340.1,305.3z"/>
		<path class="st2" d="M62.9,29.6v39.6c-0.3,10.6-17.2,8.7-17.2,8.7v-57C45.7,20.9,62.6,19,62.9,29.6L62.9,29.6z M338.4,182.8
			c-15.8,2.5-31.6,4.3-47.3,5.3l0.6,4.8c15.7-1,31.5-2.9,47.3-5.4L338.4,182.8L338.4,182.8z M340,196.6l0.5,4.3
			c-7.9,1.8-35.6,4.8-47.1,5.5l-0.5-4.4C308.5,201,324.3,199.1,340,196.6L340,196.6z M339.8,194.5c-15.7,2.5-31.5,4.4-47.2,5.4
			l-0.6-4.8c15.7-1,31.5-2.9,47.3-5.4L339.8,194.5L339.8,194.5z M338.2,180.7c-15.8,2.5-31.6,4.3-47.4,5.4l-0.6-4.7
			c0,0,8.6-1.7,8.1-9.3c-0.1-1.1-1.7-13.1-1.9-14.9c-0.9-5.7-7.6-3.9-7.6-3.9s-2.7-21.5-2.5-21.5c1.8-0.2,6.9-0.8,6.2-6.4
			c-0.6-4.9-2.2-16.3-2.2-16.3l29.7-3.5c0,0,1.3,11.4,1.9,16.3c0.7,5.6,5.7,4.7,7.5,4.5c0.2,0,2.8,21.5,2.8,21.5s-6.9,0.1-6.4,5.8
			c0.2,1.9,1.6,13.8,1.8,15c1.3,7.5,10,6.9,10,6.9L338.2,180.7L338.2,180.7z M78.3,98.7H0.9V77.2c0,0,13,0,13.6-10.9V32.4
			C13.9,21.6,0.9,21.5,0.9,21.5V0h77.4c0,0,15.4,0.1,15.9,16.2v66.4C93.7,98.6,78.3,98.7,78.3,98.7L78.3,98.7z M62.9,29.6
			c-0.3-10.5-17.2-8.7-17.2-8.7v57c0,0,17,1.9,17.2-8.7V29.6L62.9,29.6z M98.9,81.4l0,16.4H125l0-15.9c0,0-3.5-0.2-3.5-3.8l0-9.7
			c0.1-7.6,7.8-7.8,7.8,0.4l0.1,2.9l14.6,0c0,0,0-3.1,0-6.9c0.1-17.3-15.3-18.6-23.7-9.8v-5.3H98.9v13c0,0,3.5,0.2,3.5,3.8l0,11.3
			C102.4,81.3,98.9,81.4,98.9,81.4L98.9,81.4z M130.8,97.8h14V82l-14,0V97.8L130.8,97.8z M45.7,20.9v57c0,0,17,1.9,17.2-8.7V29.6
			C62.6,19,45.7,20.9,45.7,20.9L45.7,20.9z M201.5,189.4l-73.9,0.3c0.7,1.7,1.6,3.3,2.6,4.9c25.1-0.1,50-0.2,71.3-0.3L201.5,189.4
			L201.5,189.4z M201.5,203.4l0,4.7H168v-4.5L201.5,203.4L201.5,203.4z M201.5,201.3c-10.4,0-21.7,0.1-33.5,0.2v-1.6
			c-0.3,0.6-0.7,1.1-1.1,1.6c-9.9,0-20.2,0.1-30.5,0.1c-1.7-1.4-3.3-3.1-4.6-4.8l69.8-0.3L201.5,201.3L201.5,201.3z M139.3,203.7
			l25.2-0.1c-5.3,3.7-14.6,5.1-21.6,2C141.6,205,140.5,204.4,139.3,203.7L139.3,203.7z M196.1,176.7l0-43.9l-28.1,0.1v8.3
			c-3.1-6.3-16-9.8-25.1-5.8c-13.7,6-19,21-18.9,35.1c0,5.8,0.9,11.7,2.9,17.1c26.3-0.1,52.5-0.2,74.7-0.3l0-4.7
			C201.5,182.6,196.1,182.3,196.1,176.7L196.1,176.7z M161.9,182.6c-4.6,0-8.4-6.9-8.4-15.4c0-8.5,3.7-15.4,8.4-15.4
			c4.6,0,8.4,6.9,8.4,15.4C170.3,175.7,166.6,182.6,161.9,182.6L161.9,182.6z M118.5,182.3c0,0-13.9,0.2-14.1-8.5
			c-0.2-8.8-0.3-28.6-0.1-35.3c0.3-11.5,13.5-11,13.5-11v-20.7H77.7l-18.5,34.1l-18.5-34.1H0.7v20.7c0,0,13.7-0.5,14,11
			c0.2,6.6,0.1,26.5-0.1,35.3c-0.2,8.8-14.6,8.5-14.6,8.5l0,5.9c10.2-0.1,28.6-0.1,50.9-0.2v-5.1c0,0-6.8-0.2-6.8-6v-12.3l15.1,19.1
			l15.1-19.1v12.3c0,5.9-6.8,6-6.8,6v5.1c16-0.1,33.4-0.1,50.9-0.2L118.5,182.3L118.5,182.3z M0,204.4l51-0.2v4.8H0L0,204.4L0,204.4
			z M0,190.4l50.9-0.2v4.9c-22.4,0.1-40.7,0.2-51,0.2L0,190.4L0,190.4z M0,197.3l51-0.2v4.9c-22.4,0.1-40.7,0.2-51,0.2L0,197.3
			L0,197.3z M118.5,194.7c-17.6,0.1-34.9,0.2-51,0.2V190l51-0.2L118.5,194.7L118.5,194.7z M118.5,203.8l0,5h-51V204L118.5,203.8
			L118.5,203.8z M118.5,201.7c-17.6,0.1-35,0.1-51,0.2V197l51-0.2L118.5,201.7L118.5,201.7z M251.8,189.2l-40.7,0.2l0,4.9
			c17.6-0.1,31.9-0.1,40.7-0.2L251.8,189.2L251.8,189.2z M251.9,201.1c-8.8,0-23.2,0.1-40.8,0.2l0-4.9l40.7-0.2L251.9,201.1
			L251.9,201.1z M251.9,203.2l0,4.8h-40.8l0-4.6L251.9,203.2L251.9,203.2z M251.8,187.1c-8.8,0-23.2,0.1-40.7,0.2l0-4.8
			c0,0,5.5-0.2,5.5-5.9l0-17.6c0-5.7-5.5-5.9-5.5-5.9v-20.3h33.5v8.3c13-13.7,36.9-11.7,36.8,15.3c0,6-0.1,10.8-0.1,10.8l-22.7,0
			l-0.1-4.5c0-12.9-12.1-12.5-12.2-0.7l0,15.1c0,5.7,5.5,5.9,5.5,5.9L251.8,187.1L251.8,187.1z M571.4,97.5
			c-0.1-0.3-0.2-0.5-0.3-0.7c-17.6,11-37.1,21.6-58.1,31.5l2.1,4c20.5-9.8,39.6-20.3,56.8-31.1C571.9,99.9,571.7,98.7,571.4,97.5
			L571.4,97.5z M571.2,108.8c-16.2,10.1-34,20-53.1,29.2l-2-3.7c20.1-9.6,38.9-19.9,55.9-30.5c0,0.1,0,0.2,0,0.4
			C571.9,105.6,571.7,107.2,571.2,108.8L571.2,108.8z M533.8,115.7c-7.1,3.7-14.3,7.3-21.7,10.8l-2.6-4.9c0,0,17.6-9.2,20.7-10.9
			c0.5,0.5,1.5,3.3,2.9,4.5C533.3,115.3,533.6,115.5,533.8,115.7L533.8,115.7z M570.3,94.8c-8.4,5.2-17.1,10.4-26.3,15.4
			c0-0.6-0.2-1.3-0.6-2.1c-2-3.6-4.4-4.5-19.2,0.4c-4.3,1.4-17.9,4.8-26.7-4.3c-1.9-2-3.8-5.2-4.7-7.3c-6-13.4,4.9-24.6,12-28.8
			c3.2-1.9,35-18.3,35-18.3l11,20.6c0,0-19.2,10-22.3,11.7c-0.6-0.7-1.4-2.7-2.8-3.2c-3.2-1.1-9.6,2.6-9.5,5.6
			c0,1.1,0.7,2.6,1.1,2.9c1.3,1,3.8,1.7,12-1.4C558.9,75,566.9,86.8,570.3,94.8L570.3,94.8z M570,112c-0.1,0.2-0.1,0.3-0.2,0.5
			c-2.3,4.7-6.4,9.3-13.1,13c-3.3,1.8-28.3,15.1-35.2,18.6l-2.3-4.4C537.4,131,554.4,121.7,570,112L570,112z M430.2,172.8
			c13.1-4.2,25.9-8.7,38.5-13.5l-1.6-4.1c-12.6,4.8-25.5,9.3-38.6,13.4L430.2,172.8L430.2,172.8z M507.6,142.9
			c-10.5,4.8-21.4,9.5-32.5,13.9l-1.6-4.1c11.2-4.4,22.1-9,32.6-13.8L507.6,142.9L507.6,142.9z M508.3,144.9l1.5,3.9
			c-5.6,2.9-26.9,11.8-32.5,14.1l-1.6-4.1C487,154.4,497.8,149.8,508.3,144.9L508.3,144.9z M426,162.2c13.1-4.1,26.1-8.6,38.7-13.3
			l1.7,4.4c-12.6,4.8-25.5,9.3-38.6,13.4L426,162.2L426,162.2z M502.8,130.7c-10.6,4.8-21.5,9.4-32.7,13.8l-9.9-25.1
			c-4-10.6-15.8-6.8-11.4,4.4c1.8,4.7,3.8,9.7,5.5,14.1c1.9,5.1,7.4,3.5,7.4,3.5l2.1,5.6c-12.6,4.8-25.6,9.3-38.7,13.3l-1.7-4.3
			c0,0,4.6-3.1,2.9-8c-1.5-4-4.4-11.5-6.1-15.8c-2.4-6.2-7.5-4.2-7.5-4.2l-7.3-18.9L436.7,97c0,0,3,7.5,3,7.7
			c2.8-6.1,11.5-13.4,19.8-15.4c18.9-4.6,24,9,34.1,32.9c2.3,5.5,7.1,3,7.1,3L502.8,130.7L502.8,130.7z M505.3,137
			c-10.6,4.8-21.5,9.4-32.6,13.8l-1.7-4.3c11.2-4.4,22.1-9,32.7-13.8L505.3,137L505.3,137z M431,174.8c13.1-4.2,25.9-8.7,38.5-13.5
			l1.5,4c-3.6,1.4-34.7,12.8-38.2,13.9L431,174.8L431,174.8z M377.6,173c-9.8,2.2-19.8,4.3-29.7,6c-0.1-0.4-0.3-0.8-0.4-1.1
			c-1.3-3.9-5-17.2-6.4-25.6c-6.4-38.2,57.8-46.6,64.5-20.8l5.3,19.4l-37.8,9.7l2.6,9.9l0.2,0C376.2,171.7,376.8,172.5,377.6,173
			L377.6,173z M370.8,151.3l12.2-3.1c0,0-1.6-6.8-2.3-9c-2.2-6.4-13.3-3.6-12,2.9C369.1,144.7,370.8,151.3,370.8,151.3L370.8,151.3z
			 M412.5,158.8l-25.2,6.3l1.4,5.4c8.4-2.1,16.8-4.4,25.1-6.8L412.5,158.8L412.5,158.8z M415.9,172.4c-20.8,6.1-42.1,11.2-63.5,15.1
			c1.2,1.5,2.7,2.8,4.6,3.9c0,0,0.1,0,0.1,0.1c20.2-3.9,40.3-8.8,59.9-14.6L415.9,172.4L415.9,172.4z M414.2,165.7
			c-21.5,6.3-43.5,11.5-65.6,15.4c0,0,0,0,0,0c0.6,1.4,1.4,2.9,2.3,4.4c0,0,0,0,0,0c21.7-3.9,43.3-9.1,64.4-15.2L414.2,165.7
			L414.2,165.7z M360.1,193.1c2.6,1.3,6.8,2.8,13.7,1.6c10.1-1.7,34.3-7.9,45-11.1l-1.2-4.7C398.8,184.5,379.5,189.3,360.1,193.1
			L360.1,193.1z"/>
		<path class="st1" d="M503.6,132.7c-10.6,4.8-21.5,9.4-32.7,13.8l-0.8-2c11.2-4.4,22.1-9,32.7-13.8L503.6,132.7L503.6,132.7z
			 M0,190.4l50.9-0.2V188c-22.4,0.1-40.7,0.2-50.9,0.2L0,190.4L0,190.4z M201.5,187.3c-22.2,0.1-48.5,0.2-74.7,0.3
			c0.3,0.7,0.5,1.4,0.8,2.1l73.9-0.3V187.3L201.5,187.3z M571,96.4c-0.1-0.3-0.2-0.6-0.3-0.9c-0.1-0.2-0.2-0.5-0.3-0.7
			c-8.4,5.2-17.1,10.4-26.3,15.4c0,0.7-0.1,1.3-0.5,1.7c0,0-0.1,0.1-0.1,0.1c-1.1,1.2-5,3.7-7.5,4c-0.7,0.1-1.3,0.1-1.8-0.1
			c-0.1,0-0.2-0.1-0.3-0.2c-7.1,3.7-14.3,7.3-21.7,10.8l1,1.9c20.9-9.9,40.4-20.5,58.1-31.5C571.1,96.7,571,96.5,571,96.4L571,96.4z
			 M118.5,187.7c-17.6,0.1-34.9,0.2-50.9,0.2v2.1l51-0.2L118.5,187.7L118.5,187.7z M426,162.2c13.1-4.1,26.1-8.6,38.7-13.3l-0.8-2
			c-12.6,4.8-25.6,9.3-38.7,13.3L426,162.2L426,162.2z M413.7,163.7c-8.3,2.4-16.7,4.7-25.1,6.8l0.5,2l-6.8,1.8
			c-1.7,0.2-3.4-0.1-4.7-1.1c-9.8,2.3-19.8,4.3-29.7,6c0,0,0,0,0,0c0.2,0.6,0.5,1.3,0.8,2c22.1-3.9,44.1-9.1,65.6-15.4L413.7,163.7
			L413.7,163.7z M251.8,187.1c-8.8,0-23.2,0.1-40.7,0.2l0,2.1l40.7-0.2L251.8,187.1L251.8,187.1z M338.2,180.7
			c-15.8,2.5-31.6,4.3-47.4,5.3l0.3,2.1c15.7-1,31.5-2.8,47.3-5.3L338.2,180.7L338.2,180.7z M118.5,194.7c-17.6,0.1-34.9,0.2-51,0.2
			v2.1l51-0.2L118.5,194.7L118.5,194.7z M415.4,170.3c-21.1,6.2-42.7,11.3-64.4,15.2c0.4,0.6,0.9,1.2,1.4,1.9c0,0,0,0,0.1,0
			c21.4-3.9,42.7-9,63.5-15.1L415.4,170.3L415.4,170.3z M339,187.6c-15.8,2.5-31.6,4.3-47.3,5.4l0.3,2.1c15.7-1,31.5-2.9,47.3-5.4
			L339,187.6L339,187.6z M251.9,194.1c-8.8,0-23.2,0.1-40.7,0.2v2.1l40.7-0.2V194.1L251.9,194.1z M572,101.6c0-0.1,0-0.2,0-0.3
			c-17.2,10.8-36.3,21.3-56.8,31.1l1,1.9c20.1-9.6,38.9-19.9,55.9-30.5C572.1,103,572.1,102.3,572,101.6L572,101.6z M0,197.3l51-0.2
			V195c-22.4,0.1-40.7,0.2-51,0.2L0,197.3L0,197.3z M505.3,137c-10.6,4.8-21.5,9.4-32.6,13.8l0.8,2c11.2-4.4,22.1-9,32.6-13.8
			L505.3,137L505.3,137z M201.5,194.3c-21.3,0.1-46.2,0.2-71.2,0.3c0.5,0.7,1,1.4,1.5,2.1l69.8-0.3L201.5,194.3L201.5,194.3z
			 M428.5,168.6c13.1-4.1,26-8.6,38.6-13.4l-0.8-2c-12.6,4.8-25.5,9.3-38.6,13.4L428.5,168.6L428.5,168.6z M0,204.4l51-0.2V202
			c-22.4,0.1-40.7,0.2-51,0.2L0,204.4L0,204.4z M571.1,109.2c0-0.2,0.1-0.3,0.1-0.4c-16.2,10.1-34,20-53.1,29.2l1,1.9
			c18.2-8.8,35.3-18.2,50.9-27.8C570.5,111.1,570.8,110.1,571.1,109.2L571.1,109.2z M431,174.8c13.1-4.2,25.9-8.7,38.5-13.5l-0.8-2
			c-12.5,4.8-25.4,9.3-38.5,13.5L431,174.8L431,174.8z M417.1,176.9c-19.6,5.8-39.7,10.7-59.9,14.6c0.2,0.1,0.4,0.3,0.7,0.4
			c0.6,0.3,1.3,0.7,2.1,1.1c0,0,0.1,0,0.1,0.1c19.4-3.8,38.7-8.6,57.5-14.1L417.1,176.9L417.1,176.9z M339.8,194.5
			c-15.7,2.5-31.5,4.4-47.2,5.4l0.3,2.1c15.7-1.1,31.4-2.9,47.2-5.4L339.8,194.5L339.8,194.5z M118.5,201.7c-17.6,0.1-35,0.1-51,0.2
			v2.1l51-0.2L118.5,201.7L118.5,201.7z M251.9,201.1c-8.8,0-23.2,0.1-40.8,0.2v2.1l40.8-0.2V201.1L251.9,201.1z M507.6,142.9
			c-10.5,4.9-21.4,9.5-32.5,13.9l0.8,2c11.1-4.4,22-9.1,32.5-13.9L507.6,142.9L507.6,142.9z M139.3,203.7l25.2-0.1
			c0.9-0.7,1.7-1.4,2.4-2.2c-9.9,0.1-20.2,0.1-30.5,0.1C137.3,202.3,138.3,203.1,139.3,203.7L139.3,203.7z M201.5,201.3
			c-10.4,0-21.7,0.1-33.5,0.2v2.1l33.5-0.2L201.5,201.3L201.5,201.3z"/>
	</g>
</g>
</svg>
