<?xml version="1.0" encoding="utf-8"?>
<!-- Generator: Adobe Illustrator 19.0.0, SVG Export Plug-In . SVG Version: 6.00 Build 0)  -->
<svg version="1.1" xmlns="http://www.w3.org/2000/svg" xmlns:xlink="http://www.w3.org/1999/xlink" x="0px" y="0px"
	 viewBox="0 0 572.1 320.9" style="enable-background:new 0 0 572.1 320.9;" xml:space="preserve">
<style type="text/css">
	.st0{display:none;}
	.st1{fill:#FFFFFF;}
</style>
<g id="Siatka">
</g>
<g id="Warstwa_1" class="st0">
</g>
<g id="Pulpit" class="st0">
</g>
<g id="Prowadnice" class="st0">
</g>
<g id="Page_1">
	<g id="Warstwa_1_1_">
		<g>
			<path class="st1" d="M264.6,269.2C264.6,269.2,264.6,269.2,264.6,269.2C264.6,269.2,264.6,269.2,264.6,269.2
				C264.6,269.2,264.6,269.2,264.6,269.2z"/>
			<path class="st1" d="M207,246.7c1.5,2,3.7,2.7,4.7,4.7c16.1,15.4,35.7,24.2,56.6,28.9c3.2,0,6,2.3,9.1,1c3.2,2.3,8,0.5,11.4,1.9
				c1.7-0.7,3.5-0.4,5.4,0c2.8-1.1,6.5,0.3,9.1-1c5.8-0.6,11.7-1.2,17.1-2.7c4.6-0.9,8.9-2.2,13.2-3.5c2.4-1.5,5.4-1.7,7.6-3.5
				c10.4-4.4,20.4-10.8,29.1-18.5c2.6-2.4,5.9-5.1,7.9-8.2c8.1-7.7,14-17.5,19.3-27.1c1.3-5.1,4.4-9.6,5.3-14.9
				c0.2-1.3,1.3-4-1.5-2.5c0,0,0,0,0,0c-1.1-0.3-2.7-1.4-1.5-2.7c-0.2-1.6-2.1-2.3-2.8-0.7c-1.3,2.9,3,1.4,2.1,4
				c-0.2,1.1-1.5,1.8-2.6,1.8c-2.4-0.3-0.4-2.5-1.7-3.4c-0.9-0.9-2.2-0.7-2.8,0.2c-1.7,2.4,2.1,1.8,1.7,4c0,0.7-0.7,1.6-1.5,1.3
				c-0.9-0.2-1.7-1.4-1.3-2.5c-0.6-0.9-1.5-1.1-2.4-1.1c-1.1,0.4-2,1.5-2.2,2.4c-0.7,0.7-1.5,0.2-2.2,0c-2.8,0.2-2.4,4.9-5.7,2.9
				c-0.9,0.7-1.1,1.6-1.7,2.2c-1.1,1.1-2.6,0.2-3.9,0c-0.2-0.7,0.9-1.1,0.5-2c-0.4-0.7-0.9-1.3-1.7-1.4c-0.6,0.4-1.3,1.1-1.1,2.2
				c0.4,0.9,1.5,1.1,2.4,1.1c-0.2,1.1-0.2,2.2-1.3,2.9c-2.6,0.9-2.4-1.8-3.2-3.2c-2.1-1.8-2.6,1.8-3.9,2.4c-4.1-2.7-3.1,4.4-6.9,2.4
				c-2.2-0.2-1.6,3.3-3.9,2.9c-0.9-0.4-2.6-1.1-1.7-2.5c-0.2-0.7-0.8-1.6-1.7-1.6c-3.7,1.7,1.7,2.7,1,5.2c-0.4,0.9-1.5,1.3-2.4,1.3
				c-1.3-0.5-1.7-1.8-1.3-2.9c-0.6-0.7-1.3-1.1-2.4-1.1c-0.4,0.4-1.3,0.9-1.3,1.8c-0.5,1.6-2,0.9-3,0.6c-0.6,0-1.5,0.7-1.7,1.3
				c-0.2,1.1-1.5,1.8-2.6,1.5c-3.2,0.2,0-2.9-2.1-3.8c-0.6-0.9-1.7-0.2-2.2,0.4c-1.5,3.1,3.7,1.4,2.1,4.5c-0.4,0.9-1.3,1.5-2.4,1.3
				c-1.1-0.2-1.7-1.6-1.3-2.7c-0.4-0.7-1.1-1.6-2.1-1.4c-1.5,0.4-1.5,2.2-2.4,3.1c-3.2-2.9-3.3,2.7-6.1,2.2c-1.3,0-2.8-1.1-1.7-2.5
				c-0.2-0.9-1.1-1.6-1.9-1.6c-3.9,2.4,2.1,2.7,1,4.9c-0.2,0.9-1.1,2-2.4,1.5c-1.3-0.2-1.3-1.8-1.1-2.9c-0.6-0.9-1.5-1.1-2.4-1.1
				c-1.1,0.2-1.5,1.6-2,2.4c-1.1,0.7-2.6-0.2-3.7,0c-0.7,1.1-1.3,2.9-2.8,2.7c-1.3-0.5-1.5-1.8-1.5-3.1c-0.6-0.7-1.3-1.4-2.4-1.1
				c-1.1,0.7-1.3,1.8-2,2.7c-1.5,0.4-2.8,0-3.9-0.9c0.4-1.1,0.9-2.4-0.4-3.1c-0.6-0.5-1.5-0.2-2,0.7c-1.7,2.7,3,1.6,2.1,4.3
				c-0.4,0.9-1.3,1.8-2.4,1.5c-1.1-0.7-1.5-1.8-1-2.9c-2.6-4.3-3.7,2-6.5,1.3c-0.6-0.2-1.9-0.9-1.3-2c-0.2-1.1-0.8-2.2-1.9-2.3
				c-1.3,0.2-1.5,1.5-1.8,2.7c0.6,0.7,1.7,0.7,2.4,1.4c0.4,0.9,0.2,1.8-0.7,2.5c-4.5,1.3,0-4.5-3.6-4.1c-3.2-1.8-2,3.6-5.2,2.6
				c-2.6-0.7,0-3.4-2.1-4.3c-3.2-1.6-2,3.8-5.2,2.4c-3.3,0.4-0.4-3.1-2.6-4c-0.9-0.5-1.7,0-2.2,0.7c-1.8,3.3,3.4,1.4,2.3,4.5
				c-0.2,0.9-1.3,1.3-2.2,1.3c-2.2-0.2-1.1-2.9-1.7-3.8c-3.2-2.9-2.6,2.9-5.9,2.2c-1.1-0.2-1.9-1.8-1.3-2.9
				c-2.3-4.3-3.7,1.7-6.1,1.1c-1.3-0.2-2.6-1.1-1.7-2.7c-0.2-0.9-1.1-1.6-2.1-1.6c-4.4,3.1,3,2.5,1.5,5.4c-0.4,1.1-1.5,1.8-2.6,1.5
				c-2.4-0.7-0.2-3.1-1.7-4.3c-3.4-2.3-2.4,3.3-5.2,2.4c-2.6-1.6-2.4,2-3.5,3.1c-0.9,0.2-1.5-0.2-2.4-0.3c-0.9,0.2-1.3,1.1-1.5,2
				c0.2,1.1,1.3,1.8,2.1,2c0.6,0,1.5-0.9,1.5-1.5c0-1.1,1.1-2,2.4-1.5c0.9,0.5,1.5,1.6,1.3,2.7c-0.2,1.8-2.4,1.3-3.5,1.1
				c-0.7,0.7-1.3,1.3-1.1,2.4c0.4,0.9,1.1,1.6,2.1,1.6c1.5,0,1.3-2,2.2-2.9c1.1-0.2,2.2,0,2.8,1.1c0.4,0.9,0.2,2.2-0.5,2.9
				c-0.9,0.2-1.5-0.2-2.4-0.3c-0.6,0.2-1.3,0.9-1.1,1.6c0.4,0.5,0.9,1.1,1.5,1.6c1.7,1.4,1.7-1.3,2.4-2.2c1.1,0,2.2,0,2.8,1.2
				c0.6,0.7,0,1.8,0,2.7c0.6,1.5,2.2,1,3.3,1.8c-0.1-0.1-0.1-0.2-0.1-0.3l0.1-0.5c0.2-1.1,0.4-2.7,2.1-2.7c1.7,0,2.3,1,2.3,1.9
				c0,0,0,0.1,0,0.1c0,0.2,0.1,0.4,0.1,0.6c0,0.5-0.1,0.9-0.4,1.3c-0.3,0.4-0.7,0.6-1.2,0.6l-2.1-0.4c-0.2,0-0.5-0.2-0.7-0.5
				c0.1,0.9-1.1,2,0,2.8c3.2,4.3,2.4-2.9,5.9-1.5c1.1,0.2,1.3,1.6,1.3,2.5c0,2-2.2,1.5-3.3,1.3c1.3,3.4,2.8-0.6,5.2,1.2
				c0.9,0.5,1.3,1.6,0.8,2.5c0.8,1.1,1.9,1.4,3,1.8c0.2-0.2,0.7-0.4,0.7-0.9c0.2-0.9,1.3-1.6,2.4-1.5c0.9,0.5,1.5,1.3,1.3,2.5
				c-1.5,3.1,3,1.8,4.1,3.8c0.2,3.8,2.8-0.2,4.5,0.5c1.5-0.2,1.9,1.6,2.6,2.5c1,3.4,3-0.6,4.5-0.4c2.2-0.2,2.1,2.3,3.4,3.4
				c1.7,0.7,2.6-1.8,4.3-1.3c1.7,0.2,1.9,2,2.8,3.2c1.3,0,2.2-0.2,2.8-1.1c1.5-0.2,3,0,4.1,0.9c0.2,1.1-0.7,2-0.9,2.7
				c-1.3,0.7-2.6-0.2-3.9-0.3c-0.7,0.9-1.3,2.7-2.8,2c-1.5-0.5-0.4-2.5-2.1-3.2c-2.6-1.8-2.8,2.9-5.4,1.7c-1.9-0.2-0.4-2.5-1.9-3.1
				c-2.6-2-2.8,2.4-5.4,1.5c-2.2,0-0.6-2.7-2.3-3.4c-2.6-1.8-2.4,2.4-4.8,1.5c-1.9,0-1.5-2.2-2.3-3.2c-2.4-2.5-2.8,1.8-5.2,1.1
				c-0.9-0.2-1.9-1.4-1.5-2.3c-1.3-4-4.1,0-6,0c-1.9-0.5-0.8-2.7-2.1-3.8c-2.1-2.5-3.3,1.3-5,1.5c-0.9,0-1.5-1.1-1.3-2.2
				c0.2-1.3,1.3-0.9,2.4-0.7c0.2-0.4,0.9-0.2,0.7-0.9c-1.5-2.7-2.8,1.1-5-0.3c-2.4-0.2-1.1-3.1-2.8-3.8c-1.1-0.9-2.4,0.2-2.8,1.1
				c-3,1.3-2.4-2.7-3.9-3.8c-3,0.2-1.5-3.4-3.6-4.5c-1.7-1.4-2.4,2.2-4.1,1.3c-1.9-0.5-0.2-2.7-1.5-3.6c-2.8,0.2-2.8-2.9-4.1-4.7
				c-2.8,0.2-2.1-3.1-4.3-4.1c-0.6-0.9-1.3,0.2-1.7,0.7c-0.7,0.7-1.7,0.4-2.4-0.3c-0.6-1.3,0-3.1,1.3-3.3c-1.1-2-3.5,0.9-4.5-1.6
				c0.5-2.7-1-3.4-3-4.3c-0.2-3.4-3.9-3.8-4.9-6.8c-1.1-2.2-2.2,0.9-3.7,0.2c-0.9-0.5-1.9-1.6-1.5-3.1c-0.2-0.6-0.7-0.3-1.2-0.4
				c-0.1,0-0.2,0-0.3-0.1c-0.6,0.2-0.9,0.9-0.9,1.6c2.3,6.3,6.1,12.1,9.8,18C199.7,238.8,203.4,242.5,207,246.7z M261.9,230.4
				c0.7-0.3,1.5,0,1.8,0.7c0,0,0,0.1,0,0.1c0.2,0.5,0.1,1-0.2,1.4c-0.3,0.4-0.7,0.6-1.1,0.5c-0.2,0-0.5-0.1-0.6-0.2
				c0,0-0.9-0.8-0.9-0.9C260.8,231.4,261.2,230.7,261.9,230.4z M257.8,233.7c0.5,0,0.8,0.3,1,0.8c0.1,0.2,0.1,0.7,0,0.8
				c-0.3,0.4-0.8,0.4-1.2,0.4c-0.2,0-0.4-0.1-0.5-0.2c-0.4-0.4-0.5-0.9-0.3-1.3C256.9,234.1,257.5,233.7,257.8,233.7z M253.8,228.3
				c0.5-0.5,1.3-0.6,1.9-0.4c0.6,0.2,0.9,0.7,1,1.4c0,0,0-0.1,0-0.1c0,0,0,0.1,0,0.1c0,0,0,0,0,0c0.1,0.2,0.1,0.4,0.1,0.6
				c0,0.7-0.4,1.2-0.9,1.4c-0.1,0.1-0.6,0.1-0.7,0.1l-1.6-0.4c0,0-0.4-1-0.3-0.8C253.1,229.4,253.2,228.8,253.8,228.3z M252,237.1
				c0.3-0.4,0.8-0.7,1.3-0.5c0.2,0.1,0.5,0.6,0.6,0.7c0.1,0.2,0.2,0.8,0.1,0.9c-0.3,0.4-0.8,0.4-1.2,0.4c-0.2,0-0.3-0.1-0.5-0.2
				C251.9,238,251.8,237.5,252,237.1z M250.9,231.1c0.5,0.2,0.7,0.6,0.8,1.1c0.3,0.8-0.2,1.3-0.6,1.7c-0.1,0.1-0.3,0.2-0.5,0.2
				c-0.7,0-1.3-0.2-1.5-0.6c-0.2-0.3-0.3-0.7-0.1-0.7c-0.2-0.5-0.1-1.1,0.3-1.4C249.6,231,250.3,230.9,250.9,231.1z M246.9,225.3
				c0.2-0.1,0.5,0,0.7,0c0.7,0.2,1.6,0.6,1.9,1.5v0c0-0.1,0,0.1,0,0c0,0,0,0,0,0c0,0-0.1,1.7-0.1,1.7s-1.4,1.3-1.6,1.3
				c-1.4,0-2.4-0.9-2.4-2C245.5,226.7,246,225.8,246.9,225.3z M235.3,230.9c-1.2,0-2.1-0.9-2.3-1.8c0-0.1,0.1-0.7,0.1-0.8
				c0.2-0.7,0.4-1.7,1.5-2l2.2,0.4l1,1.5c0.1,0.1,0,0,0,0.1c0,0.7-0.2,1.7-0.9,2.2C236.3,230.9,235.8,231,235.3,230.9z M238,235.6
				c-1,0-1.9-1-1.9-1.9c-0.3-1.5,0.9-1.9,1.7-2.1c0.6,0,2.1,0,2.1,1.8v0c0-0.1,0,0.1,0,0v0l-0.7,1.7L238,235.6z M241.2,240.3
				l-1.3-0.1c0,0-1-1.2-1-1.3c-0.3-1.1,0.2-2,1.3-2.3c1-0.3,1.7,0.4,2.2,0.9c0.1,0.1,0.2,0.3,0.2,0.5
				C242.5,238.6,242.5,240,241.2,240.3z M243.5,232.3c-0.6,0.2-1.6,0.1-2.1-0.4c-0.2-0.2-0.4-0.5-0.4-0.9c0-0.1,0-0.3,0.1-0.5
				c-0.1-0.3-0.1-0.6-0.1-0.6s1-0.9,1.2-1c0.6-0.2,1.3-0.1,1.7,0.2c0.4,0.3,0.6,0.7,0.6,1.2c0,0,0,0,0,0v0c0,0.1,0.1,0.2,0.1,0.3
				C244.6,231.3,244.2,231.9,243.5,232.3z M245.8,237c-0.7,0-1.3-0.4-1.7-1.3c0-0.7,0.6-1.3,1.3-1.4c0.7-0.1,1.3,0.2,1.5,0.8
				c0,0.1,0,0.1,0,0.2C246.9,235.7,246.9,236.5,245.8,237z M248.6,241.9c-0.8,0.4-1.3-0.3-1.7-0.8c-0.3-0.7,0-1.4,0.6-1.8
				c0.6-0.3,1.6-0.2,2.1,0.5c0.1,0.1,0.1,0.2,0.1,0.4C249.6,241.4,249.2,242,248.6,241.9z M250.9,247.1l-1.1-0.4
				c-0.3-0.1-0.6-0.5-0.6-0.7c0-1.3,0.5-2.1,1.3-2.4c0.5-0.2,1.1-0.1,1.5,0.2c0.4,0.3,0.6,0.7,0.6,1.2c0,0,0,0,0,0v0
				c0,0.1,0.1,0.2,0.1,0.3c0,0.5-0.2,0.9-0.5,1.2C251.8,247.1,251.3,247.2,250.9,247.1z M256.1,250.1l-0.8,1.9c0,0-1.2,0.5-1,0.5
				c-0.7,0.1-1.4,0-1.9-0.4c-0.5-0.4-0.8-1.1-0.8-1.8c0-1,0.6-1.9,1.6-2.2c1.4-0.3,2.6,0.5,2.9,1.8
				C256.1,250.1,256.1,250,256.1,250.1z M256.6,243.3c-0.1,0.1-0.3,0.3-0.7,0.3c-0.1,0-0.6,0-0.7,0c-0.5-0.4-0.6-1.2-0.3-1.8
				c0.1-0.3,0.7-0.2,1-0.2c0.3,0,0.8,0.4,0.9,0.7l0,0.1C256.8,242.5,256.7,243.1,256.6,243.3z M257,247.7c-0.1-0.6,0.1-1.2,0.6-1.6
				c0.5-0.3,1.2-0.4,1.7-0.1c0.4,0.2,0.7,0.7,0.7,1.2v0c0,1.3-0.7,1.8-1.3,1.7C257.9,249,257.3,248.6,257,247.7z M259.7,253.8
				c0,0-0.5-1.2-0.5-1.2c0-1.3,0.7-2.2,1.5-2.2l1.3,0.1l1,1.2c0,0,0,0,0,0c0,0.2,0.1,0.3,0.1,0.5c0,1-0.9,1.6-1.8,2.1L259.7,253.8z
				 M265.5,258.7c-0.4,0.4-0.9,0.6-1.8,0.4c-0.5-0.1-1.9-0.4-1.7-1.8c0-0.8,0.5-1.9,1.5-2.2c0.9-0.2,1.9,0.4,2.4,1.4
				c0,0,0,0.1,0,0.1C266.1,257.2,266,258.1,265.5,258.7z M266.2,237c-0.1,0.3-0.4,0.6-0.8,0.7c-0.3,0.1-1-0.1-1.1-0.4
				c-0.4-0.6-0.2-1-0.1-1.2c0.2-0.3,0.9-0.2,1.2-0.1C265.7,236.2,266.3,236.7,266.2,237z M267.5,230.5c-0.8,0.3-1.7-0.1-2.1-1.3
				c0-0.7,0-2,1.3-2.4c0.5,0,1.6,0,2.1,0.7c0.1,0.2,0.3,0.5,0.3,0.9c0,0.1,0,0.2,0,0.2c0,0.1,0,0.2,0,0.3c0,0.4-0.1,0.7-0.3,1
				C268.4,230.3,267.8,230.5,267.5,230.5z M268.8,234.3c-0.2-0.8,0.2-1.5,0.8-1.7c0.5-0.2,1.1,0,1.5,0.8c0,0,0-0.1-0.1-0.1
				c0,0,0.1,0.1,0.1,0.2c0,0-0.1,0-0.1,0c0.1,0.1,0.2,0.3,0.2,0.5c0,0.3-0.1,0.6-0.5,1c-0.1,0.1-0.5,0.2-0.7,0.2
				C269.8,235.1,269.2,235.2,268.8,234.3z M273.4,258.9C273.4,258.9,273.4,258.9,273.4,258.9c0,0-0.2,1.3-0.2,1.3s-1.1,0.9-1.3,1
				l-1.9-0.5c0,0-0.4-1.2-0.4-1.1c-0.1-0.5,0-1.1,0.4-1.6c0.3-0.4,0.8-0.7,1.3-0.6C272.3,257.3,273.1,257.9,273.4,258.9L273.4,258.9
				C273.4,258.7,273.4,259,273.4,258.9z M274.8,232.6c-0.9,0-1.7-0.5-1.7-1.4c-0.2-0.6,0-1.3,0.5-1.7c0.5-0.4,1.3-0.5,1.8-0.2
				c0.4,0.3,0.7,0.7,0.7,1.3c0,0.1,0,0.1,0,0.2C276.1,231.6,275.7,232.2,274.8,232.6z M277.9,236.9c-0.2,0.1-0.4,0.4-0.6,0.2
				c0,0-1.1-0.6-1.2-0.8c-0.3-0.6-0.1-1.1,0.2-1.3c0.4-0.4,1.2-0.4,1.7-0.1c0.1,0.1,0.3,0.5,0.4,0.6
				C278.5,235.8,278.7,236.4,277.9,236.9z M283.5,232.7l-0.9,1.6c-0.1,0.2-0.2,0.2-0.5,0.2c-0.9,0-1.5-0.6-1.5-1.1
				c-0.4-1.2,0.6-1.7,1-1.9c0.2-0.1,0.7,0,0.9,0.2l0.9,0.8C283.6,232.6,283.6,232.4,283.5,232.7z M285.7,238.5
				c-0.3,0.4-0.8,0.4-1.2,0.4c-0.2,0-0.4-0.1-0.5-0.2c-0.4-0.4-0.5-1-0.2-1.4c0.3-0.4,0.8-0.7,1.3-0.5c0.2,0,0.5,0.6,0.6,0.7
				C285.7,237.8,285.8,238.3,285.7,238.5z M287.1,231.6c-0.8,0.3-1.6-0.1-2.1-1.3c0-1.2,0.6-1.7,1.3-2l1.8,0.5l0.4,1.1
				C288.4,230.6,287.8,231.2,287.1,231.6z M290.4,235.7c-0.1,0.2-0.7,0.3-0.9,0.3c-0.6,0-0.9-0.4-1-0.6c-0.1-0.1-0.3-0.4-0.3-0.5
				c0-0.4,0.2-0.8,0.6-1c0.4-0.2,0.9-0.2,1.3,0c0.1,0,0.3,0.3,0.3,0.4C290.8,234.7,290.7,235.4,290.4,235.7z M386.6,206.5
				c0.4-0.4,1.1-0.5,1.7-0.3c0.6,0.2,0.9,0.7,0.9,1.3c0,0.7-0.4,1.4-1,1.7c-0.2,0.1-0.7,0-0.8-0.1c-0.3-0.1-1.3-0.5-0.9-1.1
				C386,207.2,386.4,206.7,386.6,206.5z M382.1,209.7c0.3-0.4,0.8-0.6,1.3-0.5c0.2,0.1,0.7,0.3,0.8,1l0,0.2c0,0.3,0.2,1-0.6,1.4
				c-0.1,0-0.5,0.1-0.5,0.1c-0.3,0-0.9,0.1-1.2-0.6C381.6,210.8,381.7,210.2,382.1,209.7z M378.1,212.4c0.5,0,1,0,1.4,0.8
				c0.1,0.2,0,0.5-0.1,0.7c-0.2,0.3-0.4,0.9-1,1c-0.4,0.1-0.7-0.1-1.1-0.5c-0.1-0.1-0.3-0.8-0.3-1
				C377.2,213,377.4,212.7,378.1,212.4z M373.1,215.7c-0.1,0.1-0.1,0.2-0.1,0.3c0,0.3,0.1,0.6,0.2,0.8c0,0.1,0.2,0.1,0.2,0.1
				c-0.1-0.3-0.2-0.6-0.2-0.6c0,0.1,0.1,0.1,0.1,0.2c0,0,0,0,0,0c0-0.1,0-0.3,0.1-0.4c0.3-0.1,0.3,0,0.4,0.1c0,0,0.1,0.1,0.1,0.2
				c0.1,0.1,0,0.1,0,0.2c0,0-0.1,0-0.1,0.1c0,0.1,0,0.1,0,0.2c-0.2,0.1-0.3,0-0.4,0c0,0,0,0,0,0c0,0,0-0.1-0.1-0.1
				c0,0-0.1,0-0.1-0.1c0,0,0,0,0,0c0,0,0,0,0,0.1c0,0.1,0,0.2,0.1,0.4c0.2,0.2,0.5,0.5,0.7,0.4c-0.6,0.2-1,0-1.2-0.4
				C372.7,216.6,372.7,216,373.1,215.7z M365.6,212.1c0.8,0,1.5,0.3,1.9,0.8c0.2,0.3,0.3,0.6,0.3,0.9c0,0.1,0,0.2,0,0.3
				c0,0.1,0,0.2,0,0.3c0,0.3-0.1,0.6-0.3,0.9c-0.3,0.3-0.7,0.6-0.9,0.5c-0.8,0.3-1.7-0.1-2.1-1c0-0.1-0.1-0.6-0.1-0.6
				C364.4,213.6,364.4,212.7,365.6,212.1z M360.5,216c0.5-0.3,1.2-0.3,1.7,0c0.4,0.3,0.6,0.8,0.5,1.3c0-0.1,0-0.1,0-0.2
				c0,1.1-0.5,1.3-0.6,1.2c-0.5,0.2-1,0.2-1.4-0.1c-0.4-0.2-0.6-0.6-0.5-0.8C359.9,216.6,360.3,216.2,360.5,216z M356.2,218.9
				c0.6-0.2,1.4,0,1.7,0.6c0,0.1,0.1,0.4,0.1,0.5c0,0.3,0.1,0.9-0.6,1.2c-0.4,0.2-0.9,0.2-1.2,0c-0.4-0.2-0.6-0.7-0.6-1
				C355.4,219.6,355.7,219.1,356.2,218.9z M350.9,222.7c0.1-0.4,0.3-0.7,1-0.9c0.5,0,1.1,0,1.4,0.8c0.1,0.2,0.1,0.5,0,0.6
				c-0.1,0.2-0.2,0.4-0.4,0.5l-1.1,0.4c-0.2,0.1-0.3,0-0.5-0.2C351,223.6,350.8,223.1,350.9,222.7z M348.1,224.9
				c0.4,0.2,0.7,0.7,0.4,1.5c-0.1,0.2,0,0.1-0.1,0.2l-0.8,0.3c-0.2,0.1-0.6,0.1-0.8-0.1c-0.8-0.8-0.4-1.4-0.3-1.6
				C346.9,224.8,347.6,224.6,348.1,224.9z M344.1,218.6c0.8-0.3,1.4,0.2,1.7,0.5c0.1,0.1,0.6,0.5,0.6,0.7c0.1,0.6,0.2,1.7-0.4,2.4
				c-0.2,0.3-0.6,0.6-1.3,0.6c-0.8,0-1.5-0.5-1.9-1.4C342.5,220,343,218.9,344.1,218.6z M338.7,222.8c0.4-0.5,1.3-0.6,1.9-0.4
				c0.5,0.2,0.8,0.6,0.8,1.1c0,0,0-0.1,0-0.1c0,0,0,0.1,0,0.2c0,0,0,0,0,0.1c0,0,0,0,0,0c0,0,0,0,0,0.1c0,0,0,0,0,0
				c0.2,0.7-0.3,1.1-0.8,1.5c-0.5,0.2-1.2,0.3-2.2-0.8C338.2,223.8,338.3,223.2,338.7,222.8z M334.2,225.8c0.5-0.5,1.2-0.7,1.8-0.5
				c0.5,0.2,0.7,0.6,0.7,1.1c0,0-0.6,1.3-0.6,1.3c-0.1,0.2-0.3,0.2-0.5,0.2c-0.5,0-1.3,0-1.6-0.8
				C333.7,226.7,333.8,226.2,334.2,225.8z M331.6,228.9c0,0.1,0.1,0.5,0.1,0.5c0,0.3,0.1,1.1-0.9,1.5c-0.8,0-1.2-0.6-1.4-1
				c-0.3-0.7,0-1.3,0.5-1.5C330.4,228,331.3,228.2,331.6,228.9z M327.2,222.2c0.9,0,1.6,0.3,2,0.8c0.2,0.2,0.4,0.6,0.4,1.1
				c0,0.1,0,0.2,0,0.3c0,0.1,0,0.3,0,0.4c0,0.8-0.5,1.4-1.4,1.8c-1,0.3-2-0.5-2.3-1.2c0-0.1-0.1-0.6-0.1-0.7
				C325.9,223.8,325.8,222.5,327.2,222.2z M325.4,232.2c0,0,0.1,0.1,0.1,0.2c0-0.1,0-0.1,0.1-0.2V232c0.1,0,0.1,0,0.1,0
				c0,0,0-0.1,0.1-0.1c0.3,0,0.4,0.1,0.4,0.5c0,0,0,0,0,0c0,0,0-0.3,0-0.3c0,0.1,0,0.2,0,0.3l0,0v0c0,0,0,0,0,0c0,0.2,0,0.3-0.2,0.3
				c-0.1,0-0.2,0-0.2,0c0,0,0,0,0,0c0,0,0,0,0,0c0,0-0.1-0.1-0.1-0.1c0,0,0,0-0.1-0.1c0,0,0,0,0-0.1c0,0.1-0.1,0.1-0.2,0.3
				C325.4,232.6,325.4,232.3,325.4,232.2z M325,232c0,0,0,0.2,0.1,0.3c0.1,0.3,0.2,0.9,0.4,1c-0.3-0.2-0.4-0.6-0.4-1
				c0-0.1-0.1-0.1-0.1-0.2V232z M322.6,225.8c0.9-0.4,1.6,0.3,2,0.8c0.1,0.1,0.2,0.3,0.2,0.5c0,0.6,0,1.4-0.6,1.8
				c-0.2,0.2-0.6,0.3-0.8,0.2c-0.5,0.2-1,0.1-1.4-0.2c-0.3-0.3-0.6-0.7-0.5-0.9C321.3,226.9,321.7,226.1,322.6,225.8z M317.6,229.2
				c0.4-0.3,1-0.4,1.5-0.2c0.4,0.2,0.6,0.5,0.6,0.9c0,0,0-0.1,0-0.1c0,0.1,0.1,0.2,0.1,0.3c0,0,0,0,0,0c0,0,0,0,0,0s0,0,0,0
				c0,0,0,0,0,0c0,0.1,0.1,0.2,0.1,0.3c0,0.2-0.1,0.5-0.2,0.7c-0.1,0.1-0.5,0.5-0.6,0.5c-0.4,0.2-0.8,0.2-1.1,0
				c-0.4-0.3-0.7-0.7-0.6-1.1C317.1,230,317.3,229.5,317.6,229.2z M313.9,233.4c-0.2,0.5-0.4-0.2-0.4-0.4
				C313.9,232.8,314.1,233,313.9,233.4z M313.6,234.2c-0.7-0.2-0.7-1.2-0.7-1.2C312.9,233.3,313.3,234.1,313.6,234.2z M309.7,226.9
				c0.5-0.5,1.4-0.6,2.1-0.3c0.6,0.3,0.9,0.8,0.9,1.5c0,0,0,0,0,0c0,0.1,0,0.2,0,0.3c0,0.4-0.1,0.7-0.3,1c-0.3,0.4-0.8,0.6-1,0.6
				c-0.5,0.2-1,0.1-1.4-0.2c-0.5-0.3-0.8-0.9-0.7-1.3C309.1,227.9,309.2,227.3,309.7,226.9z M305.2,230.1c0.4-0.4,1.1-0.5,1.7-0.3
				c0.5,0.2,0.8,0.7,0.8,1.2c0,0,0,0,0,0.1c0,0.1,0,0.2,0,0.2c0,0.2-0.1,0.4-0.2,0.6c-0.3,0.4-0.7,0.7-1.2,0.7
				c-0.2,0-0.5-0.2-0.6-0.3c0,0-0.9-0.8-0.9-0.8C304.7,231,304.8,230.5,305.2,230.1z M300.9,233.2l1-0.2l0.9,0.6
				c0.3,0.2,0.3,0.1,0.1,0.4l-0.6,1.1c-0.1,0.2-0.3,0.2-0.5,0.2c-1.1,0-1.3-0.5-1.3-0.9C300.5,234.1,300.6,233.3,300.9,233.2z
				 M297.1,229.5l0.1-0.5c0-0.5,0-1.4,1-1.7c0.6-0.2,1.2-0.1,1.7,0.3c0.4,0.3,0.6,0.7,0.6,1.1c0,0,0,0,0-0.1c0,0.1,0,0.1,0,0.2
				c0,0,0-0.1,0-0.1c0.2,0.8-0.1,1.2-0.3,1.5l-0.2,0.2c-0.1,0.2-0.7,0.4-0.9,0.4c-0.5,0-1.4,0.1-1.9-0.8
				C297.1,229.9,297.1,229.6,297.1,229.5z M296.4,236c0.4-0.1,0.8-0.1,1.1,0.1c0.4,0.3,0.4,0.8,0.4,1.2c0,0.2-0.3,0.4-0.5,0.6
				c-0.2,0.1-0.6,0.2-0.8,0.2c-0.4-0.1-0.7-0.4-0.8-0.8C295.8,236.9,296.1,236.1,296.4,236z M293.2,231c0.5-0.4,1.2-0.5,1.7-0.2
				c0.4,0.2,0.7,0.6,0.7,1.1c0,0.1-0.1,0.7-0.2,0.8c-0.3,0.4-0.8,0.7-1.2,0.7c-0.9,0-1.3-0.7-1.5-1.2
				C292.7,231.8,292.8,231.3,293.2,231z M264.1,268.8c0.1-0.2,0.2-0.5,0.4-0.6c0.3-0.1,0.9-0.4,1.4,0.5c0-0.1,0.1,0.1,0,0.1
				c0.2,0.2,0.4,0.6-0.1,1.3l0-0.2c-0.1,0.2-0.5,0.4-0.7,0.5c-0.2,0-0.7,0-0.9-0.2C263.9,269.6,264,269.1,264.1,268.8z M257.4,265.6
				c0.5,0,1.5,0.5,1.5,1.3l-0.4,1.4c0,0-0.9,0.3-1.1,0.4c-0.3,0-0.9,0.1-1.3-0.7C255.8,267,256.4,266,257.4,265.6z M249.2,264.3
				c0.5-0.4,1.2-0.5,1.6-0.2c0.3,0.2,0.5,0.6,0.5,1c0,0.1,0,0.1,0,0.2c0,0,0,0,0,0c0,0,0,0,0,0c0,0.5,0,1-1.1,1.5
				c-0.4,0-1.5,0-1.4-0.9C248.6,265.3,248.8,264.7,249.2,264.3z M242.2,262.4c0.2-0.1,0.7,0.1,0.9,0.3c0.2,0.2,0.4,0.6,0.3,0.9
				l-0.3,0.8c-0.1,0.2-0.4,0.2-0.7,0.2c-0.3,0-0.6-0.3-0.7-0.5C241.5,263.4,241.6,262.7,242.2,262.4z M231.4,255.6
				c0.2-0.5,0.6-0.7,1.1-0.7c0.5,0,1.1,0.4,1.3,1c0.1,0.2,0.1,0.3,0.1,0.5c0,0.3-0.1,0.5-0.3,0.8c0,0,0,0,0.1,0
				c0,0.1-0.1,0.1-0.1,0.2c0,0,0-0.1,0.1-0.1c-0.4,0.7-1,0.8-1.7,0.7C231.1,257.4,231.1,256.4,231.4,255.6z M209.3,236.1
				c0.9,0,1.7,0.5,1.7,1.3v0c0,0.1,0.1,0.2,0.1,0.3c0,0.4-0.1,0.7-0.3,1c-0.3,0.4-0.8,0.6-1.2,0.6c0,0-1.3-0.7-1.5-0.9
				C207.7,237.5,208.3,236.5,209.3,236.1z"/>
			<path class="st1" d="M245.5,243.3C245.5,243.2,245.5,243.2,245.5,243.3c0-0.1,0-0.1,0-0.1C245.5,243.2,245.5,243.2,245.5,243.3z"
				/>
			<path class="st1" d="M307.7,231.1C307.7,231.1,307.7,231.1,307.7,231.1c0-0.1,0-0.2-0.1-0.3C307.6,230.9,307.7,231,307.7,231.1z"
				/>
			<path class="st1" d="M244.6,230.3C244.6,230.3,244.6,230.3,244.6,230.3c0-0.1,0-0.1,0-0.2C244.6,230.2,244.6,230.2,244.6,230.3z"
				/>
			<path class="st1" d="M251.7,232.4c0-0.1,0-0.1,0-0.2c0,0,0-0.1,0-0.1C251.7,232.2,251.7,232.3,251.7,232.4z"/>
			<path class="st1" d="M264.6,269.2C264.6,269.2,264.6,269.2,264.6,269.2L264.6,269.2c0-0.1,0-0.2,0-0.2c0,0-0.1,0-0.1,0
				C264.4,269.2,264.5,269,264.6,269.2z"/>
			<path class="st1" d="M227.1,223.5c0.4,0.9,1.3,1.6,2.4,1.4c0.6-0.2,1.3-0.9,1.3-1.8c-0.2-0.9-1.3-1.8-2.4-1.8
				C227.6,221.5,227.1,222.6,227.1,223.5z"/>
			<path class="st1" d="M226.8,217.9c-0.2-0.9-1.3-0.2-1.5,0.4c0.2,0.5,0.6,0.7,1.1,0.7C226.5,219,227,218.5,226.8,217.9z"/>
			<path class="st1" d="M245.8,218.7c-0.9,0.4-0.9,1.3,0,1.6c0.2,0,0.7-0.4,0.5-1.1C246,218.9,246,218.7,245.8,218.7z"/>
			<path class="st1" d="M232.3,220.6c0.4,0.5,0.9,1.1,1.7,0.9c0.2-0.4,0.7-0.7,0.7-1.3c0-0.4-0.6-1.1-1.3-1.4
				C233,219.3,232.3,219.9,232.3,220.6z"/>
			<path class="st1" d="M221.7,222.1c0.2-0.2,0.9-0.7,0.9-1.1c-0.4-1.3-2.2-1.4-2.2,0.2C220.7,221.6,221.1,222.1,221.7,222.1z"/>
			<path class="st1" d="M253.3,223c0.4-0.4,1.5-0.9,1.3-1.8c-0.2-0.9-1.9-1.8-2.4-0.5C251.4,221.5,252.4,222.8,253.3,223z"/>
			<path class="st1" d="M241.1,244.8c0,0,0.1,0.1,0.1,0.1c0,0,0,0,0-0.1C241.2,244.8,241.1,244.8,241.1,244.8z"/>
			<path class="st1" d="M216.1,223.8c0.2,0.4,0.4,0.9,1.1,0.9c0.2-0.2,0.4-0.7,0.7-1.1C217.4,222.9,215.9,222.5,216.1,223.8z"/>
			<path class="st1" d="M224.1,224.1c-0.6,0.2-1.3,0.9-1.3,1.8c0.4,0.7,0.9,1.6,1.7,1.6c0.9-0.4,1.7-1.1,1.5-2.2
				C225.6,224.3,225,224.1,224.1,224.1z"/>
			<path class="st1" d="M219.5,227.4c-0.4,0.4,0.2,1.6,1.1,1.8c0.2-0.2,0.2-0.7,0.2-0.9C220.6,227.9,220.2,227.2,219.5,227.4z"/>
			<path class="st1" d="M354.1,211.9c0.2,0.5,0.9,1.4,1.5,0.7c0.4,0,0.7-0.7,0.7-1.1c-0.4-0.5-0.6-0.9-1.1-0.9
				C354.8,211,353.9,211.2,354.1,211.9z"/>
			<path class="st1" d="M360,209.7c0.2-0.2,0.7-0.4,0.7-0.9c-0.2-0.4-0.7-0.7-0.9-0.7C358.5,208.6,359.3,209.5,360,209.7z"/>
			<path class="st1" d="M337,215.6c0.2,0.4,0.9,1.1,1.5,1.1c0.4-0.2,1.1-0.9,0.9-1.6C338.7,214,337.2,214.4,337,215.6z"/>
			<path class="st1" d="M326,217c0.4,0,0.4-0.4,0.9-0.7c-0.2,0-0.4-0.5-0.6-0.5C325.8,216.1,325.3,216.6,326,217z"/>
			<path class="st1" d="M376.9,206.1c0.4-0.4,0.9-0.7,0.9-1.1c-0.4-1.3-1.9-0.9-2.2,0.2C375.8,205.6,376.2,206.5,376.9,206.1z"/>
			<path class="st1" d="M265.4,221.6c0.2-0.2,1.1-0.4,0.9-1.1c-0.2-0.4-0.6-0.7-1.1-0.7c-0.4,0.2-0.9,0.7-0.7,1.1
				C264.8,221.4,265,221.6,265.4,221.6z"/>
			<path class="st1" d="M381.9,202.1c-0.2-0.9-1.3-0.5-1.1,0.4c0.2,0.2,0.4,0.4,0.6,0.4C381.7,202.8,382.1,202.6,381.9,202.1z"/>
			<path class="st1" d="M403.8,195.9c-0.2-0.6-0.5-0.9-0.9-1c-0.7-0.1-1.4,0.6-1.3,1.4c0.1,0.3,0.5,0.6,0.8,0.8
				c0.2,0.1,0.3,0.1,0.5,0.1C403.5,197.2,403.8,196.3,403.8,195.9z"/>
			<path class="st1" d="M297,220.1c-0.4,0.2-1.1,1.1-0.4,1.6c0.6,0.9,1.3-0.2,1.5-0.7C297.6,220.8,297.4,220.1,297,220.1z"/>
			<path class="st1" d="M285.1,222.9c0.6,0,1.1-0.7,1.1-1.3c-0.6-1.1-2.2-0.9-2.4,0.2C284,222.2,284.4,222.9,285.1,222.9z"/>
			<path class="st1" d="M304.1,221.3c-0.4,0.4-1.3,1.1-1.1,2c0.2,0.7,1.1,1.6,1.9,1.4c0.7-0.4,1.1-1.1,1.1-2.2
				C305.6,222,305,221.1,304.1,221.3z"/>
			<path class="st1" d="M272.7,224.1c0.9-0.2,1.5-0.9,1.3-1.8c0-0.7-0.9-0.9-1.5-1.1c-0.6,0.2-1.3,0.9-1.1,1.8
				C271.7,223.4,272.3,224.1,272.7,224.1z"/>
			<path class="st1" d="M321.2,218.1c-0.4,0.2-1.1,0.4-0.9,1.1c0.2,0.7,0.6,1.1,1.3,1.1c0.4-0.2,1.3-0.7,1.1-1.3
				C322.3,218.5,321.9,217.7,321.2,218.1z"/>
			<path class="st1" d="M308.4,220.2c0.2,0.2,0.4,0.9,0.9,0.7c0.4-0.2,0.9-0.4,0.9-1.1C309.7,218.6,308.4,219.3,308.4,220.2z"/>
			<path class="st1" d="M292.2,289.9c-53,0-98.3-31.1-116.2-74.9h-18.6c17.2,61.2,71,105.8,134.8,105.8
				c73.4,0,133.7-58.7,139.9-134.2l-17.1,5.4C405.4,247.6,354.1,289.9,292.2,289.9z M198.1,272.1l-1.4-1.4c0,0-0.1-0.1-0.1-0.1
				c0,0,0-0.1,0-0.1c0,0,2.6-4.2,2.6-4.2c0,0,0.2-0.3,0.4-0.5c-0.3,0.2-0.5,0.3-0.6,0.3l-4.3,2.5c-0.1,0.1-0.2,0-0.3,0l-1.3-1.4
				c-0.1-0.1-0.1-0.2,0-0.2l3.9-7.7c0-0.1,0.1-0.1,0.2-0.1c0.1,0,0.1,0,0.2,0.1l1.5,1.6c0,0,0.1,0.1,0.1,0.1c0,0,0,0.1,0,0.1
				c0,0-2.5,4.2-2.5,4.2c0,0-0.1,0.2-0.2,0.3c0.1-0.1,4.4-2.6,4.4-2.6c0.1,0,0.2,0,0.3,0l1.5,1.6c0,0,0.1,0.1,0.1,0.1
				c0,0,0,0.1,0,0.1l-2.6,4.1c0,0-0.1,0.2-0.2,0.4c0.1-0.1,0.3-0.2,0.3-0.2l4.3-2.3c0.1,0,0.2,0,0.3,0l1.5,1.5
				c0,0.1,0.1,0.1,0.1,0.2c0,0.1-0.1,0.1-0.1,0.2l-7.8,3.7C198.3,272.2,198.2,272.2,198.1,272.1z M204.5,277.9c0,0-0.1,0-0.2-0.1
				l-1.5-1.4c-0.1-0.1-0.1-0.2,0-0.3l5.4-6.1c0,0,0.1-0.1,0.2-0.1c0.1,0,0.1,0,0.2,0l1.5,1.4c0.1,0.1,0.1,0.2,0,0.3l-5.4,6.1
				C204.6,277.9,204.6,277.9,204.5,277.9z M211.3,283.2c-0.1,0.1-0.2,0.1-0.3,0l-1.6-1.3c0,0-0.1-0.1-0.1-0.1v0c0,0,0-0.1,0.1-0.1
				c0,0,3.7-4.8,4-5.1c-0.3-0.2-2.2-1.7-2.2-1.7c0,0-0.1-0.1-0.1-0.1c0,0,0,0,0,0c0,0,0-0.1,0-0.1l0.9-1.1c0.1-0.1,0.2-0.1,0.3,0
				l6.3,4.9c0.1,0.1,0.1,0.2,0,0.3l-0.9,1.1c0,0-0.1,0.1-0.1,0.1c-0.1,0-0.1,0-0.2,0c0,0-1.9-1.5-2.2-1.7
				C215.1,278.4,211.3,283.2,211.3,283.2z M227.9,284.7l-4.4,6.9c0,0-0.1,0.1-0.1,0.1c-0.1,0-0.1,0-0.2,0l-1.7-1.1
				c-0.1,0-0.1-0.1-0.1-0.2c0,0,0-0.1,0-0.1c0,0,1.7-2.6,1.9-2.9c-0.3-0.2-2.6-1.7-2.9-1.9c-0.2,0.3-1.9,2.9-1.9,2.9
				c-0.1,0.1-0.2,0.1-0.3,0.1l-1.7-1.1c0,0-0.1-0.1-0.1-0.1c0-0.1,0-0.1,0-0.2l4.4-6.9c0,0,0.1-0.1,0.1-0.1c0.1,0,0.1,0,0.2,0
				l1.7,1.1c0.1,0,0.1,0.1,0.1,0.2c0,0,0,0.1,0,0.1c0,0-1.4,2.1-1.6,2.4c0.3,0.2,2.6,1.7,2.9,1.9c0.2-0.3,1.6-2.4,1.6-2.4
				c0,0,0.1-0.1,0.1-0.1c0.1,0,0.1,0,0.2,0l1.7,1.1C227.9,284.4,227.9,284.6,227.9,284.7z M249.5,292.3c-0.8,2.1-3.9,2.2-4.1,2.7
				c-0.3,0.7,2.8,3.7,1.6,6.9c-0.7,1.8-2.7,3-6.5,1.5l-6.9-2.8c-0.6-0.2-1.4-0.2,1.3-7.2c3.6-9.2,4.6-8.4,5-8.2l5.9,2.5
				C249.9,289.3,249.9,291.1,249.5,292.3z M262.7,303c-1.2,4.6-4.9,5.6-7.7,4.9c-2.7-0.8-5.4-3.6-4.3-8.2c0.8-3.1,3.5-6,7.6-4.8
				C262.6,296,263.5,299.9,262.7,303z M276.9,305.1c-1.1,7.3-1.7,6.9-3.4,6.6c-2.5-0.4-0.4-1.2-1.8-1.4c-0.2,0-0.8,0.3-1.3,0.5
				c-0.5,0.2-1.1,0.3-1.9,0.2c-2-0.3-3.7-1.7-2.9-7.3c0-0.3,1.1-6.3,2.1-6.1l2.2,0.4c0.3,0.1,1,0.1,0.9,0.5c-0.1,0.3-1.5,2.1-2,5.9
				c-0.2,1.1-0.6,4.1,1.5,4.5c0.8,0.1,2.7,0.2,3.3-4.1c0.4-2.4,0-5.6,0-5.9c0-0.3,0.6-0.2,0.9-0.1l2.3,0.4
				C277.8,299.1,277.2,303.2,276.9,305.1z M292.2,305.2c-0.3,7.9-1,7.5-1.9,7.4l-2.1-0.1c-0.3,0-0.9,0-0.8-0.4
				c0-0.2,1.4-2.8,1.5-6.9c0.1-1.4,0-3.2-1.7-3.3c-0.9,0-2.9,0.4-3,4.4c-0.1,2.4,0.5,5.5,0.5,5.8c0,0.3-0.4,0.2-0.7,0.2l-2.1-0.1
				c-0.9,0-1.3,0.3-1.1-5c0.3-9.1,1.2-8.5,3.1-8.4c0.9,0,1.8,0,1.7,0.4c0,0.2-0.2,0.4-0.2,0.7c0,0.2,0.1,0.4,0.4,0.4
				c0.4,0,1.6-0.8,3.2-0.7C289.5,299.7,292.4,299.9,292.2,305.2z M301.5,312.5c-4.1,0.3-6-2.8-6.2-5.7c-0.2-3.5,1.7-7.5,6.5-7.9
				c2.1-0.2,3.7,0.7,3.8,1.8c0,0.6-0.4,1.8-1.3,1.9c-0.6,0-0.6-1.5-2.5-1.3c-2.5,0.2-3.3,3-3.2,4.6c0.1,2,1.4,3.5,3.7,3.3
				c2.6-0.2,3.1-2.2,3.3-2.2c0.1,0,0.4,0.3,0.4,1.2C306.3,310.7,304.4,312.3,301.5,312.5z M308,295.7c-0.1-0.8,0.7-1.5,1.7-1.7
				c1-0.1,1.9,0.2,2.1,1.1c0.1,0.9-0.7,1.5-1.7,1.6C309.1,296.9,308.1,296.6,308,295.7z M312.9,310.9l-1.7,0.3
				c-1.2,0.2-1.2,0.6-2.2-6.4c-1-6.8-0.5-6.2,0.3-6.3l1.3-0.2c1-0.2,1-0.1,1.1,0.1c0.1,0.7-0.1,1.5,0.2,3.7c0.7,5,2.1,8,2.1,8.1
				C314.2,310.8,313.4,310.8,312.9,310.9z M327.6,307.8l-2.1,0.5c-0.3,0.1-0.8,0.3-0.9-0.1c-0.1-0.2,0.6-3.1-0.3-7.1
				c-0.3-1.4-0.8-3.1-2.5-2.7c-0.9,0.2-2.7,1.2-1.8,5c0.5,2.3,1.9,5.2,2,5.4c0.1,0.3-0.3,0.4-0.6,0.4l-2,0.5
				c-0.9,0.2-1.2,0.6-2.3-4.5c-2-8.9-1-8.5,0.8-9c0.8-0.2,1.7-0.5,1.8-0.1c0.1,0.2-0.1,0.5,0,0.8c0,0.2,0.2,0.3,0.4,0.3
				c0.4-0.1,1.3-1.2,2.9-1.5c0.7-0.2,3.5-0.8,4.6,4.4C329.2,307.8,328.4,307.6,327.6,307.8z M344.9,304.3c-0.4,1.4-1.8,2.5-3.3,3.2
				c-3.1,1.4-6.4,1.2-7.7-1c-0.7-1.1-0.6-2.1-0.4-2.9c-1-0.1-1.9-0.5-2.2-1.5c-0.8-2.2,1.8-3.4,1.6-3.9c-0.2-0.5-2.1-0.7-2.8-2.7
				c-0.9-2.5,0.5-4.7,3.6-5.8c0.8-0.3,1.3-0.3,1.5-0.4c1.1-0.4,1.1-2.4,2-2.7c0.6-0.2,2.4,0.6,2.5,0.9c0.2,0.6-2.2,0.8-1.8,1.8
				c0.2,0.6,1.5,0.5,2.2,2.6c0.7,2-0.1,4.6-3.6,5.9c-1.3,0.5-2.6,1.7-2.4,2.2c0.1,0.3,0.3,0.4,0.6,0.4c0.5-0.1,1-0.8,2-1.4
				c3.7-1.9,6.6-0.3,7.8,1.7C345.4,302.2,345,303.7,344.9,304.3z M359.3,292.2c-0.4,0.8-1.2,1.5-2.3,2.2c-1.2,0.6-2.2,0.9-3.1,0.9
				c-1-0.1-1.7-0.5-2.1-1.3c-0.1-0.1,0-0.2,0.1-0.3l1.7-1c0.1,0,0.2,0,0.3,0.1l0.6,0.5c0.4,0.1,1,0,1.6-0.4l0.9-0.7
				c0.5-0.5,0.4-0.8,0.3-1c-0.1-0.1-0.2-0.2-0.5-0.2l-1.3,0.3l-1,0.4l-2.3,0.5c-0.8,0-1.5-0.4-1.9-1.2c-0.4-0.7-0.4-1.5,0-2.3
				c0.4-0.8,1.1-1.5,2.3-2.1c0.9-0.5,1.9-0.8,2.8-0.7c0.9,0,1.7,0.5,2.2,1.3c0,0,0,0.1,0,0.2c0,0.1,0,0.1-0.1,0.1l-1.7,0.9
				c-0.1,0.1-0.2,0-0.3-0.1c-0.2-0.3-0.6-0.5-1-0.4l-1.1,0.4l-0.9,0.8c-0.2,0.2-0.2,0.5-0.1,0.7c0.1,0.1,0.2,0.3,0.5,0.2l1.3-0.3
				l1.7-0.5l1.9-0.3c0.8,0.1,1.4,0.4,1.7,1.1C359.7,290.5,359.7,291.3,359.3,292.2z M369,285.6c-0.3,1-1,1.9-2.2,2.7
				c-1.2,0.8-2.4,1.2-3.4,1c-1.3-0.1-2.4-0.8-3.3-2c-0.9-1.3-1.1-2.6-0.7-3.8c0.3-1,1-1.9,2.3-2.7c1.2-0.8,2.4-1.2,3.4-1.1
				c1.3,0.1,2.4,0.8,3.3,2.1c0.6,0.9,0.9,1.7,0.9,2.6C369.2,284.8,369.1,285.2,369,285.6z M378.6,279.3l-5.5,4.4
				c-0.1,0.1-0.2,0.1-0.3,0l-5.1-6.4c-0.1-0.1-0.1-0.2,0-0.3l1.6-1.3c0,0,0.1-0.1,0.2-0.1c0.1,0,0.1,0,0.1,0.1c0,0,3.8,4.8,4.1,5.1
				c0.3-0.3,3.7-2.9,3.7-2.9c0.1-0.1,0.2-0.1,0.3,0l0.9,1.1c0,0,0.1,0.1,0,0.2C378.6,279.2,378.6,279.2,378.6,279.3z M386.2,272.3
				l-5.4,5c-0.1,0.1-0.2,0.1-0.3,0l-5.6-6c-0.1-0.1-0.1-0.2,0-0.3l5.3-4.9c0.1-0.1,0.2-0.1,0.3,0l1,1.1c0,0,0.1,0.1,0.1,0.2
				c0,0,0,0,0,0c0,0.1,0,0.1-0.1,0.2c0,0-3.3,3.1-3.6,3.3c0.2,0.2,0.7,0.7,0.9,0.9c0.3-0.3,3.3-3,3.3-3c0,0,0.1-0.1,0.2-0.1
				c0.1,0,0.1,0,0.2,0.1l0.9,1c0,0,0.1,0.1,0.1,0.2c0,0.1,0,0.1-0.1,0.2c0,0-3,2.8-3.3,3c0.2,0.2,0.9,1,1.1,1.2
				c0.3-0.3,3.8-3.5,3.8-3.5c0.1-0.1,0.2-0.1,0.3,0l1,1.1c0,0,0.1,0.1,0.1,0.2C386.3,272.2,386.3,272.2,386.2,272.3z M392.9,264.3
				c-0.1,0.9-0.6,1.8-1.5,2.8c-0.9,1-1.8,1.6-2.7,1.8c-0.9,0.2-1.7,0-2.4-0.6c0,0-0.1-0.1-0.1-0.1c0-0.1,0-0.1,0.1-0.2l1.3-1.5
				c0.1-0.1,0.2-0.1,0.3,0l0.7,0.2c0.4,0,0.9-0.3,1.4-0.9l0.7-0.9c0.3-0.6,0.1-0.9-0.1-1c-0.1-0.1-0.2-0.2-0.5-0.1l-1.2,0.7
				l-0.9,0.7l-2,1.2c-0.8,0.3-1.5,0.1-2.2-0.5c-0.6-0.5-0.8-1.3-0.8-2.1c0.1-0.8,0.6-1.8,1.5-2.7c0.7-0.8,1.5-1.3,2.4-1.6
				c0.9-0.3,1.7-0.1,2.5,0.5c0,0,0.1,0.1,0.1,0.2c0,0.1,0,0.1-0.1,0.2l-1.3,1.5c-0.1,0.1-0.2,0.1-0.3,0c-0.3-0.3-0.7-0.3-1.1-0.1
				l-0.9,0.7l-0.6,1c-0.1,0.4,0,0.6,0.2,0.7c0.1,0.1,0.3,0.2,0.6,0.1l1.1-0.7l1.4-1.1l1.7-0.9c0.7-0.2,1.4,0,2,0.5
				C392.8,262.7,393,263.4,392.9,264.3z"/>
			<path class="st1" d="M364.6,282c-0.6-0.1-1.2,0-1.9,0.4c-0.6,0.4-1,1-1.1,1.6c-0.1,0.6,0.1,1.3,0.5,2c0.5,0.7,1,1.1,1.6,1.3
				c0.6,0.1,1.2,0,1.9-0.4c0.6-0.4,1-0.9,1.1-1.6c0-0.1,0-0.2,0-0.4c0-0.5-0.2-1.1-0.6-1.6C365.8,282.5,365.2,282.1,364.6,282z"/>
			<path class="st1" d="M337.6,300.9c-1.7,0.9-2.3,2.4-1.6,3.6c0.8,1.4,2.5,1.6,4.1,0.8c1.6-0.8,2.4-2.3,1.6-3.6
				C340.9,300.3,339.2,300.1,337.6,300.9z"/>
			<path class="st1" d="M335.7,295.3c1.3-0.5,2-1.5,1.6-2.8c-0.4-1.2-1.7-1.6-2.9-1.1c-1.2,0.5-2,1.5-1.6,2.8
				C333.1,295.3,334.3,295.8,335.7,295.3z"/>
			<path class="st1" d="M257.9,297.2c-2.4-0.7-3.6,1.3-4,2.9c-0.4,1.6-0.4,3.9,2,4.6c2.4,0.7,3.6-1.4,4-2.9
				C260.3,300.2,260.2,297.8,257.9,297.2z"/>
			<path class="st1" d="M242.2,295.3c-0.3-0.1-0.8-0.1-1.1-0.1l-1.7,0c-0.7,0-1.1,0-1.4,0.6c-1.1,2.8-0.4,3.6,1.5,4.3
				c1.6,0.7,3.5,0.9,4.1-0.6C244.1,298.3,242.8,295.6,242.2,295.3z"/>
			<path class="st1" d="M244.1,289.5c-2.3-0.9-3.6-0.6-4.7,2.3c-0.1,0.4-0.4,0.8,0.3,1.1c0.3,0.1,0.9,0.2,1.4,0.1l2-0.3
				c0.8-0.1,2.1-0.6,2.4-1.4C245.9,290.4,245,289.8,244.1,289.5z"/>
			<path class="st1" d="M246.8,91.2l9.4,6.1l8.4-9.4l-3.5-3.4c0,0-2.4,2.4-3.3,0.2c-0.3-0.6,1.1-4.3,2.1-7c1-2.7,3-8,4.9-4.8
				c1.7,2.7,2.9,7.5,2.9,7.5l5.5-6.8l-0.4-4.6l-0.5-5.5c0,0-1.6-1.2-2.6-2c-1.1,0.8-4.7,4.6-5.8,3c-0.8-1.1,1-2.6,1-2.6l-14.9-2
				l-2.6,7.8l3.2,2.3l-1.8,10.2L246.8,91.2z"/>
			<path class="st1" d="M378.3,88.9l4.1,3.2l6.6-5.9l2.8-2.5l-1.7-1.9l-1.5-1.7c0,0-2.6,2.1-3.3-0.1c-0.2-0.7,0.5-4.1,1.7-6.6
				c1.3-2.6,3.2-6.3,4.5-4.2c1.3,2,1.8,5.2,2.1,6.7c0.1,0.5,0.1,0.8,0.1,0.8l1.1-1.1l5.1-5l0-4.2l0-5.7c0,0-1.5-1.3-2.4-2.2
				c-1.2,0.7-5.2,4-6.1,2.3c-0.6-1.2,1.2-2.4,1.2-2.4l-12.9-3.3l-3.3,7.3l3,2.5l-5.8,20.4L378.3,88.9z"/>
			<path class="st1" d="M223.8,93.4l-0.2,1.8c0,0,8.8,5.2,9.1,5.2c0.3,0,7.8-11.4,7.8-11.4l-2.9-3.2c0,0-1.3,2.1-2.5,0.8
				c-0.8-0.8,1.4-9.1,3.1-14.8c0.9-3.1,1.7-5.5,1.7-5.5l-15.6-4.2l-2,7.5l3.2,3.3L223.8,93.4z"/>
			<path class="st1" d="M232.9,54.3c0.9,0.4,1.9,0.7,3,0.7c3.4,0,6.2-2.3,6.8-5.2c0.1-0.4,0.1-0.8,0.1-1.2c0-3.6-3.1-6.4-6.9-6.4
				c-3.8,0-6.9,2.9-6.9,6.4C229,51,230.6,53.2,232.9,54.3z"/>
			<path class="st1" d="M363,48.7c0.9,0.4,1.9,0.7,3,0.7c3.4,0,6.2-2.3,6.8-5.2c0.1-0.4,0.1-0.8,0.1-1.2c0-3.6-3.1-6.4-6.9-6.4
				c-3.8,0-6.9,2.9-6.9,6.4C359.2,45.5,360.7,47.7,363,48.7z"/>
			<path class="st1" d="M354.2,88.3c0,0,2.1,1.4,4.3,2.8c2.1,1.3,4.2,2.6,4.3,2.6c0.2,0,3.7-5.1,6-8.3c1-1.5,1.8-2.7,1.8-2.7l-1-1.1
				l-1.9-2c0,0-1.3,2-2.6,0.8c-0.8-0.8,1.4-8.8,3.1-14.4c0.9-3,1.7-5.3,1.7-5.3l-14.3-4.4l-2,7.2l3.2,3.2L354.2,88.3z"/>
			<path class="st1" d="M276.5,52.1c0.1,0.8,0.2,1.7,0.3,2.5c0.1,1.4,0.3,2.7,0.4,4.1c0.5,4.8,0.9,9.7,1.3,14.2
				c0.6,7.1,1,13.1,1.2,15.8c1.3,1.1,9.5,5.3,9.5,5c0-0.3,7.7-17.7,7.7-17.7l2.9,18.2l10.5-5.2c0,0,15.7-37,18.7-41.5
				c1.4-0.6,5.7-0.8,5.7-0.8l0.2-1.4l1-7.5l-12.7,1.3l-13.1,24.8l-2.3,4.3l-1.4-1.2c0,0-0.2-7.2,0.2-15.3c0.1-3.2,0.4-6.6,0.7-9.7
				l-15.3,9.3l-0.6,5.3l-0.7,6.1c0,0-1.1,1.3-2.6,3.7c0-2.4-0.3-13.3-0.5-21.6c-0.1-5.3-0.2-9.4-0.2-9.4l-14.3,10l0.3,6.2
				L276.5,52.1z"/>
			<path class="st1" d="M347,64.3c0.6-1.8,1.3-3.8,2.1-5.8l-13.6-2.7l-6.3,7.1l3.3,2.1c0,0,0.9-0.9,1.7-1.3c1.7-1,2.3,1.2,1.1,3.1
				c-3.9,2.7-8.3,5.7-12.3,9.3c-2.2,2-4.3,4.1-6.1,6.5l4.9,11.2l12.9-4.1l6,4.8l7.3-8.9l0.5-0.6c0,0-0.5-0.9-1.1-2
				c-0.4-0.8-0.9-1.7-1.2-2.3c-2.6,2.1-3.6,0.1-3.2-1.5C342.8,79.3,343.9,73.3,347,64.3z M333.5,83c0,0-5,2.2-7.5,2.9
				c-0.7,0.2-1.8,0.5-1.8-0.3c0-1.8,3.7-4.9,6.7-7.2c2.1-1.6,3.9-2.8,3.9-2.8l-0.2,1.3L333.5,83z"/>
			<path class="st1" d="M188.5,111.5l6.5-17.2l6.9,1.6c0.2,2.1,0.5,4.3,0.8,6.3c0.7,4.4,1.4,8,1.4,8l1.4-0.7l12.9-6.4v-5.6v-1.2
				c0,0-0.7,0.1-1.6,0.2c-1.2,0.2-2.8,0.4-3.4,0.4c-0.8-6.4,0-28,0.6-40.1c0.2-4.8,0.5-8.1,0.5-8.2c-1.5,0.5-14.6,4.2-14.6,4.2
				l-16.5,43.8l-4.2-0.6l-3.1,7.4l5.2,3.4L188.5,111.5z M202.2,72l-1,14.5l-3.9-1L202.2,72z"/>
			<path class="st1" d="M139.4,203.7c1.1,0.7,2.3,1.3,3.5,1.9c7,3.1,16.3,1.7,21.6-2L139.4,203.7z"/>
			<path class="st1" d="M519.1,139.8l2.3,4.4c7-3.6,32-16.8,35.2-18.6c6.8-3.7,10.9-8.3,13.1-13c0.1-0.2,0.1-0.3,0.2-0.5
				c-10.5,6.5-21.6,12.8-33.3,18.9C531,134,525.1,136.9,519.1,139.8z"/>
			<path class="st1" d="M497.7,140.4c2.5-1.1,5.1-2.2,7.6-3.4l-1.7-4.3c-6.7,3-13.6,6-20.5,8.9c-4,1.7-8,3.3-12.1,4.9l1.7,4.3
				c0,0,0,0,0,0l0,0C481.2,147.4,489.5,144,497.7,140.4z"/>
			<polygon class="st1" points="130.8,97.8 144.8,97.8 144.8,82 130.8,82 			"/>
			<path class="st1" d="M418.8,183.6l-1.2-4.7c-4.3,1.3-8.6,2.5-13,3.7c-3.2,0.9-6.3,1.7-9.5,2.5c-11.6,3-23.3,5.6-35.1,7.9
				c2.6,1.3,6.8,2.8,13.7,1.6c6.6-1.1,19.3-4.2,30.3-7.1C409.9,186.1,415.1,184.7,418.8,183.6z"/>
			<path class="st1" d="M478.7,157.7c-1,0.4-1.9,0.8-2.9,1.2l1.6,4.1c5.6-2.3,26.9-11.2,32.5-14.1l-1.5-3.9
				C498.7,149.3,488.8,153.6,478.7,157.7z"/>
			<path class="st1" d="M166.9,201.4C166.9,201.4,166.9,201.4,166.9,201.4c0.4-0.5,0.8-1.1,1.1-1.6v1.6c0,0,0,0,0,0v0
				c2.9,0,5.7,0,8.5,0c2.2,0,4.4,0,6.6,0c1.9,0,3.7,0,5.5,0c4.4,0,8.7,0,12.9-0.1v0l0-4.9l-19.7,0.1l-15.2,0.1l-34.9,0.2
				c1.4,1.8,2.9,3.4,4.6,4.8C146.7,201.5,157,201.5,166.9,201.4C166.9,201.4,166.9,201.4,166.9,201.4z"/>
			<path class="st1" d="M533.1,115.1c-1.4-1.2-2.4-3.9-2.9-4.5c-3.1,1.7-20.7,10.9-20.7,10.9l2.6,4.9c7.4-3.5,14.7-7.1,21.7-10.8
				C533.6,115.5,533.3,115.3,533.1,115.1z"/>
			<path class="st1" d="M427.7,166.6c13.1-4.1,26-8.6,38.6-13.4l-1.7-4.4c0,0,0,0,0,0l0,0c-12.6,4.8-25.6,9.3-38.7,13.3L427.7,166.6
				z"/>
			<path class="st1" d="M420.3,132.2c1.7,4.3,4.6,11.8,6.1,15.8c1.8,4.8-2.9,8-2.9,8l1.7,4.3c13.2-4.1,26.1-8.6,38.7-13.3l-2.1-5.6
				c0,0-5.5,1.6-7.4-3.5c-1.7-4.4-3.7-9.3-5.5-14.1c-4.4-11.2,7.4-15,11.4-4.4l9.9,25.1c0,0,0,0,0,0l0,0c11.2-4.4,22.1-9,32.7-13.8
				l-2.1-5.4c0,0-4.8,2.5-7.1-3c-10.1-23.9-15.3-37.5-34.1-32.9c-8.2,2-17,9.3-19.8,15.4c0-0.2-3-7.7-3-7.7l-31.2,12.1l7.3,18.9
				C412.8,128,417.8,126,420.3,132.2z"/>
			<path class="st1" d="M98.9,81.4l0,16.4H125l0-15.9c0,0-3.5-0.2-3.5-3.8l0-9.7c0.1-7.6,7.8-7.8,7.8,0.4l0.1,2.9l14.6,0
				c0,0,0-3.1,0-6.9c0.1-17.3-15.3-18.6-23.7-9.8v-5.3H98.9v13c0,0,3.5,0.2,3.5,3.8l0,11.3C102.4,81.3,98.9,81.4,98.9,81.4z"/>
			<path class="st1" d="M496.5,147.9c3.7-1.6,7.4-3.3,11.1-5l-1.5-4c0,0,0,0,0,0l0,0c-4.4,2-8.9,4-13.4,5.9
				c-6.3,2.7-12.7,5.3-19.2,7.9l1.6,4.1c2.1-0.8,4.1-1.7,6.2-2.5C486.4,152.3,491.5,150.1,496.5,147.9z"/>
			<path class="st1" d="M468.7,159.4l-1.6-4.1c0,0,0,0,0,0l0,0c-8.8,3.4-17.8,6.6-26.9,9.6c-3.9,1.3-7.8,2.6-11.7,3.8l1.7,4.2
				C443.3,168.7,456.1,164.2,468.7,159.4z"/>
			<path class="st1" d="M572,101.3c-0.1-1.3-0.3-2.6-0.6-3.7c-0.1-0.3-0.2-0.5-0.3-0.7c0,0,0,0,0,0c0,0,0,0,0,0
				c-4.1,2.5-8.2,5.1-12.5,7.6c-12.3,7.2-25.4,14.2-39.1,20.8c-2.1,1-4.3,2.1-6.5,3.1l2.1,4c13.6-6.5,26.6-13.3,38.8-20.3
				C560.2,108.5,566.2,104.9,572,101.3z"/>
			<path class="st1" d="M411.2,164.4c0.8-0.2,1.7-0.5,2.5-0.7l-1.3-4.9l-8.7,2.2l-16.6,4.1l1.4,5.4c5.3-1.3,10.6-2.7,15.9-4.2
				C406.7,165.6,409,165,411.2,164.4z"/>
			<polygon class="st1" points="168,203.6 168,208.1 185.3,208.1 201.5,208.1 201.5,203.4 183.7,203.5 168,203.6 168,203.6 			"/>
			<path class="st1" d="M450.4,168.3c-6.4,2.3-12.9,4.4-19.4,6.5l1.7,4.4c3.5-1.1,34.7-12.5,38.2-13.9l-1.5-4
				C463.2,163.8,456.8,166.1,450.4,168.3z"/>
			<path class="st1" d="M59.3,183.6l15.1-19.1v12.3c0,5.9-6.8,6-6.8,6v5.1c7.6,0,15.5-0.1,23.6-0.1c4.3,0,8.6,0,12.9-0.1
				c4.8,0,9.6,0,14.4-0.1l0-5.3c0,0-13.9,0.2-14.1-8.5c-0.2-8.8-0.3-28.6-0.1-35.3c0.3-11.5,13.5-11,13.5-11v-20.7H77.7l-18.5,34.1
				l-18.5-34.1H0.7v20.7c0,0,13.7-0.5,14,11c0.2,6.6,0.1,26.5-0.1,35.3c-0.2,8.8-14.6,8.5-14.6,8.5l0,5.9
				c10.2-0.1,28.6-0.1,50.9-0.2v-5.1c0,0-6.8-0.2-6.8-6v-12.3L59.3,183.6z"/>
			<path class="st1" d="M497.5,104.2c8.8,9.1,22.4,5.7,26.7,4.3c14.8-4.9,17.2-3.9,19.2-0.4c0.4,0.7,0.6,1.4,0.6,2.1
				c2.3-1.3,4.6-2.5,6.8-3.8c6.7-3.8,13.2-7.7,19.5-11.6c-3.4-8-11.4-19.8-40.8-8.7c-8.2,3.1-10.8,2.4-12,1.4
				c-0.4-0.3-1.1-1.8-1.1-2.9c-0.1-3,6.3-6.6,9.5-5.6c1.4,0.5,2.2,2.5,2.8,3.2c3.1-1.7,22.3-11.7,22.3-11.7l-11-20.6
				c0,0-31.8,16.4-35,18.3c-7.1,4.2-18,15.4-12,28.8C493.8,99,495.6,102.2,497.5,104.2z"/>
			<path class="st1" d="M94.2,82.6V16.2C93.7,0.1,78.3,0,78.3,0H0.9v21.5c0,0,13,0,13.6,10.9v33.9C13.9,77.2,0.9,77.2,0.9,77.2v21.5
				h77.4C78.3,98.7,93.7,98.6,94.2,82.6z M62.9,69.2c-0.2,9.3-13.3,8.9-16.5,8.7c-0.1,0-0.2,0-0.3,0c-0.3,0-0.4,0-0.4,0v-57
				c0,0,15.9-1.8,17.2,7.7c0,0.3,0.1,0.6,0.1,1V69.2z"/>
			<path class="st1" d="M140.4,187.6c13.7-0.1,27.1-0.1,39.8-0.2c7.4,0,14.5-0.1,21.3-0.1l0-4.7c0,0-5.5-0.3-5.5-5.9l0-43.9l-6.6,0
				l-21.5,0.1v8.3c-3.1-6.3-16-9.8-25.1-5.8c-13.7,6-19,21-18.9,35.1c0,5.8,0.9,11.7,2.9,17.1c0,0,0,0,0,0c0,0,0,0,0,0
				C131.4,187.6,135.9,187.6,140.4,187.6z M161.9,151.7c4.6,0,8.4,6.9,8.4,15.4c0,8.5-3.7,15.4-8.4,15.4c-4.6,0-8.4-6.9-8.4-15.4
				C153.6,158.7,157.3,151.7,161.9,151.7z"/>
			<path class="st1" d="M67.5,201.9c16-0.1,33.4-0.1,51-0.2l0-4.9l-51,0.2V201.9z"/>
			<path class="st1" d="M118.5,194.7l0-4.9l-26.3,0.1L67.5,190v4.9c3.9,0,7.8,0,11.8-0.1c5.1,0,10.4,0,15.7-0.1
				C102.7,194.7,110.6,194.7,118.5,194.7z"/>
			<polygon class="st1" points="67.5,204 67.5,208.9 118.5,208.9 118.5,203.8 			"/>
			<path class="st1" d="M0,202.2c3.9,0,9.1,0,15.2-0.1c9.8,0,22-0.1,35.8-0.2v-4.8l-51,0.2L0,202.2z"/>
			<path class="st1" d="M417.1,176.9l-1.1-4.4c-3.7,1.1-7.4,2.1-11,3.1c-4.2,1.1-8.3,2.2-12.5,3.3c-7.7,1.9-15.3,3.7-23.1,5.3
				c-5.6,1.2-11.2,2.3-16.8,3.3c1.2,1.5,2.7,2.8,4.6,3.9c0,0,0.1,0,0.1,0.1c16-3.1,31.9-6.8,47.6-11.1
				C408.9,179.2,413,178.1,417.1,176.9z"/>
			<path class="st1" d="M0,195.2C0,195.2,0,195.2,0,195.2L0,195.2c8.3,0,22-0.1,38.8-0.2c3.9,0,7.9,0,12.1-0.1v-4.9L0,190.4L0,195.2
				z"/>
			<polygon class="st1" points="0,204.4 0,208.9 51,208.9 51,204.1 24.3,204.2 			"/>
			<path class="st1" d="M516.2,134.2l2,3.7c10.5-5.1,20.6-10.3,30.3-15.7c7.9-4.4,15.5-8.9,22.8-13.5c0.5-1.6,0.7-3.2,0.8-4.6
				c0-0.1,0-0.2,0-0.4C555.1,114.4,536.3,124.7,516.2,134.2z"/>
			<polygon class="st1" points="251.9,203.2 211.1,203.4 211.1,208 251.9,208 			"/>
			<path class="st1" d="M341.1,152.3c1.4,8.4,5.1,21.7,6.4,25.6c0.1,0.4,0.2,0.8,0.4,1.1c0,0,0,0,0,0c0,0,0,0,0,0
				c4.8-0.8,9.7-1.8,14.5-2.7c0.2,0,0.5-0.1,0.7-0.1c4.8-1,9.7-2,14.5-3.1c-0.8-0.6-1.4-1.4-1.7-2.5l-0.2,0l-2.6-9.9l29.2-7.5
				l8.6-2.2l-5.3-19.4c-2.2-8.4-10.5-13.2-20.4-14.5C364.6,114.3,336.8,126.6,341.1,152.3z M380.7,139.3c0.8,2.1,2.3,9,2.3,9
				l-12.2,3.1c0,0-1.7-6.6-2.2-9.1C367.4,135.8,378.4,132.9,380.7,139.3z"/>
			<path class="st1" d="M340,196.6c-15.7,2.5-31.5,4.4-47.2,5.4l0.5,4.4c11.6-0.7,39.3-3.7,47.1-5.5L340,196.6z"/>
			<path class="st1" d="M348.7,181.1c0.6,1.4,1.4,2.9,2.3,4.4c0,0,0,0,0,0c18.1-3.3,36.1-7.4,53.8-12.3c3.5-1,7.1-2,10.6-3l-1.2-4.6
				c0,0,0,0,0,0l0,0c-3.2,0.9-6.4,1.8-9.6,2.7C386.2,173.5,367.5,177.8,348.7,181.1C348.7,181.1,348.7,181.1,348.7,181.1z"/>
			<path class="st1" d="M286.3,131.6c-0.2,0,2.5,21.5,2.5,21.5s6.7-1.8,7.6,3.9c0.2,1.9,1.8,13.8,1.9,14.9c0.5,7.6-8.1,9.3-8.1,9.3
				l0.6,4.7c0,0,0,0,0,0l0,0c5.3-0.3,10.6-0.8,16-1.3c10.4-1,20.9-2.4,31.4-4l-0.6-5.2c0,0-8.7,0.7-10-6.9c-0.1-1.1-1.5-13.1-1.8-15
				c-0.5-5.7,6.4-5.8,6.4-5.8s-2.7-21.5-2.8-21.5c-1.8,0.2-6.8,1.1-7.5-4.5c-0.6-4.9-1.9-16.3-1.9-16.3l-29.7,3.5
				c0,0,1.6,11.4,2.2,16.3C293.2,130.9,288.1,131.4,286.3,131.6z"/>
			<path class="st1" d="M291.1,188.2l0.6,4.8c15.7-1.1,31.5-2.9,47.3-5.4l-0.6-4.8c0,0,0,0,0,0l0,0c-10.2,1.6-20.5,3-30.7,4
				C302.2,187.3,296.6,187.8,291.1,188.2z"/>
			<path class="st1" d="M184.9,194.4c5.7,0,11.3-0.1,16.6-0.1v0c0,0,0,0,0,0l0-4.9l-21,0.1l-15.9,0.1l-37,0.2
				c0.7,1.7,1.6,3.3,2.6,4.8c17.5-0.1,34.9-0.2,51.1-0.2C182.6,194.4,183.8,194.4,184.9,194.4z"/>
			<path class="st1" d="M292,195.1l0.6,4.8c15.7-1.1,31.5-2.9,47.2-5.4l-0.5-4.8C323.5,192.2,307.7,194.1,292,195.1z"/>
			<path class="st1" d="M251.9,196.2l-40.7,0.2l0,4.9c12.2-0.1,22.9-0.1,31.3-0.1c3.6,0,6.8,0,9.5,0L251.9,196.2L251.9,196.2z"/>
			<path class="st1" d="M227.3,189.3l-16.2,0.1l0,4.9c4.3,0,8.3,0,12.2-0.1c12-0.1,21.9-0.1,28.6-0.1l0-4.9L227.3,189.3z"/>
			<path class="st1" d="M211.1,132.8V153c0,0,5.5,0.2,5.5,5.9l0,17.6c0,5.7-5.5,5.9-5.5,5.9l0,4.8c17.6-0.1,31.9-0.1,40.7-0.2l0-3.9
				c0,0-5.5-0.3-5.5-5.9l0-15.1c0.1-11.9,12.2-12.2,12.2,0.7l0.1,4.5l22.7,0c0,0,0-4.8,0.1-10.8c0.1-27-23.8-29-36.8-15.3v-8.3
				H211.1z"/>
		</g>
	</g>
</g>
</svg>
